SplineFontDB: 3.0
FontName: Ubuntu-Bold
FullName: Ubuntu Bold
FamilyName: Ubuntu
Weight: Bold
Copyright: Copyright 2011 Canonical Ltd.  Licensed under the Ubuntu Font Licence 1.0
Version: 0.80
ItalicAngle: 0
UnderlinePosition: -63
UnderlineWidth: 120
Ascent: 800
Descent: 200
sfntRevision: 0x0000cccc
LayerCount: 2
Layer: 0 1 "Back"  1
Layer: 1 1 "Fore"  0
NeedsXUIDChange: 1
XUID: [1021 589 586778349 9833055]
FSType: 0
OS2Version: 3
OS2_WeightWidthSlopeOnly: 0
OS2_UseTypoMetrics: 1
CreationTime: 1298466264
ModificationTime: 1341644614
PfmFamily: 17
TTFWeight: 700
TTFWidth: 5
LineGap: 28
VLineGap: 0
Panose: 2 11 8 4 3 6 2 3 2 4
OS2TypoAscent: -24
OS2TypoAOffset: 1
OS2TypoDescent: 15
OS2TypoDOffset: 1
OS2TypoLinegap: 56
OS2WinAscent: -30
OS2WinAOffset: 1
OS2WinDescent: -32
OS2WinDOffset: 1
HheadAscent: -30
HheadAOffset: 1
HheadDescent: 32
HheadDOffset: 1
OS2SubXSize: 700
OS2SubYSize: 650
OS2SubXOff: 0
OS2SubYOff: 140
OS2SupXSize: 700
OS2SupYSize: 650
OS2SupXOff: 0
OS2SupYOff: 477
OS2StrikeYSize: 120
OS2StrikeYPos: 250
OS2Vendor: 'DAMA'
OS2CodePages: 2000009f.56010000
OS2UnicodeRanges: e00002ff.5000205b.00000000.00000000
Lookup: 1 0 0 "'locl' Localized Forms in Latin lookup 0"  {"'locl' Localized Forms in Latin lookup 0 subtable"  } ['locl' ('latn' <'AZE ' > ) ]
Lookup: 1 0 0 "'locl' Localized Forms in Latin lookup 1"  {"'locl' Localized Forms in Latin lookup 1 subtable"  } ['locl' ('latn' <'TRK ' > ) ]
Lookup: 1 0 0 "'locl' Localized Forms in Latin lookup 2"  {"'locl' Localized Forms in Latin lookup 2 subtable"  } ['locl' ('latn' <'CRT ' > ) ]
Lookup: 1 0 0 "'locl' Localized Forms in Cyrillic lookup 3"  {"'locl' Localized Forms in Cyrillic lookup 3 subtable"  } ['locl' ('cyrl' <'BGR ' > ) ]
Lookup: 1 0 0 "'locl' Localized Forms in Cyrillic lookup 4"  {"'locl' Localized Forms in Cyrillic lookup 4 subtable"  } ['locl' ('cyrl' <'MKD ' > ) ]

StartChar: .notdef
Encoding: 65536 -1 0
Width: 500
Flags: W
LayerCount: 2
Fore
SplineSet
50 0 m 1,0,-1
 50 750 l 1,1,-1
 450 750 l 1,2,-1
 450 0 l 1,3,-1
 50 0 l 1,0,-1
400 50 m 1,4,-1
 400 700 l 1,5,-1
 100 700 l 1,6,-1
 100 50 l 1,7,-1
 400 50 l 1,4,-1
EndSplineSet
EndChar

StartChar: exclam
Encoding: 33 33 4
Width: 286
Flags: W
LayerCount: 2
Fore
SplineSet
223 514 m 2,0,1
 223 433 223 433 217 363 c 128,-1,2
 211 293 211 293 201 221 c 1,3,-1
 87 221 l 1,4,5
 77 293 77 293 70.5 363 c 128,-1,6
 64 433 64 433 64 514 c 2,7,-1
 64 693 l 1,8,-1
 223 693 l 1,9,-1
 223 514 l 2,0,1
236 79 m 256,10,11
 236 35 236 35 207.5 11 c 128,-1,12
 179 -13 179 -13 143 -13 c 256,13,14
 107 -13 107 -13 78.5 11 c 128,-1,15
 50 35 50 35 50 79 c 256,16,17
 50 123 50 123 78.5 147 c 128,-1,18
 107 171 107 171 143 171 c 256,19,20
 179 171 179 171 207.5 147 c 128,-1,21
 236 123 236 123 236 79 c 256,10,11
EndSplineSet
EndChar

StartChar: numbersign
Encoding: 35 35 6
Width: 699
Flags: W
LayerCount: 2
Fore
SplineSet
325 523 m 1,0,-1
 441 523 l 1,1,-1
 474 693 l 1,2,-1
 604 693 l 1,3,-1
 571 523 l 1,4,-1
 644 523 l 1,5,-1
 644 408 l 1,6,-1
 549 408 l 1,7,-1
 525 285 l 1,8,-1
 644 285 l 1,9,-1
 644 170 l 1,10,-1
 503 170 l 1,11,-1
 471 0 l 1,12,-1
 341 0 l 1,13,-1
 373 170 l 1,14,-1
 257 170 l 1,15,-1
 225 0 l 1,16,-1
 95 0 l 1,17,-1
 127 170 l 1,18,-1
 55 170 l 1,19,-1
 55 285 l 1,20,-1
 149 285 l 1,21,-1
 173 408 l 1,22,-1
 55 408 l 1,23,-1
 55 523 l 1,24,-1
 195 523 l 1,25,-1
 228 693 l 1,26,-1
 358 693 l 1,27,-1
 325 523 l 1,0,-1
279 285 m 1,28,-1
 395 285 l 1,29,-1
 419 408 l 1,30,-1
 303 408 l 1,31,-1
 279 285 l 1,28,-1
EndSplineSet
EndChar

StartChar: dollar
Encoding: 36 36 7
Width: 568
Flags: W
LayerCount: 2
Fore
SplineSet
221 10 m 1,0,1
 148 16 148 16 102.5 32.5 c 128,-1,2
 57 49 57 49 35 60 c 1,3,-1
 78 175 l 1,4,5
 113 158 113 158 161.5 144 c 128,-1,6
 210 130 210 130 264 130 c 0,7,8
 325 130 325 130 347.5 146.5 c 128,-1,9
 370 163 370 163 370 193 c 0,10,11
 370 212 370 212 361 225.5 c 128,-1,12
 352 239 352 239 335 250 c 128,-1,13
 318 261 318 261 292 271.5 c 128,-1,14
 266 282 266 282 232 294 c 0,15,16
 199 306 199 306 167.5 320.5 c 128,-1,17
 136 335 136 335 110.5 356 c 128,-1,18
 85 377 85 377 69.5 407.5 c 128,-1,19
 54 438 54 438 54 481 c 0,20,21
 54 514 54 514 63.5 544.5 c 128,-1,22
 73 575 73 575 93 600 c 128,-1,23
 113 625 113 625 145 642.5 c 128,-1,24
 177 660 177 660 221 668 c 1,25,-1
 221 776 l 1,26,-1
 347 776 l 1,27,-1
 347 672 l 1,28,29
 399 667 399 667 436.5 657 c 128,-1,30
 474 647 474 647 496 637 c 1,31,-1
 465 517 l 1,32,33
 432 531 432 531 388.5 541 c 128,-1,34
 345 551 345 551 297 551 c 256,35,36
 249 551 249 551 228 535 c 128,-1,37
 207 519 207 519 207 493 c 0,38,39
 207 477 207 477 213.5 465.5 c 128,-1,40
 220 454 220 454 234 445 c 128,-1,41
 248 436 248 436 268.5 427.5 c 128,-1,42
 289 419 289 419 318 409 c 0,43,44
 362 393 362 393 399.5 374 c 128,-1,45
 437 355 437 355 464.5 330.5 c 128,-1,46
 492 306 492 306 507.5 273 c 128,-1,47
 523 240 523 240 523 196 c 0,48,49
 523 166 523 166 514 136.5 c 128,-1,50
 505 107 505 107 484 82 c 128,-1,51
 463 57 463 57 429.5 39 c 128,-1,52
 396 21 396 21 347 13 c 1,53,-1
 347 -109 l 1,54,-1
 221 -109 l 1,55,-1
 221 10 l 1,0,1
EndSplineSet
EndChar

StartChar: percent
Encoding: 37 37 8
Width: 918
Flags: W
LayerCount: 2
Fore
SplineSet
389 515 m 256,0,1
 389 421 389 421 341 371 c 128,-1,2
 293 321 293 321 212 321 c 256,3,4
 131 321 131 321 83 371 c 128,-1,5
 35 421 35 421 35 515 c 256,6,7
 35 609 35 609 83 659 c 128,-1,8
 131 709 131 709 212 709 c 256,9,10
 293 709 293 709 341 659 c 128,-1,11
 389 609 389 609 389 515 c 256,0,1
276 515 m 256,12,13
 276 566 276 566 258 589 c 128,-1,14
 240 612 240 612 212 612 c 0,15,16
 183 612 183 612 165.5 589 c 128,-1,17
 148 566 148 566 148 515 c 256,18,19
 148 464 148 464 165.5 440.5 c 128,-1,20
 183 417 183 417 212 417 c 0,21,22
 240 417 240 417 258 440.5 c 128,-1,23
 276 464 276 464 276 515 c 256,12,13
584 693 m 1,24,-1
 723 693 l 1,25,-1
 332 0 l 1,26,-1
 193 0 l 1,27,-1
 584 693 l 1,24,-1
883 178 m 256,28,29
 883 84 883 84 835 34 c 128,-1,30
 787 -16 787 -16 706 -16 c 256,31,32
 625 -16 625 -16 577 34 c 128,-1,33
 529 84 529 84 529 178 c 256,34,35
 529 272 529 272 577 322 c 128,-1,36
 625 372 625 372 706 372 c 256,37,38
 787 372 787 372 835 322 c 128,-1,39
 883 272 883 272 883 178 c 256,28,29
770 178 m 256,40,41
 770 229 770 229 752 252 c 128,-1,42
 734 275 734 275 706 275 c 0,43,44
 677 275 677 275 659.5 252 c 128,-1,45
 642 229 642 229 642 178 c 256,46,47
 642 127 642 127 659.5 103.5 c 128,-1,48
 677 80 677 80 706 80 c 0,49,50
 734 80 734 80 752 103.5 c 128,-1,51
 770 127 770 127 770 178 c 256,40,41
EndSplineSet
EndChar

StartChar: ampersand
Encoding: 38 38 9
Width: 705
Flags: W
LayerCount: 2
Fore
SplineSet
35 184 m 0,0,1
 35 222 35 222 46 253.5 c 128,-1,2
 57 285 57 285 75.5 310.5 c 128,-1,3
 94 336 94 336 118.5 355.5 c 128,-1,4
 143 375 143 375 170 390 c 1,5,6
 146 419 146 419 127 452.5 c 128,-1,7
 108 486 108 486 108 526 c 0,8,9
 108 614 108 614 161 661.5 c 128,-1,10
 214 709 214 709 307 709 c 0,11,12
 354 709 354 709 389 696.5 c 128,-1,13
 424 684 424 684 447.5 662.5 c 128,-1,14
 471 641 471 641 483 612.5 c 128,-1,15
 495 584 495 584 495 551 c 0,16,17
 495 490 495 490 460.5 442.5 c 128,-1,18
 426 395 426 395 373 363 c 1,19,-1
 485 251 l 1,20,21
 494 271 494 271 502.5 301.5 c 128,-1,22
 511 332 511 332 513 355 c 1,23,-1
 637 339 l 1,24,25
 635 320 635 320 630 297.5 c 128,-1,26
 625 275 625 275 617.5 252 c 128,-1,27
 610 229 610 229 600.5 206 c 128,-1,28
 591 183 591 183 580 164 c 1,29,30
 612 128 612 128 642.5 85.5 c 128,-1,31
 673 43 673 43 695 0 c 1,32,-1
 542 0 l 1,33,34
 534 13 534 13 520 32.5 c 128,-1,35
 506 52 506 52 492 66 c 1,36,37
 452 34 452 34 399 12.5 c 128,-1,38
 346 -9 346 -9 280 -9 c 0,39,40
 210 -9 210 -9 163 8.5 c 128,-1,41
 116 26 116 26 87.5 53.5 c 128,-1,42
 59 81 59 81 47 115.5 c 128,-1,43
 35 150 35 150 35 184 c 0,0,1
174 199 m 0,44,45
 174 184 174 184 180 168 c 128,-1,46
 186 152 186 152 199.5 138.5 c 128,-1,47
 213 125 213 125 234 116.5 c 128,-1,48
 255 108 255 108 285 108 c 0,49,50
 327 108 327 108 358.5 119 c 128,-1,51
 390 130 390 130 411 148 c 1,52,-1
 251 309 l 1,53,54
 237 302 237 302 223.5 292 c 128,-1,55
 210 282 210 282 199 268.5 c 128,-1,56
 188 255 188 255 181 238 c 128,-1,57
 174 221 174 221 174 199 c 0,44,45
368 544 m 0,58,59
 368 567 368 567 353 585 c 128,-1,60
 338 603 338 603 303 603 c 0,61,62
 271 603 271 603 253.5 583.5 c 128,-1,63
 236 564 236 564 236 533 c 0,64,65
 236 507 236 507 251 482.5 c 128,-1,66
 266 458 266 458 290 436 c 1,67,68
 322 454 322 454 345 479 c 128,-1,69
 368 504 368 504 368 544 c 0,58,59
EndSplineSet
EndChar

StartChar: quotesingle
Encoding: 39 39 10
Width: 247
Flags: W
LayerCount: 2
Fore
SplineSet
197 760 m 1,0,-1
 197 686 l 2,1,2
 197 638 197 638 189.5 581 c 128,-1,3
 182 524 182 524 173 466 c 1,4,-1
 74 466 l 1,5,6
 63 524 63 524 56.5 581 c 128,-1,7
 50 638 50 638 50 687 c 2,8,-1
 50 760 l 1,9,-1
 197 760 l 1,0,-1
EndSplineSet
EndChar

StartChar: parenleft
Encoding: 40 40 11
Width: 356
Flags: W
LayerCount: 2
Fore
SplineSet
217 299 m 256,0,1
 217 181 217 181 254 74 c 128,-1,2
 291 -33 291 -33 351 -118 c 1,3,-1
 247 -185 l 1,4,5
 162 -86 162 -86 116 37 c 128,-1,6
 70 160 70 160 70 299 c 256,7,8
 70 438 70 438 116 561 c 128,-1,9
 162 684 162 684 247 783 c 1,10,-1
 351 716 l 1,11,12
 291 631 291 631 254 524 c 128,-1,13
 217 417 217 417 217 299 c 256,0,1
EndSplineSet
Substitution2: "'case' Case-Sensitive Forms lookup 18 subtable" Parenleft
EndChar

StartChar: parenright
Encoding: 41 41 12
Width: 356
Flags: W
LayerCount: 2
Fore
SplineSet
139 299 m 256,0,1
 139 417 139 417 102 524 c 128,-1,2
 65 631 65 631 5 716 c 1,3,-1
 109 783 l 1,4,5
 194 684 194 684 240 561 c 128,-1,6
 286 438 286 438 286 299 c 256,7,8
 286 160 286 160 240 37 c 128,-1,9
 194 -86 194 -86 109 -185 c 1,10,-1
 5 -118 l 1,11,12
 65 -33 65 -33 102 74 c 128,-1,13
 139 181 139 181 139 299 c 256,0,1
EndSplineSet
Substitution2: "'case' Case-Sensitive Forms lookup 18 subtable" Parenright
EndChar

StartChar: asterisk
Encoding: 42 42 13
Width: 502
Flags: W
LayerCount: 2
Fore
SplineSet
283 536 m 1,0,1
 293 545 293 545 308 555.5 c 128,-1,2
 323 566 323 566 338.5 576.5 c 128,-1,3
 354 587 354 587 370 595.5 c 128,-1,4
 386 604 386 604 398 608 c 2,5,-1
 422 616 l 1,6,-1
 462 492 l 1,7,-1
 438 484 l 2,8,9
 425 480 425 480 408 478 c 128,-1,10
 391 476 391 476 372 475.5 c 128,-1,11
 353 475 353 475 335 475 c 128,-1,12
 317 475 317 475 303 475 c 1,13,14
 315 467 315 467 329.5 456.5 c 128,-1,15
 344 446 344 446 358.5 434.5 c 128,-1,16
 373 423 373 423 386 411 c 128,-1,17
 399 399 399 399 407 388 c 2,18,-1
 423 367 l 1,19,-1
 317 292 l 1,20,-1
 302 312 l 2,21,22
 294 322 294 322 286.5 338 c 128,-1,23
 279 354 279 354 272 371.5 c 128,-1,24
 265 389 265 389 260 406 c 128,-1,25
 255 423 255 423 251 437 c 1,26,27
 247 423 247 423 242 406 c 128,-1,28
 237 389 237 389 230 371.5 c 128,-1,29
 223 354 223 354 215.5 338 c 128,-1,30
 208 322 208 322 200 312 c 2,31,-1
 185 292 l 1,32,-1
 79 367 l 1,33,-1
 95 388 l 2,34,35
 103 399 103 399 116 411 c 128,-1,36
 129 423 129 423 143.5 434.5 c 128,-1,37
 158 446 158 446 172.5 456.5 c 128,-1,38
 187 467 187 467 199 475 c 1,39,40
 185 475 185 475 167 475 c 128,-1,41
 149 475 149 475 130 475.5 c 128,-1,42
 111 476 111 476 94 478 c 128,-1,43
 77 480 77 480 64 484 c 2,44,-1
 40 492 l 1,45,-1
 80 616 l 1,46,-1
 104 608 l 2,47,48
 116 604 116 604 132 595.5 c 128,-1,49
 148 587 148 587 163.5 576.5 c 128,-1,50
 179 566 179 566 193.5 555.5 c 128,-1,51
 208 545 208 545 219 536 c 1,52,53
 214 549 214 549 208.5 566.5 c 128,-1,54
 203 584 203 584 198 602 c 128,-1,55
 193 620 193 620 189.5 637.5 c 128,-1,56
 186 655 186 655 186 668 c 2,57,-1
 186 693 l 1,58,-1
 316 693 l 1,59,-1
 316 668 l 2,60,61
 316 655 316 655 312.5 637.5 c 128,-1,62
 309 620 309 620 304 602 c 128,-1,63
 299 584 299 584 293.5 566.5 c 128,-1,64
 288 549 288 549 283 536 c 1,0,1
EndSplineSet
EndChar

StartChar: plus
Encoding: 43 43 14
Width: 568
Flags: W
LayerCount: 2
Fore
SplineSet
49 361 m 1,0,-1
 216 361 l 1,1,-1
 216 546 l 1,2,-1
 352 546 l 1,3,-1
 352 361 l 1,4,-1
 519 361 l 1,5,-1
 519 236 l 1,6,-1
 352 236 l 1,7,-1
 352 51 l 1,8,-1
 216 51 l 1,9,-1
 216 236 l 1,10,-1
 49 236 l 1,11,-1
 49 361 l 1,0,-1
EndSplineSet
EndChar

StartChar: comma
Encoding: 44 44 15
Width: 246
Flags: W
LayerCount: 2
Fore
SplineSet
211 152 m 1,0,1
 213 128 213 128 213.5 118 c 128,-1,2
 214 108 214 108 214 101 c 0,3,4
 214 71 214 71 208.5 37.5 c 128,-1,5
 203 4 203 4 193 -30 c 128,-1,6
 183 -64 183 -64 168 -98 c 128,-1,7
 153 -132 153 -132 134 -163 c 1,8,-1
 17 -134 l 1,9,10
 40 -68 40 -68 49 -10 c 128,-1,11
 58 48 58 48 58 86 c 0,12,13
 58 92 58 92 57.5 101.5 c 128,-1,14
 57 111 57 111 56.5 121 c 128,-1,15
 56 131 56 131 55.5 140 c 128,-1,16
 55 149 55 149 55 152 c 1,17,-1
 211 152 l 1,0,1
EndSplineSet
EndChar

StartChar: hyphen
Encoding: 45 45 16
Width: 340
Flags: W
LayerCount: 2
Fore
SplineSet
25 366 m 1,0,-1
 315 366 l 1,1,-1
 315 231 l 1,2,-1
 25 231 l 1,3,-1
 25 366 l 1,0,-1
EndSplineSet
Substitution2: "'case' Case-Sensitive Forms lookup 18 subtable" Hyphen
EndChar

StartChar: period
Encoding: 46 46 17
Width: 246
Flags: W
LayerCount: 2
Fore
SplineSet
216 79 m 256,0,1
 216 34 216 34 187.5 10.5 c 128,-1,2
 159 -13 159 -13 123 -13 c 256,3,4
 87 -13 87 -13 58.5 10.5 c 128,-1,5
 30 34 30 34 30 79 c 256,6,7
 30 124 30 124 58.5 147.5 c 128,-1,8
 87 171 87 171 123 171 c 256,9,10
 159 171 159 171 187.5 147.5 c 128,-1,11
 216 124 216 124 216 79 c 256,0,1
EndSplineSet
EndChar

StartChar: slash
Encoding: 47 47 18
Width: 437
Flags: W
LayerCount: 2
Fore
SplineSet
128 -185 m 1,0,-1
 -25 -185 l 1,1,-1
 311 783 l 1,2,-1
 462 783 l 1,3,-1
 128 -185 l 1,0,-1
EndSplineSet
Substitution2: "'case' Case-Sensitive Forms lookup 18 subtable" Slash
Substitution2: "'frac' Diagonal Fractions lookup 14 subtable" fraction
EndChar

StartChar: zero
Encoding: 48 48 19
Width: 568
Flags: W
LayerCount: 2
Fore
SplineSet
534 348 m 0,0,1
 534 173 534 173 467.5 79.5 c 128,-1,2
 401 -14 401 -14 284 -14 c 256,3,4
 167 -14 167 -14 100.5 79.5 c 128,-1,5
 34 173 34 173 34 348 c 0,6,7
 34 435 34 435 51.5 502 c 128,-1,8
 69 569 69 569 102 615 c 128,-1,9
 135 661 135 661 181 685 c 128,-1,10
 227 709 227 709 284 709 c 0,11,12
 401 709 401 709 467.5 615.5 c 128,-1,13
 534 522 534 522 534 348 c 0,0,1
382 348 m 256,14,15
 382 400 382 400 377 442.5 c 128,-1,16
 372 485 372 485 361 516 c 128,-1,17
 350 547 350 547 331 564 c 128,-1,18
 312 581 312 581 284 581 c 256,19,20
 256 581 256 581 237.5 564 c 128,-1,21
 219 547 219 547 207.5 516 c 128,-1,22
 196 485 196 485 191 442.5 c 128,-1,23
 186 400 186 400 186 348 c 256,24,25
 186 296 186 296 191 253 c 128,-1,26
 196 210 196 210 207.5 179 c 128,-1,27
 219 148 219 148 237.5 131 c 128,-1,28
 256 114 256 114 284 114 c 256,29,30
 312 114 312 114 331 131 c 128,-1,31
 350 148 350 148 361 179 c 128,-1,32
 372 210 372 210 377 253 c 128,-1,33
 382 296 382 296 382 348 c 256,14,15
EndSplineSet
Substitution2: "'frac' Diagonal Fractions lookup 16 subtable" zerosuperior
Substitution2: "'sinf' Scientific Inferiors lookup 13 subtable" zero.sinf
Substitution2: "'subs' Subscript lookup 12 subtable" zero.sinf
Substitution2: "'sups' Superscript lookup 11 subtable" zero.sups
Substitution2: "'dnom' Denominators lookup 10 subtable" zeroinferior
Substitution2: "'numr' Numerators lookup 8 subtable" zerosuperior
Substitution2: "'pnum' Proportional Numbers lookup 6 subtable" zero.alt
EndChar

StartChar: one
Encoding: 49 49 20
Width: 568
Flags: W
LayerCount: 2
Fore
SplineSet
70 549 m 1,0,1
 99 561 99 561 130.5 576.5 c 128,-1,2
 162 592 162 592 192 610.5 c 128,-1,3
 222 629 222 629 249.5 649.5 c 128,-1,4
 277 670 277 670 299 693 c 1,5,-1
 403 693 l 1,6,-1
 403 0 l 1,7,-1
 254 0 l 1,8,-1
 254 499 l 1,9,10
 224 479 224 479 187 462.5 c 128,-1,11
 150 446 150 446 115 434 c 1,12,-1
 70 549 l 1,0,1
EndSplineSet
Substitution2: "'frac' Diagonal Fractions lookup 16 subtable" onesuperior
Substitution2: "'sinf' Scientific Inferiors lookup 13 subtable" one.sinf
Substitution2: "'subs' Subscript lookup 12 subtable" one.sinf
Substitution2: "'sups' Superscript lookup 11 subtable" one.sups
Substitution2: "'dnom' Denominators lookup 10 subtable" oneinferior
Substitution2: "'numr' Numerators lookup 8 subtable" onesuperior
Substitution2: "'pnum' Proportional Numbers lookup 6 subtable" one.alt
EndChar

StartChar: two
Encoding: 50 50 21
Width: 568
Flags: W
LayerCount: 2
Fore
SplineSet
496 511 m 0,0,1
 496 473 496 473 481 438 c 128,-1,2
 466 403 466 403 442 370.5 c 128,-1,3
 418 338 418 338 388 308 c 128,-1,4
 358 278 358 278 329 251 c 0,5,6
 314 237 314 237 296.5 219.5 c 128,-1,7
 279 202 279 202 263 184 c 128,-1,8
 247 166 247 166 234.5 150.5 c 128,-1,9
 222 135 222 135 219 125 c 1,10,-1
 517 125 l 1,11,-1
 517 0 l 1,12,-1
 55 0 l 1,13,14
 53 11 53 11 53 28 c 128,-1,15
 53 45 53 45 53 52 c 0,16,17
 53 100 53 100 68.5 140 c 128,-1,18
 84 180 84 180 109 214.5 c 128,-1,19
 134 249 134 249 165.5 279 c 128,-1,20
 197 309 197 309 228 339 c 0,21,22
 252 362 252 362 273 382.5 c 128,-1,23
 294 403 294 403 310 422.5 c 128,-1,24
 326 442 326 442 335 461.5 c 128,-1,25
 344 481 344 481 344 501 c 0,26,27
 344 545 344 545 319 563 c 128,-1,28
 294 581 294 581 257 581 c 0,29,30
 230 581 230 581 206.5 572.5 c 128,-1,31
 183 564 183 564 163.5 552.5 c 128,-1,32
 144 541 144 541 130 529.5 c 128,-1,33
 116 518 116 518 109 511 c 1,34,-1
 35 615 l 1,35,36
 79 656 79 656 137.5 682.5 c 128,-1,37
 196 709 196 709 263 709 c 0,38,39
 324 709 324 709 368 695 c 128,-1,40
 412 681 412 681 440.5 655.5 c 128,-1,41
 469 630 469 630 482.5 593.5 c 128,-1,42
 496 557 496 557 496 511 c 0,0,1
EndSplineSet
Substitution2: "'frac' Diagonal Fractions lookup 16 subtable" twosuperior
Substitution2: "'sinf' Scientific Inferiors lookup 13 subtable" two.sinf
Substitution2: "'subs' Subscript lookup 12 subtable" two.sinf
Substitution2: "'sups' Superscript lookup 11 subtable" two.sups
Substitution2: "'dnom' Denominators lookup 10 subtable" twoinferior
Substitution2: "'numr' Numerators lookup 8 subtable" twosuperior
Substitution2: "'pnum' Proportional Numbers lookup 6 subtable" two.alt
EndChar

StartChar: three
Encoding: 51 51 22
Width: 568
Flags: W
LayerCount: 2
Fore
SplineSet
228 -15 m 0,0,1
 201 -15 201 -15 171 -11.5 c 128,-1,2
 141 -8 141 -8 113 -2 c 128,-1,3
 85 4 85 4 62 11 c 128,-1,4
 39 18 39 18 26 24 c 1,5,-1
 55 148 l 1,6,7
 81 137 81 137 121.5 124.5 c 128,-1,8
 162 112 162 112 222 112 c 0,9,10
 291 112 291 112 323 138 c 128,-1,11
 355 164 355 164 355 208 c 0,12,13
 355 235 355 235 343.5 253.5 c 128,-1,14
 332 272 332 272 312 283.5 c 128,-1,15
 292 295 292 295 264.5 299.5 c 128,-1,16
 237 304 237 304 206 304 c 2,17,-1
 148 304 l 1,18,-1
 148 424 l 1,19,-1
 214 424 l 2,20,21
 236 424 236 424 256.5 428 c 128,-1,22
 277 432 277 432 293 441.5 c 128,-1,23
 309 451 309 451 318.5 467.5 c 128,-1,24
 328 484 328 484 328 509 c 0,25,26
 328 528 328 528 320 542 c 128,-1,27
 312 556 312 556 299.5 565 c 128,-1,28
 287 574 287 574 270.5 578.5 c 128,-1,29
 254 583 254 583 237 583 c 0,30,31
 194 583 194 583 157.5 570 c 128,-1,32
 121 557 121 557 91 538 c 1,33,-1
 38 647 l 1,34,35
 54 657 54 657 75.5 668 c 128,-1,36
 97 679 97 679 123 688 c 128,-1,37
 149 697 149 697 178.5 703 c 128,-1,38
 208 709 208 709 241 709 c 0,39,40
 302 709 302 709 346.5 694.5 c 128,-1,41
 391 680 391 680 420 653.5 c 128,-1,42
 449 627 449 627 463 591.5 c 128,-1,43
 477 556 477 556 477 514 c 0,44,45
 477 473 477 473 454 434.5 c 128,-1,46
 431 396 431 396 392 376 c 1,47,48
 446 354 446 354 475.5 310.5 c 128,-1,49
 505 267 505 267 505 206 c 0,50,51
 505 158 505 158 489 117.5 c 128,-1,52
 473 77 473 77 439 47.5 c 128,-1,53
 405 18 405 18 352.5 1.5 c 128,-1,54
 300 -15 300 -15 228 -15 c 0,0,1
EndSplineSet
Substitution2: "'frac' Diagonal Fractions lookup 16 subtable" threesuperior
Substitution2: "'sinf' Scientific Inferiors lookup 13 subtable" three.sinf
Substitution2: "'subs' Subscript lookup 12 subtable" three.sinf
Substitution2: "'sups' Superscript lookup 11 subtable" three.sups
Substitution2: "'dnom' Denominators lookup 10 subtable" threeinferior
Substitution2: "'numr' Numerators lookup 8 subtable" threesuperior
Substitution2: "'pnum' Proportional Numbers lookup 6 subtable" three.alt
EndChar

StartChar: four
Encoding: 52 52 23
Width: 568
Flags: W
LayerCount: 2
Fore
SplineSet
319 511 m 1,0,1
 280 460 280 460 236 400 c 128,-1,2
 192 340 192 340 162 277 c 1,3,-1
 319 277 l 1,4,-1
 319 511 l 1,0,1
465 693 m 1,5,-1
 465 277 l 1,6,-1
 539 277 l 1,7,-1
 539 155 l 1,8,-1
 465 155 l 1,9,-1
 465 0 l 1,10,-1
 319 0 l 1,11,-1
 319 155 l 1,12,-1
 20 155 l 1,13,-1
 20 264 l 1,14,15
 42 308 42 308 75 363.5 c 128,-1,16
 108 419 108 419 148.5 477.5 c 128,-1,17
 189 536 189 536 234 592 c 128,-1,18
 279 648 279 648 324 693 c 1,19,-1
 465 693 l 1,5,-1
EndSplineSet
Substitution2: "'frac' Diagonal Fractions lookup 16 subtable" foursuperior
Substitution2: "'sinf' Scientific Inferiors lookup 13 subtable" four.sinf
Substitution2: "'subs' Subscript lookup 12 subtable" four.sinf
Substitution2: "'sups' Superscript lookup 11 subtable" four.sups
Substitution2: "'dnom' Denominators lookup 10 subtable" fourinferior
Substitution2: "'numr' Numerators lookup 8 subtable" foursuperior
Substitution2: "'pnum' Proportional Numbers lookup 6 subtable" four.alt
EndChar

StartChar: five
Encoding: 53 53 24
Width: 568
Flags: W
LayerCount: 2
Fore
SplineSet
360 204 m 0,0,1
 360 233 360 233 347 255.5 c 128,-1,2
 334 278 334 278 302 293 c 128,-1,3
 270 308 270 308 216 316 c 128,-1,4
 162 324 162 324 80 324 c 1,5,6
 91 417 91 417 98 513 c 128,-1,7
 105 609 105 609 109 693 c 1,8,-1
 484 693 l 1,9,-1
 484 568 l 1,10,-1
 234 568 l 1,11,12
 232 532 232 532 229.5 498.5 c 128,-1,13
 227 465 227 465 224 440 c 1,14,15
 370 430 370 430 439.5 371.5 c 128,-1,16
 509 313 509 313 509 209 c 0,17,18
 509 161 509 161 492 120 c 128,-1,19
 475 79 475 79 441 49 c 128,-1,20
 407 19 407 19 355.5 2 c 128,-1,21
 304 -15 304 -15 235 -15 c 0,22,23
 208 -15 208 -15 178.5 -11.5 c 128,-1,24
 149 -8 149 -8 121.5 -2.5 c 128,-1,25
 94 3 94 3 72 9 c 128,-1,26
 50 15 50 15 38 21 c 1,27,-1
 65 144 l 1,28,29
 90 133 90 133 131 122.5 c 128,-1,30
 172 112 172 112 229 112 c 0,31,32
 298 112 298 112 329 139.5 c 128,-1,33
 360 167 360 167 360 204 c 0,0,1
EndSplineSet
Substitution2: "'frac' Diagonal Fractions lookup 16 subtable" fivesuperior
Substitution2: "'sinf' Scientific Inferiors lookup 13 subtable" five.sinf
Substitution2: "'subs' Subscript lookup 12 subtable" five.sinf
Substitution2: "'sups' Superscript lookup 11 subtable" five.sups
Substitution2: "'dnom' Denominators lookup 10 subtable" fiveinferior
Substitution2: "'numr' Numerators lookup 8 subtable" fivesuperior
Substitution2: "'pnum' Proportional Numbers lookup 6 subtable" five.alt
EndChar

StartChar: six
Encoding: 54 54 25
Width: 568
Flags: W
LayerCount: 2
Fore
SplineSet
274 326 m 0,0,1
 252 326 252 326 227 322 c 128,-1,2
 202 318 202 318 188 311 c 1,3,4
 188 307 188 307 187.5 299 c 128,-1,5
 187 291 187 291 187 285 c 0,6,7
 187 249 187 249 192 217 c 128,-1,8
 197 185 197 185 209 161 c 128,-1,9
 221 137 221 137 241 123.5 c 128,-1,10
 261 110 261 110 291 110 c 0,11,12
 316 110 316 110 333.5 120.5 c 128,-1,13
 351 131 351 131 362.5 147 c 128,-1,14
 374 163 374 163 379.5 182.5 c 128,-1,15
 385 202 385 202 385 220 c 0,16,17
 385 271 385 271 359.5 298.5 c 128,-1,18
 334 326 334 326 274 326 c 0,0,1
293 442 m 0,19,20
 358 442 358 442 403.5 424.5 c 128,-1,21
 449 407 449 407 478 377 c 128,-1,22
 507 347 507 347 520 307 c 128,-1,23
 533 267 533 267 533 222 c 0,24,25
 533 182 533 182 518.5 140 c 128,-1,26
 504 98 504 98 474.5 64 c 128,-1,27
 445 30 445 30 399.5 8 c 128,-1,28
 354 -14 354 -14 292 -14 c 0,29,30
 167 -14 167 -14 102 65 c 128,-1,31
 37 144 37 144 37 283 c 0,32,33
 37 383 37 383 68 460 c 128,-1,34
 99 537 99 537 156.5 589.5 c 128,-1,35
 214 642 214 642 295.5 669.5 c 128,-1,36
 377 697 377 697 479 698 c 1,37,38
 481 667 481 667 483 637.5 c 128,-1,39
 485 608 485 608 487 576 c 1,40,41
 436 575 436 575 391.5 566.5 c 128,-1,42
 347 558 347 558 310.5 540 c 128,-1,43
 274 522 274 522 247 493.5 c 128,-1,44
 220 465 220 465 205 424 c 1,45,46
 227 434 227 434 250 438 c 128,-1,47
 273 442 273 442 293 442 c 0,19,20
EndSplineSet
Substitution2: "'frac' Diagonal Fractions lookup 16 subtable" sixsuperior
Substitution2: "'sinf' Scientific Inferiors lookup 13 subtable" six.sinf
Substitution2: "'subs' Subscript lookup 12 subtable" six.sinf
Substitution2: "'sups' Superscript lookup 11 subtable" six.sups
Substitution2: "'dnom' Denominators lookup 10 subtable" sixinferior
Substitution2: "'numr' Numerators lookup 8 subtable" sixsuperior
Substitution2: "'pnum' Proportional Numbers lookup 6 subtable" six.alt
EndChar

StartChar: seven
Encoding: 55 55 26
Width: 568
Flags: W
LayerCount: 2
Fore
SplineSet
142 0 m 1,0,1
 148 73 148 73 167 152 c 128,-1,2
 186 231 186 231 213.5 307 c 128,-1,3
 241 383 241 383 275 450.5 c 128,-1,4
 309 518 309 518 344 567 c 1,5,-1
 43 567 l 1,6,-1
 43 694 l 1,7,-1
 528 694 l 1,8,-1
 528 586 l 1,9,10
 496 551 496 551 457.5 489 c 128,-1,11
 419 427 419 427 384.5 348.5 c 128,-1,12
 350 270 350 270 324.5 180 c 128,-1,13
 299 90 299 90 293 0 c 1,14,-1
 142 0 l 1,0,1
EndSplineSet
Substitution2: "'frac' Diagonal Fractions lookup 16 subtable" sevensuperior
Substitution2: "'sinf' Scientific Inferiors lookup 13 subtable" seven.sinf
Substitution2: "'subs' Subscript lookup 12 subtable" seven.sinf
Substitution2: "'sups' Superscript lookup 11 subtable" seven.sups
Substitution2: "'dnom' Denominators lookup 10 subtable" seveninferior
Substitution2: "'numr' Numerators lookup 8 subtable" sevensuperior
Substitution2: "'pnum' Proportional Numbers lookup 6 subtable" seven.alt
EndChar

StartChar: eight
Encoding: 56 56 27
Width: 568
Flags: W
LayerCount: 2
Fore
SplineSet
530 193 m 0,0,1
 530 148 530 148 514.5 110.5 c 128,-1,2
 499 73 499 73 468 45 c 128,-1,3
 437 17 437 17 390.5 1.5 c 128,-1,4
 344 -14 344 -14 283 -14 c 0,5,6
 213 -14 213 -14 166.5 5.5 c 128,-1,7
 120 25 120 25 91.5 54 c 128,-1,8
 63 83 63 83 51 117.5 c 128,-1,9
 39 152 39 152 39 181 c 0,10,11
 39 211 39 211 47 236 c 128,-1,12
 55 261 55 261 69 281.5 c 128,-1,13
 83 302 83 302 100.5 319 c 128,-1,14
 118 336 118 336 138 351 c 1,15,16
 95 386 95 386 74.5 420 c 128,-1,17
 54 454 54 454 54 507 c 0,18,19
 54 547 54 547 70.5 584 c 128,-1,20
 87 621 87 621 117 648.5 c 128,-1,21
 147 676 147 676 189.5 692.5 c 128,-1,22
 232 709 232 709 284 709 c 0,23,24
 345 709 345 709 388.5 691.5 c 128,-1,25
 432 674 432 674 460 647 c 128,-1,26
 488 620 488 620 500.5 586.5 c 128,-1,27
 513 553 513 553 513 520 c 0,28,29
 513 472 513 472 487.5 430.5 c 128,-1,30
 462 389 462 389 424 365 c 1,31,32
 481 328 481 328 505.5 287.5 c 128,-1,33
 530 247 530 247 530 193 c 0,0,1
184 187 m 0,34,35
 184 175 184 175 189.5 160.5 c 128,-1,36
 195 146 195 146 207 134 c 128,-1,37
 219 122 219 122 238 114 c 128,-1,38
 257 106 257 106 284 106 c 0,39,40
 336 106 336 106 360 131 c 128,-1,41
 384 156 384 156 384 187 c 0,42,43
 384 210 384 210 373.5 228 c 128,-1,44
 363 246 363 246 345 259.5 c 128,-1,45
 327 273 327 273 302.5 283.5 c 128,-1,46
 278 294 278 294 250 303 c 1,47,48
 222 282 222 282 203 254 c 128,-1,49
 184 226 184 226 184 187 c 0,34,35
369 516 m 0,50,51
 369 527 369 527 364.5 539.5 c 128,-1,52
 360 552 360 552 349.5 563 c 128,-1,53
 339 574 339 574 323 581.5 c 128,-1,54
 307 589 307 589 284 589 c 0,55,56
 262 589 262 589 246 582 c 128,-1,57
 230 575 230 575 219.5 563.5 c 128,-1,58
 209 552 209 552 204 539 c 128,-1,59
 199 526 199 526 199 514 c 0,60,61
 199 482 199 482 222.5 454 c 128,-1,62
 246 426 246 426 303 406 c 1,63,64
 335 426 335 426 352 452 c 128,-1,65
 369 478 369 478 369 516 c 0,50,51
EndSplineSet
Substitution2: "'frac' Diagonal Fractions lookup 16 subtable" eightsuperior
Substitution2: "'sinf' Scientific Inferiors lookup 13 subtable" eight.sinf
Substitution2: "'subs' Subscript lookup 12 subtable" eight.sinf
Substitution2: "'sups' Superscript lookup 11 subtable" eight.sups
Substitution2: "'dnom' Denominators lookup 10 subtable" eightinferior
Substitution2: "'numr' Numerators lookup 8 subtable" eightsuperior
Substitution2: "'pnum' Proportional Numbers lookup 6 subtable" eight.alt
EndChar

StartChar: nine
Encoding: 57 57 28
Width: 568
Flags: W
LayerCount: 2
Fore
SplineSet
289 372 m 0,0,1
 312 372 312 372 337 376.5 c 128,-1,2
 362 381 362 381 374 389 c 1,3,-1
 374 398 l 2,4,5
 374 402 374 402 374.5 406 c 128,-1,6
 375 410 375 410 375 413 c 0,7,8
 374 449 374 449 369 480.5 c 128,-1,9
 364 512 364 512 352 535.5 c 128,-1,10
 340 559 340 559 319.5 572.5 c 128,-1,11
 299 586 299 586 269 586 c 0,12,13
 245 586 245 586 227 576 c 128,-1,14
 209 566 209 566 198 550 c 128,-1,15
 187 534 187 534 181.5 515 c 128,-1,16
 176 496 176 496 176 478 c 0,17,18
 176 424 176 424 202.5 398 c 128,-1,19
 229 372 229 372 289 372 c 0,0,1
362 275 m 1,20,21
 341 265 341 265 315.5 260.5 c 128,-1,22
 290 256 290 256 272 256 c 0,23,24
 207 256 207 256 161 271.5 c 128,-1,25
 115 287 115 287 85.5 315.5 c 128,-1,26
 56 344 56 344 42 384 c 128,-1,27
 28 424 28 424 28 472 c 0,28,29
 28 512 28 512 41.5 554 c 128,-1,30
 55 596 55 596 84 630.5 c 128,-1,31
 113 665 113 665 157.5 687.5 c 128,-1,32
 202 710 202 710 265 710 c 0,33,34
 394 710 394 710 459.5 630.5 c 128,-1,35
 525 551 525 551 525 402 c 0,36,37
 525 304 525 304 499.5 229 c 128,-1,38
 474 154 474 154 420.5 103 c 128,-1,39
 367 52 367 52 284 25.5 c 128,-1,40
 201 -1 201 -1 87 -2 c 1,41,42
 86 30 86 30 84 60 c 128,-1,43
 82 90 82 90 80 122 c 1,44,45
 137 123 137 123 183 130.5 c 128,-1,46
 229 138 229 138 264 155.5 c 128,-1,47
 299 173 299 173 323.5 202 c 128,-1,48
 348 231 348 231 362 275 c 1,20,21
EndSplineSet
Substitution2: "'frac' Diagonal Fractions lookup 16 subtable" ninesuperior
Substitution2: "'sinf' Scientific Inferiors lookup 13 subtable" nine.sinf
Substitution2: "'subs' Subscript lookup 12 subtable" nine.sinf
Substitution2: "'sups' Superscript lookup 11 subtable" nine.sups
Substitution2: "'dnom' Denominators lookup 10 subtable" nineinferior
Substitution2: "'numr' Numerators lookup 8 subtable" ninesuperior
Substitution2: "'pnum' Proportional Numbers lookup 6 subtable" nine.alt
EndChar

StartChar: less
Encoding: 60 60 31
Width: 568
Flags: W
LayerCount: 2
Fore
SplineSet
50 361 m 1,0,-1
 480 542 l 1,1,-1
 519 421 l 1,2,-1
 205 299 l 1,3,-1
 519 177 l 1,4,-1
 480 56 l 1,5,-1
 50 237 l 1,6,-1
 50 361 l 1,0,-1
EndSplineSet
EndChar

StartChar: equal
Encoding: 61 61 32
Width: 568
Flags: W
LayerCount: 2
Fore
SplineSet
49 251 m 1,0,-1
 519 251 l 1,1,-1
 519 126 l 1,2,-1
 49 126 l 1,3,-1
 49 251 l 1,0,-1
49 470 m 1,4,-1
 519 470 l 1,5,-1
 519 345 l 1,6,-1
 49 345 l 1,7,-1
 49 470 l 1,4,-1
EndSplineSet
EndChar

StartChar: greater
Encoding: 62 62 33
Width: 568
Flags: W
LayerCount: 2
Fore
SplineSet
518 237 m 1,0,-1
 88 56 l 1,1,-1
 49 177 l 1,2,-1
 363 299 l 1,3,-1
 49 421 l 1,4,-1
 88 542 l 1,5,-1
 518 361 l 1,6,-1
 518 237 l 1,0,-1
EndSplineSet
EndChar

StartChar: question
Encoding: 63 63 34
Width: 455
Flags: W
LayerCount: 2
Fore
SplineSet
201 582 m 256,0,1
 165 582 165 582 133 573 c 128,-1,2
 101 564 101 564 62 544 c 1,3,-1
 20 657 l 1,4,5
 59 682 59 682 112 695.5 c 128,-1,6
 165 709 165 709 216 709 c 0,7,8
 280 709 280 709 321.5 692 c 128,-1,9
 363 675 363 675 387 649 c 128,-1,10
 411 623 411 623 420.5 592 c 128,-1,11
 430 561 430 561 430 533 c 256,12,13
 430 505 430 505 421.5 481.5 c 128,-1,14
 413 458 413 458 400 438 c 128,-1,15
 387 418 387 418 370 400 c 128,-1,16
 353 382 353 382 337 366 c 0,17,18
 325 354 325 354 312 340.5 c 128,-1,19
 299 327 299 327 288.5 312 c 128,-1,20
 278 297 278 297 271 280.5 c 128,-1,21
 264 264 264 264 264 247 c 0,22,23
 264 243 264 243 264 235 c 128,-1,24
 264 227 264 227 265 221 c 1,25,-1
 133 221 l 1,26,27
 131 231 131 231 130.5 243.5 c 128,-1,28
 130 256 130 256 130 265 c 0,29,30
 130 293 130 293 137 315.5 c 128,-1,31
 144 338 144 338 155.5 357.5 c 128,-1,32
 167 377 167 377 182 394 c 128,-1,33
 197 411 197 411 213 427 c 0,34,35
 236 450 236 450 255 472.5 c 128,-1,36
 274 495 274 495 274 524 c 0,37,38
 274 548 274 548 255.5 565 c 128,-1,39
 237 582 237 582 201 582 c 256,0,1
294 79 m 256,40,41
 294 35 294 35 265.5 11 c 128,-1,42
 237 -13 237 -13 201 -13 c 256,43,44
 165 -13 165 -13 136.5 11 c 128,-1,45
 108 35 108 35 108 79 c 256,46,47
 108 123 108 123 136.5 147 c 128,-1,48
 165 171 165 171 201 171 c 256,49,50
 237 171 237 171 265.5 147 c 128,-1,51
 294 123 294 123 294 79 c 256,40,41
EndSplineSet
EndChar

StartChar: at
Encoding: 64 64 35
Width: 974
Flags: W
LayerCount: 2
Fore
SplineSet
701 28 m 0,0,1
 672 28 672 28 643 35 c 128,-1,2
 614 42 614 42 595 60 c 1,3,4
 551 29 551 29 484 29 c 0,5,6
 434 29 434 29 392.5 44.5 c 128,-1,7
 351 60 351 60 321.5 91 c 128,-1,8
 292 122 292 122 275.5 167.5 c 128,-1,9
 259 213 259 213 259 273 c 0,10,11
 259 324 259 324 275.5 368 c 128,-1,12
 292 412 292 412 324 444.5 c 128,-1,13
 356 477 356 477 402.5 496 c 128,-1,14
 449 515 449 515 508 515 c 256,15,16
 567 515 567 515 612.5 504.5 c 128,-1,17
 658 494 658 494 688 483 c 1,18,-1
 688 169 l 2,19,20
 688 146 688 146 697.5 138 c 128,-1,21
 707 130 707 130 725 130 c 0,22,23
 741 130 741 130 756.5 139 c 128,-1,24
 772 148 772 148 783 171.5 c 128,-1,25
 794 195 794 195 801 235.5 c 128,-1,26
 808 276 808 276 808 338 c 256,27,28
 808 400 808 400 786.5 451.5 c 128,-1,29
 765 503 765 503 724.5 539.5 c 128,-1,30
 684 576 684 576 625.5 596.5 c 128,-1,31
 567 617 567 617 493 617 c 0,32,33
 422 617 422 617 362.5 593 c 128,-1,34
 303 569 303 569 259.5 524.5 c 128,-1,35
 216 480 216 480 191.5 416 c 128,-1,36
 167 352 167 352 167 272 c 0,37,38
 167 189 167 189 191 126.5 c 128,-1,39
 215 64 215 64 259.5 22 c 128,-1,40
 304 -20 304 -20 367.5 -41.5 c 128,-1,41
 431 -63 431 -63 511 -63 c 0,42,43
 561 -63 561 -63 605.5 -56.5 c 128,-1,44
 650 -50 650 -50 680 -44 c 1,45,-1
 695 -138 l 1,46,47
 670 -146 670 -146 619 -155 c 128,-1,48
 568 -164 568 -164 511 -164 c 0,49,50
 415 -164 415 -164 331 -139 c 128,-1,51
 247 -114 247 -114 184.5 -61 c 128,-1,52
 122 -8 122 -8 86 74.5 c 128,-1,53
 50 157 50 157 50 272 c 0,54,55
 50 383 50 383 88 466.5 c 128,-1,56
 126 550 126 550 188 606 c 128,-1,57
 250 662 250 662 329.5 690 c 128,-1,58
 409 718 409 718 493 718 c 0,59,60
 585 718 585 718 664 692.5 c 128,-1,61
 743 667 743 667 800.5 618 c 128,-1,62
 858 569 858 569 891 496.5 c 128,-1,63
 924 424 924 424 924 330 c 0,64,65
 924 257 924 257 908.5 200.5 c 128,-1,66
 893 144 893 144 863.5 106 c 128,-1,67
 834 68 834 68 793 48 c 128,-1,68
 752 28 752 28 701 28 c 0,0,1
560 147 m 1,69,70
 558 155 558 155 557 170.5 c 128,-1,71
 556 186 556 186 556 200 c 2,72,-1
 556 404 l 1,73,74
 536 408 536 408 514 408 c 0,75,76
 481 408 481 408 458 397.5 c 128,-1,77
 435 387 435 387 421 369 c 128,-1,78
 407 351 407 351 400.5 326.5 c 128,-1,79
 394 302 394 302 394 273 c 256,80,81
 394 244 394 244 399 219.5 c 128,-1,82
 404 195 404 195 416.5 177 c 128,-1,83
 429 159 429 159 450 148.5 c 128,-1,84
 471 138 471 138 502 138 c 0,85,86
 520 138 520 138 536 140.5 c 128,-1,87
 552 143 552 143 560 147 c 1,69,70
EndSplineSet
Substitution2: "'case' Case-Sensitive Forms lookup 18 subtable" At
EndChar

StartChar: A
Encoding: 65 65 36
Width: 721
Flags: W
LayerCount: 2
Fore
SplineSet
544 0 m 1,0,1
 533 36 533 36 519.5 74 c 128,-1,2
 506 112 506 112 493 150 c 1,3,-1
 223 150 l 1,4,5
 210 112 210 112 196.5 74 c 128,-1,6
 183 36 183 36 172 0 c 1,7,-1
 10 0 l 1,8,9
 49 112 49 112 84 207 c 128,-1,10
 119 302 119 302 152.5 386 c 128,-1,11
 186 470 186 470 218.5 545.5 c 128,-1,12
 251 621 251 621 286 693 c 1,13,-1
 435 693 l 1,14,15
 469 621 469 621 502 545.5 c 128,-1,16
 535 470 535 470 568.5 386 c 128,-1,17
 602 302 602 302 637 207 c 128,-1,18
 672 112 672 112 711 0 c 1,19,-1
 544 0 l 1,0,1
357 536 m 1,20,21
 352 521 352 521 342 495 c 128,-1,22
 332 469 332 469 319 435 c 128,-1,23
 306 401 306 401 290.5 360 c 128,-1,24
 275 319 275 319 259 274 c 1,25,-1
 456 274 l 1,26,27
 440 319 440 319 425 360 c 128,-1,28
 410 401 410 401 396.5 435 c 128,-1,29
 383 469 383 469 373 495 c 128,-1,30
 363 521 363 521 357 536 c 1,20,21
EndSplineSet
EndChar

StartChar: B
Encoding: 66 66 37
Width: 672
Flags: W
LayerCount: 2
Fore
SplineSet
311 -9 m 0,0,1
 254 -9 254 -9 197.5 -5.5 c 128,-1,2
 141 -2 141 -2 80 11 c 1,3,-1
 80 683 l 1,4,5
 128 692 128 692 185 696.5 c 128,-1,6
 242 701 242 701 291 701 c 0,7,8
 357 701 357 701 412.5 691.5 c 128,-1,9
 468 682 468 682 508 659 c 128,-1,10
 548 636 548 636 570.5 598.5 c 128,-1,11
 593 561 593 561 593 506 c 0,12,13
 593 423 593 423 513 375 c 1,14,15
 579 350 579 350 603 307 c 128,-1,16
 627 264 627 264 627 210 c 0,17,18
 627 101 627 101 547.5 46 c 128,-1,19
 468 -9 468 -9 311 -9 c 0,0,1
232 302 m 1,20,-1
 232 123 l 1,21,22
 249 121 249 121 269 120 c 128,-1,23
 289 119 289 119 313 119 c 0,24,25
 383 119 383 119 426 139 c 128,-1,26
 469 159 469 159 469 213 c 0,27,28
 469 261 469 261 433 281.5 c 128,-1,29
 397 302 397 302 330 302 c 2,30,-1
 232 302 l 1,20,-1
232 421 m 1,31,-1
 308 421 l 2,32,33
 380 421 380 421 411 439.5 c 128,-1,34
 442 458 442 458 442 499 c 0,35,36
 442 541 442 541 410 558 c 128,-1,37
 378 575 378 575 316 575 c 0,38,39
 296 575 296 575 273 574.5 c 128,-1,40
 250 574 250 574 232 572 c 1,41,-1
 232 421 l 1,31,-1
EndSplineSet
EndChar

StartChar: C
Encoding: 67 67 38
Width: 648
Flags: W
LayerCount: 2
Fore
SplineSet
396 -14 m 0,0,1
 227 -14 227 -14 138.5 80 c 128,-1,2
 50 174 50 174 50 347 c 0,3,4
 50 433 50 433 77 500.5 c 128,-1,5
 104 568 104 568 151 614.5 c 128,-1,6
 198 661 198 661 263 685 c 128,-1,7
 328 709 328 709 404 709 c 0,8,9
 448 709 448 709 484 702.5 c 128,-1,10
 520 696 520 696 547 687.5 c 128,-1,11
 574 679 574 679 592 670 c 128,-1,12
 610 661 610 661 618 656 c 1,13,-1
 573 530 l 1,14,15
 541 547 541 547 498.5 559 c 128,-1,16
 456 571 456 571 402 571 c 0,17,18
 366 571 366 571 331.5 559 c 128,-1,19
 297 547 297 547 270.5 520.5 c 128,-1,20
 244 494 244 494 228 452 c 128,-1,21
 212 410 212 410 212 350 c 0,22,23
 212 302 212 302 222.5 260.5 c 128,-1,24
 233 219 233 219 256.5 189 c 128,-1,25
 280 159 280 159 318 141.5 c 128,-1,26
 356 124 356 124 410 124 c 0,27,28
 444 124 444 124 471 128 c 128,-1,29
 498 132 498 132 519 137.5 c 128,-1,30
 540 143 540 143 556 150 c 128,-1,31
 572 157 572 157 585 163 c 1,32,-1
 628 38 l 1,33,34
 595 18 595 18 535 2 c 128,-1,35
 475 -14 475 -14 396 -14 c 0,0,1
EndSplineSet
EndChar

StartChar: D
Encoding: 68 68 39
Width: 737
Flags: W
LayerCount: 2
Fore
SplineSet
236 127 m 1,0,1
 247 126 247 126 261.5 125.5 c 128,-1,2
 276 125 276 125 296 125 c 0,3,4
 413 125 413 125 469.5 184 c 128,-1,5
 526 243 526 243 526 347 c 0,6,7
 526 456 526 456 472 512 c 128,-1,8
 418 568 418 568 301 568 c 0,9,10
 285 568 285 568 268 567.5 c 128,-1,11
 251 567 251 567 236 565 c 1,12,-1
 236 127 l 1,0,1
687 347 m 0,13,14
 687 257 687 257 659 190 c 128,-1,15
 631 123 631 123 579.5 79 c 128,-1,16
 528 35 528 35 454 13 c 128,-1,17
 380 -9 380 -9 288 -9 c 0,18,19
 246 -9 246 -9 190 -5.5 c 128,-1,20
 134 -2 134 -2 80 9 c 1,21,-1
 80 684 l 1,22,23
 134 694 134 694 192.5 697.5 c 128,-1,24
 251 701 251 701 293 701 c 0,25,26
 382 701 382 701 454.5 681 c 128,-1,27
 527 661 527 661 579 618 c 128,-1,28
 631 575 631 575 659 508 c 128,-1,29
 687 441 687 441 687 347 c 0,13,14
EndSplineSet
EndChar

StartChar: E
Encoding: 69 69 40
Width: 606
Flags: W
LayerCount: 2
Fore
SplineSet
80 0 m 1,0,-1
 80 693 l 1,1,-1
 548 693 l 1,2,-1
 548 562 l 1,3,-1
 236 562 l 1,4,-1
 236 426 l 1,5,-1
 513 426 l 1,6,-1
 513 298 l 1,7,-1
 236 298 l 1,8,-1
 236 131 l 1,9,-1
 571 131 l 1,10,-1
 571 0 l 1,11,-1
 80 0 l 1,0,-1
EndSplineSet
EndChar

StartChar: F
Encoding: 70 70 41
Width: 574
Flags: W
LayerCount: 2
Fore
SplineSet
80 0 m 1,0,-1
 80 693 l 1,1,-1
 544 693 l 1,2,-1
 544 562 l 1,3,-1
 236 562 l 1,4,-1
 236 417 l 1,5,-1
 510 417 l 1,6,-1
 510 286 l 1,7,-1
 236 286 l 1,8,-1
 236 0 l 1,9,-1
 80 0 l 1,0,-1
EndSplineSet
EndChar

StartChar: G
Encoding: 71 71 42
Width: 702
Flags: W
LayerCount: 2
Fore
SplineSet
418 573 m 0,0,1
 309 573 309 573 260.5 512.5 c 128,-1,2
 212 452 212 452 212 347 c 0,3,4
 212 296 212 296 224 254.5 c 128,-1,5
 236 213 236 213 260 183 c 128,-1,6
 284 153 284 153 320 136.5 c 128,-1,7
 356 120 356 120 404 120 c 0,8,9
 430 120 430 120 448.5 121 c 128,-1,10
 467 122 467 122 481 125 c 1,11,-1
 481 366 l 1,12,-1
 637 366 l 1,13,-1
 637 23 l 1,14,15
 609 12 609 12 547 -0.5 c 128,-1,16
 485 -13 485 -13 394 -13 c 0,17,18
 316 -13 316 -13 252.5 11 c 128,-1,19
 189 35 189 35 144 81 c 128,-1,20
 99 127 99 127 74.5 194 c 128,-1,21
 50 261 50 261 50 347 c 0,22,23
 50 434 50 434 77 501 c 128,-1,24
 104 568 104 568 151 614.5 c 128,-1,25
 198 661 198 661 261.5 685 c 128,-1,26
 325 709 325 709 397 709 c 0,27,28
 446 709 446 709 485.5 702.5 c 128,-1,29
 525 696 525 696 553.5 687.5 c 128,-1,30
 582 679 582 679 600.5 670 c 128,-1,31
 619 661 619 661 627 656 c 1,32,-1
 582 531 l 1,33,34
 550 548 550 548 508.5 560.5 c 128,-1,35
 467 573 467 573 418 573 c 0,0,1
EndSplineSet
EndChar

StartChar: H
Encoding: 72 72 43
Width: 734
Flags: W
LayerCount: 2
Fore
SplineSet
498 693 m 1,0,-1
 654 693 l 1,1,-1
 654 0 l 1,2,-1
 498 0 l 1,3,-1
 498 294 l 1,4,-1
 236 294 l 1,5,-1
 236 0 l 1,6,-1
 80 0 l 1,7,-1
 80 693 l 1,8,-1
 236 693 l 1,9,-1
 236 428 l 1,10,-1
 498 428 l 1,11,-1
 498 693 l 1,0,-1
EndSplineSet
EndChar

StartChar: I
Encoding: 73 73 44
Width: 316
Flags: W
LayerCount: 2
Fore
SplineSet
80 693 m 1,0,-1
 236 693 l 1,1,-1
 236 0 l 1,2,-1
 80 0 l 1,3,-1
 80 693 l 1,0,-1
EndSplineSet
EndChar

StartChar: J
Encoding: 74 74 45
Width: 529
Flags: W
LayerCount: 2
Fore
SplineSet
459 233 m 2,0,1
 459 182 459 182 447.5 137 c 128,-1,2
 436 92 436 92 407.5 58.5 c 128,-1,3
 379 25 379 25 330.5 5.5 c 128,-1,4
 282 -14 282 -14 208 -14 c 0,5,6
 140 -14 140 -14 91 2.5 c 128,-1,7
 42 19 42 19 10 41 c 1,8,-1
 62 162 l 1,9,10
 91 145 91 145 124 132 c 128,-1,11
 157 119 157 119 196 119 c 0,12,13
 253 119 253 119 278 147 c 128,-1,14
 303 175 303 175 303 241 c 2,15,-1
 303 693 l 1,16,-1
 459 693 l 1,17,-1
 459 233 l 2,0,1
EndSplineSet
EndChar

StartChar: K
Encoding: 75 75 46
Width: 684
Flags: W
LayerCount: 2
Fore
SplineSet
489 0 m 1,0,1
 468 34 468 34 439.5 73.5 c 128,-1,2
 411 113 411 113 377.5 152.5 c 128,-1,3
 344 192 344 192 308 228.5 c 128,-1,4
 272 265 272 265 236 293 c 1,5,-1
 236 0 l 1,6,-1
 80 0 l 1,7,-1
 80 693 l 1,8,-1
 236 693 l 1,9,-1
 236 431 l 1,10,11
 297 495 297 495 358.5 564.5 c 128,-1,12
 420 634 420 634 473 693 c 1,13,-1
 658 693 l 1,14,15
 587 609 587 609 515.5 531 c 128,-1,16
 444 453 444 453 365 374 c 1,17,18
 448 305 448 305 525.5 210 c 128,-1,19
 603 115 603 115 674 0 c 1,20,-1
 489 0 l 1,0,1
EndSplineSet
EndChar

StartChar: L
Encoding: 76 76 47
Width: 563
Flags: W
LayerCount: 2
Fore
SplineSet
543 134 m 1,0,-1
 543 0 l 1,1,-1
 80 0 l 1,2,-1
 80 693 l 1,3,-1
 236 693 l 1,4,-1
 236 134 l 1,5,-1
 543 134 l 1,0,-1
EndSplineSet
EndChar

StartChar: M
Encoding: 77 77 48
Width: 897
Flags: W
LayerCount: 2
Fore
SplineSet
264 693 m 1,0,1
 282 660 282 660 305.5 611.5 c 128,-1,2
 329 563 329 563 354.5 506.5 c 128,-1,3
 380 450 380 450 405 391 c 128,-1,4
 430 332 430 332 452 280 c 1,5,6
 474 332 474 332 499 391 c 128,-1,7
 524 450 524 450 549.5 506.5 c 128,-1,8
 575 563 575 563 598.5 611.5 c 128,-1,9
 622 660 622 660 640 693 c 1,10,-1
 782 693 l 1,11,12
 792 624 792 624 800.5 538.5 c 128,-1,13
 809 453 809 453 815.5 360.5 c 128,-1,14
 822 268 822 268 827.5 175 c 128,-1,15
 833 82 833 82 837 0 c 1,16,-1
 685 0 l 1,17,18
 682 101 682 101 677 220 c 128,-1,19
 672 339 672 339 662 460 c 1,20,21
 644 418 644 418 622 367 c 128,-1,22
 600 316 600 316 578.5 265 c 128,-1,23
 557 214 557 214 537 167.5 c 128,-1,24
 517 121 517 121 503 88 c 1,25,-1
 394 88 l 1,26,27
 380 121 380 121 360 167.5 c 128,-1,28
 340 214 340 214 318.5 265 c 128,-1,29
 297 316 297 316 275 367 c 128,-1,30
 253 418 253 418 235 460 c 1,31,32
 225 339 225 339 220 220 c 128,-1,33
 215 101 215 101 212 0 c 1,34,-1
 60 0 l 1,35,36
 64 82 64 82 69.5 175 c 128,-1,37
 75 268 75 268 81.5 360.5 c 128,-1,38
 88 453 88 453 96.5 538.5 c 128,-1,39
 105 624 105 624 115 693 c 1,40,-1
 264 693 l 1,0,1
EndSplineSet
EndChar

StartChar: N
Encoding: 78 78 49
Width: 756
Flags: W
LayerCount: 2
Fore
SplineSet
545 0 m 1,0,1
 478 119 478 119 400 235 c 128,-1,2
 322 351 322 351 234 454 c 1,3,-1
 234 0 l 1,4,-1
 80 0 l 1,5,-1
 80 693 l 1,6,-1
 207 693 l 1,7,8
 240 660 240 660 280 612 c 128,-1,9
 320 564 320 564 361.5 509.5 c 128,-1,10
 403 455 403 455 444 396.5 c 128,-1,11
 485 338 485 338 521 284 c 1,12,-1
 521 693 l 1,13,-1
 676 693 l 1,14,-1
 676 0 l 1,15,-1
 545 0 l 1,0,1
EndSplineSet
EndChar

StartChar: O
Encoding: 79 79 50
Width: 790
Flags: W
LayerCount: 2
Fore
SplineSet
211 347 m 0,0,1
 211 296 211 296 223.5 255 c 128,-1,2
 236 214 236 214 259.5 184.5 c 128,-1,3
 283 155 283 155 317 139 c 128,-1,4
 351 123 351 123 395 123 c 0,5,6
 438 123 438 123 472.5 139 c 128,-1,7
 507 155 507 155 530.5 184.5 c 128,-1,8
 554 214 554 214 566.5 255 c 128,-1,9
 579 296 579 296 579 347 c 256,10,11
 579 398 579 398 566.5 439.5 c 128,-1,12
 554 481 554 481 530.5 510.5 c 128,-1,13
 507 540 507 540 472.5 556 c 128,-1,14
 438 572 438 572 395 572 c 0,15,16
 351 572 351 572 317 555.5 c 128,-1,17
 283 539 283 539 259.5 509.5 c 128,-1,18
 236 480 236 480 223.5 438.5 c 128,-1,19
 211 397 211 397 211 347 c 0,0,1
740 347 m 256,20,21
 740 258 740 258 713.5 190.5 c 128,-1,22
 687 123 687 123 641 77.5 c 128,-1,23
 595 32 595 32 531.5 9 c 128,-1,24
 468 -14 468 -14 395 -14 c 0,25,26
 324 -14 324 -14 261 9 c 128,-1,27
 198 32 198 32 151 77.5 c 128,-1,28
 104 123 104 123 77 190.5 c 128,-1,29
 50 258 50 258 50 347 c 256,30,31
 50 436 50 436 78 503.5 c 128,-1,32
 106 571 106 571 153.5 617 c 128,-1,33
 201 663 201 663 263.5 686 c 128,-1,34
 326 709 326 709 395 709 c 0,35,36
 466 709 466 709 529 686 c 128,-1,37
 592 663 592 663 639 617 c 128,-1,38
 686 571 686 571 713 503.5 c 128,-1,39
 740 436 740 436 740 347 c 256,20,21
EndSplineSet
EndChar

StartChar: P
Encoding: 80 80 51
Width: 644
Flags: W
LayerCount: 2
Fore
SplineSet
288 701 m 0,0,1
 443 701 443 701 526 646.5 c 128,-1,2
 609 592 609 592 609 468 c 0,3,4
 609 343 609 343 525 287.5 c 128,-1,5
 441 232 441 232 285 232 c 2,6,-1
 236 232 l 1,7,-1
 236 0 l 1,8,-1
 80 0 l 1,9,-1
 80 683 l 1,10,11
 131 693 131 693 188 697 c 128,-1,12
 245 701 245 701 288 701 c 0,0,1
298 568 m 0,13,14
 281 568 281 568 264.5 567 c 128,-1,15
 248 566 248 566 236 565 c 1,16,-1
 236 365 l 1,17,-1
 285 365 l 2,18,19
 366 365 366 365 407 387 c 128,-1,20
 448 409 448 409 448 469 c 0,21,22
 448 498 448 498 437.5 517 c 128,-1,23
 427 536 427 536 407.5 547.5 c 128,-1,24
 388 559 388 559 360 563.5 c 128,-1,25
 332 568 332 568 298 568 c 0,13,14
EndSplineSet
EndChar

StartChar: Q
Encoding: 81 81 52
Width: 790
Flags: W
LayerCount: 2
Fore
SplineSet
211 347 m 0,0,1
 211 296 211 296 223.5 255 c 128,-1,2
 236 214 236 214 259.5 184.5 c 128,-1,3
 283 155 283 155 317 139 c 128,-1,4
 351 123 351 123 395 123 c 0,5,6
 438 123 438 123 472.5 139 c 128,-1,7
 507 155 507 155 530.5 184.5 c 128,-1,8
 554 214 554 214 566.5 255 c 128,-1,9
 579 296 579 296 579 347 c 256,10,11
 579 398 579 398 566.5 439.5 c 128,-1,12
 554 481 554 481 530.5 510.5 c 128,-1,13
 507 540 507 540 472.5 556 c 128,-1,14
 438 572 438 572 395 572 c 0,15,16
 351 572 351 572 317 555.5 c 128,-1,17
 283 539 283 539 259.5 509.5 c 128,-1,18
 236 480 236 480 223.5 438.5 c 128,-1,19
 211 397 211 397 211 347 c 0,0,1
740 347 m 0,20,21
 740 274 740 274 722 215.5 c 128,-1,22
 704 157 704 157 671.5 113 c 128,-1,23
 639 69 639 69 594 40 c 128,-1,24
 549 11 549 11 495 -2 c 1,25,26
 500 -22 500 -22 517 -34.5 c 128,-1,27
 534 -47 534 -47 560 -55 c 128,-1,28
 586 -63 586 -63 620.5 -67 c 128,-1,29
 655 -71 655 -71 695 -74 c 1,30,-1
 663 -188 l 1,31,32
 585 -185 585 -185 529.5 -172.5 c 128,-1,33
 474 -160 474 -160 435.5 -138 c 128,-1,34
 397 -116 397 -116 374.5 -84 c 128,-1,35
 352 -52 352 -52 340 -10 c 1,36,37
 278 -2 278 -2 225 24.5 c 128,-1,38
 172 51 172 51 133 96 c 128,-1,39
 94 141 94 141 72 204 c 128,-1,40
 50 267 50 267 50 347 c 0,41,42
 50 436 50 436 78 503.5 c 128,-1,43
 106 571 106 571 153.5 617 c 128,-1,44
 201 663 201 663 263.5 686 c 128,-1,45
 326 709 326 709 395 709 c 0,46,47
 466 709 466 709 529 686 c 128,-1,48
 592 663 592 663 639 617 c 128,-1,49
 686 571 686 571 713 503.5 c 128,-1,50
 740 436 740 436 740 347 c 0,20,21
EndSplineSet
EndChar

StartChar: R
Encoding: 82 82 53
Width: 667
Flags: W
LayerCount: 2
Fore
SplineSet
283 701 m 0,0,1
 439 701 439 701 522 645.5 c 128,-1,2
 605 590 605 590 605 473 c 0,3,4
 605 400 605 400 571.5 354.5 c 128,-1,5
 538 309 538 309 475 283 c 1,6,7
 496 257 496 257 519 223.5 c 128,-1,8
 542 190 542 190 564.5 153.5 c 128,-1,9
 587 117 587 117 608 77.5 c 128,-1,10
 629 38 629 38 647 0 c 1,11,-1
 472 0 l 1,12,13
 453 34 453 34 433.5 69 c 128,-1,14
 414 104 414 104 393.5 137 c 128,-1,15
 373 170 373 170 353 199.5 c 128,-1,16
 333 229 333 229 313 253 c 1,17,-1
 236 253 l 1,18,-1
 236 0 l 1,19,-1
 80 0 l 1,20,-1
 80 683 l 1,21,22
 131 693 131 693 185.5 697 c 128,-1,23
 240 701 240 701 283 701 c 0,0,1
292 568 m 0,24,25
 275 568 275 568 261.5 567 c 128,-1,26
 248 566 248 566 236 565 c 1,27,-1
 236 377 l 1,28,-1
 280 377 l 2,29,30
 368 377 368 377 406 399 c 128,-1,31
 444 421 444 421 444 474 c 0,32,33
 444 525 444 525 405.5 546.5 c 128,-1,34
 367 568 367 568 292 568 c 0,24,25
EndSplineSet
EndChar

StartChar: S
Encoding: 83 83 54
Width: 582
Flags: W
LayerCount: 2
Fore
SplineSet
269 119 m 0,0,1
 302 119 302 119 323.5 124.5 c 128,-1,2
 345 130 345 130 358 139.5 c 128,-1,3
 371 149 371 149 376 162 c 128,-1,4
 381 175 381 175 381 191 c 0,5,6
 381 225 381 225 349 247.5 c 128,-1,7
 317 270 317 270 239 296 c 0,8,9
 205 308 205 308 171 323.5 c 128,-1,10
 137 339 137 339 110 362.5 c 128,-1,11
 83 386 83 386 66 419.5 c 128,-1,12
 49 453 49 453 49 501 c 256,13,14
 49 549 49 549 67 587.5 c 128,-1,15
 85 626 85 626 118 653 c 128,-1,16
 151 680 151 680 198 694.5 c 128,-1,17
 245 709 245 709 304 709 c 0,18,19
 374 709 374 709 425 694 c 128,-1,20
 476 679 476 679 509 661 c 1,21,-1
 464 538 l 1,22,23
 435 553 435 553 399.5 564.5 c 128,-1,24
 364 576 364 576 314 576 c 0,25,26
 258 576 258 576 233.5 560.5 c 128,-1,27
 209 545 209 545 209 513 c 0,28,29
 209 494 209 494 218 481 c 128,-1,30
 227 468 227 468 243.5 457.5 c 128,-1,31
 260 447 260 447 281.5 438.5 c 128,-1,32
 303 430 303 430 329 421 c 0,33,34
 383 401 383 401 423 381.5 c 128,-1,35
 463 362 463 362 489.5 336 c 128,-1,36
 516 310 516 310 529 275 c 128,-1,37
 542 240 542 240 542 190 c 0,38,39
 542 93 542 93 474 39.5 c 128,-1,40
 406 -14 406 -14 269 -14 c 0,41,42
 223 -14 223 -14 186 -8.5 c 128,-1,43
 149 -3 149 -3 120.5 5 c 128,-1,44
 92 13 92 13 71.5 22 c 128,-1,45
 51 31 51 31 37 39 c 1,46,-1
 81 163 l 1,47,48
 112 146 112 146 157.5 132.5 c 128,-1,49
 203 119 203 119 269 119 c 0,0,1
EndSplineSet
EndChar

StartChar: T
Encoding: 84 84 55
Width: 614
Flags: W
LayerCount: 2
Fore
SplineSet
594 693 m 1,0,-1
 594 560 l 1,1,-1
 385 560 l 1,2,-1
 385 0 l 1,3,-1
 229 0 l 1,4,-1
 229 560 l 1,5,-1
 20 560 l 1,6,-1
 20 693 l 1,7,-1
 594 693 l 1,0,-1
EndSplineSet
EndChar

StartChar: U
Encoding: 85 85 56
Width: 707
Flags: W
LayerCount: 2
Fore
SplineSet
351 -14 m 0,0,1
 278 -14 278 -14 225 6.5 c 128,-1,2
 172 27 172 27 137.5 63.5 c 128,-1,3
 103 100 103 100 86.5 150.5 c 128,-1,4
 70 201 70 201 70 262 c 2,5,-1
 70 693 l 1,6,-1
 226 693 l 1,7,-1
 226 275 l 2,8,9
 226 233 226 233 235.5 203.5 c 128,-1,10
 245 174 245 174 261.5 155.5 c 128,-1,11
 278 137 278 137 301.5 129 c 128,-1,12
 325 121 325 121 353 121 c 0,13,14
 410 121 410 121 445.5 156 c 128,-1,15
 481 191 481 191 481 275 c 2,16,-1
 481 693 l 1,17,-1
 637 693 l 1,18,-1
 637 262 l 2,19,20
 637 201 637 201 620 150 c 128,-1,21
 603 99 603 99 568 62.5 c 128,-1,22
 533 26 533 26 479 6 c 128,-1,23
 425 -14 425 -14 351 -14 c 0,0,1
EndSplineSet
EndChar

StartChar: V
Encoding: 86 86 57
Width: 722
Flags: W
LayerCount: 2
Fore
SplineSet
286 0 m 1,0,1
 245 87 245 87 205 181 c 128,-1,2
 165 275 165 275 129 367 c 128,-1,3
 93 459 93 459 62.5 543 c 128,-1,4
 32 627 32 627 10 693 c 1,5,-1
 182 693 l 1,6,7
 202 633 202 633 225.5 563.5 c 128,-1,8
 249 494 249 494 273.5 425 c 128,-1,9
 298 356 298 356 321 293 c 128,-1,10
 344 230 344 230 364 184 c 1,11,12
 383 230 383 230 406.5 293 c 128,-1,13
 430 356 430 356 454.5 425 c 128,-1,14
 479 494 479 494 502.5 563.5 c 128,-1,15
 526 633 526 633 546 693 c 1,16,-1
 712 693 l 1,17,18
 689 627 689 627 659 543 c 128,-1,19
 629 459 629 459 593 367 c 128,-1,20
 557 275 557 275 517 181 c 128,-1,21
 477 87 477 87 436 0 c 1,22,-1
 286 0 l 1,0,1
EndSplineSet
EndChar

StartChar: W
Encoding: 87 87 58
Width: 948
Flags: W
LayerCount: 2
Fore
SplineSet
545 619 m 1,0,1
 557 578 557 578 571.5 526.5 c 128,-1,2
 586 475 586 475 602.5 420 c 128,-1,3
 619 365 619 365 636 310 c 128,-1,4
 653 255 653 255 669 208 c 1,5,6
 682 259 682 259 695.5 319 c 128,-1,7
 709 379 709 379 721 443 c 128,-1,8
 733 507 733 507 744.5 570.5 c 128,-1,9
 756 634 756 634 766 693 c 1,10,-1
 928 693 l 1,11,12
 893 519 893 519 847.5 340 c 128,-1,13
 802 161 802 161 749 0 c 1,14,-1
 606 0 l 1,15,16
 571 96 571 96 538 201.5 c 128,-1,17
 505 307 505 307 473 413 c 1,18,19
 441 307 441 307 409 201.5 c 128,-1,20
 377 96 377 96 342 0 c 1,21,-1
 199 0 l 1,22,23
 146 161 146 161 100.5 340 c 128,-1,24
 55 519 55 519 20 693 c 1,25,-1
 189 693 l 1,26,27
 199 634 199 634 211 570.5 c 128,-1,28
 223 507 223 507 236 443 c 128,-1,29
 249 379 249 379 262.5 319 c 128,-1,30
 276 259 276 259 290 208 c 1,31,32
 308 257 308 257 325 312 c 128,-1,33
 342 367 342 367 358 422 c 128,-1,34
 374 477 374 477 387.5 528 c 128,-1,35
 401 579 401 579 412 619 c 1,36,-1
 545 619 l 1,0,1
EndSplineSet
EndChar

StartChar: X
Encoding: 88 88 59
Width: 675
Flags: W
LayerCount: 2
Fore
SplineSet
478 0 m 1,0,1
 449 58 449 58 414.5 117.5 c 128,-1,2
 380 177 380 177 335 239 c 1,3,4
 321 221 321 221 299.5 189 c 128,-1,5
 278 157 278 157 256.5 121 c 128,-1,6
 235 85 235 85 216 52 c 128,-1,7
 197 19 197 19 188 0 c 1,8,-1
 10 0 l 1,9,10
 54 81 54 81 112.5 170 c 128,-1,11
 171 259 171 259 243 359 c 1,12,-1
 20 693 l 1,13,-1
 209 693 l 1,14,-1
 344 477 l 1,15,-1
 476 693 l 1,16,-1
 654 693 l 1,17,-1
 434 357 l 1,18,19
 518 248 518 248 575 155.5 c 128,-1,20
 632 63 632 63 665 0 c 1,21,-1
 478 0 l 1,0,1
EndSplineSet
EndChar

StartChar: Y
Encoding: 89 89 60
Width: 661
Flags: W
LayerCount: 2
Fore
SplineSet
334 408 m 1,0,1
 376 479 376 479 414 550 c 128,-1,2
 452 621 452 621 484 693 c 1,3,-1
 656 693 l 1,4,5
 599 581 599 581 538 476 c 128,-1,6
 477 371 477 371 409 265 c 1,7,-1
 409 0 l 1,8,-1
 253 0 l 1,9,-1
 253 263 l 1,10,11
 185 369 185 369 123.5 475 c 128,-1,12
 62 581 62 581 5 693 c 1,13,-1
 186 693 l 1,14,15
 218 621 218 621 255 550 c 128,-1,16
 292 479 292 479 334 408 c 1,0,1
EndSplineSet
EndChar

StartChar: Z
Encoding: 90 90 61
Width: 610
Flags: W
LayerCount: 2
Fore
SplineSet
569 585 m 1,0,1
 537 552 537 552 493 499.5 c 128,-1,2
 449 447 449 447 402 385 c 128,-1,3
 355 323 355 323 309 257 c 128,-1,4
 263 191 263 191 227 131 c 1,5,-1
 580 131 l 1,6,-1
 580 0 l 1,7,-1
 35 0 l 1,8,-1
 35 93 l 1,9,10
 63 144 63 144 103.5 206.5 c 128,-1,11
 144 269 144 269 188 332.5 c 128,-1,12
 232 396 232 396 277.5 455.5 c 128,-1,13
 323 515 323 515 362 562 c 1,14,-1
 51 562 l 1,15,-1
 51 693 l 1,16,-1
 569 693 l 1,17,-1
 569 585 l 1,0,1
EndSplineSet
EndChar

StartChar: bracketleft
Encoding: 91 91 62
Width: 371
Flags: W
LayerCount: 2
Fore
SplineSet
90 783 m 1,0,-1
 361 783 l 1,1,-1
 361 664 l 1,2,-1
 232 664 l 1,3,-1
 232 -66 l 1,4,-1
 361 -66 l 1,5,-1
 361 -185 l 1,6,-1
 90 -185 l 1,7,-1
 90 783 l 1,0,-1
EndSplineSet
Substitution2: "'case' Case-Sensitive Forms lookup 18 subtable" Bracketleft
EndChar

StartChar: backslash
Encoding: 92 92 63
Width: 437
Flags: W
LayerCount: 2
Fore
SplineSet
-25 783 m 1,0,-1
 126 783 l 1,1,-1
 462 -185 l 1,2,-1
 309 -185 l 1,3,-1
 -25 783 l 1,0,-1
EndSplineSet
Substitution2: "'case' Case-Sensitive Forms lookup 18 subtable" Backslash
EndChar

StartChar: bracketright
Encoding: 93 93 64
Width: 371
Flags: W
LayerCount: 2
Fore
SplineSet
281 -185 m 1,0,-1
 10 -185 l 1,1,-1
 10 -66 l 1,2,-1
 139 -66 l 1,3,-1
 139 664 l 1,4,-1
 10 664 l 1,5,-1
 10 783 l 1,6,-1
 281 783 l 1,7,-1
 281 -185 l 1,0,-1
EndSplineSet
Substitution2: "'case' Case-Sensitive Forms lookup 18 subtable" Bracketright
EndChar

StartChar: asciicircum
Encoding: 94 94 65
Width: 568
Flags: W
LayerCount: 2
Fore
SplineSet
550 350 m 1,0,-1
 425 289 l 1,1,-1
 284 534 l 1,2,-1
 143 289 l 1,3,-1
 18 350 l 1,4,-1
 225 697 l 1,5,-1
 343 697 l 1,6,-1
 550 350 l 1,0,-1
EndSplineSet
EndChar

StartChar: underscore
Encoding: 95 95 66
Width: 500
Flags: W
LayerCount: 2
Fore
SplineSet
0 -61 m 1,0,-1
 500 -61 l 1,1,-1
 500 -185 l 1,2,-1
 0 -185 l 1,3,-1
 0 -61 l 1,0,-1
EndSplineSet
EndChar

StartChar: grave
Encoding: 96 96 67
Width: 286
Flags: W
LayerCount: 2
Fore
SplineSet
111 799 m 1,0,-1
 253 637 l 1,1,-1
 185 576 l 1,2,-1
 20 715 l 1,3,-1
 111 799 l 1,0,-1
EndSplineSet
EndChar

StartChar: a
Encoding: 97 97 68
Width: 553
Flags: W
LayerCount: 2
Fore
SplineSet
271 104 m 0,0,1
 293 104 293 104 313 105 c 128,-1,2
 333 106 333 106 345 108 c 1,3,-1
 345 221 l 1,4,5
 336 223 336 223 318 225 c 128,-1,6
 300 227 300 227 285 227 c 0,7,8
 264 227 264 227 245.5 224.5 c 128,-1,9
 227 222 227 222 213 215 c 128,-1,10
 199 208 199 208 191 196 c 128,-1,11
 183 184 183 184 183 166 c 0,12,13
 183 131 183 131 206.5 117.5 c 128,-1,14
 230 104 230 104 271 104 c 0,0,1
259 540 m 0,15,16
 325 540 325 540 369 525 c 128,-1,17
 413 510 413 510 439.5 482 c 128,-1,18
 466 454 466 454 477 414 c 128,-1,19
 488 374 488 374 488 325 c 2,20,-1
 488 15 l 1,21,22
 456 8 456 8 399 -1.5 c 128,-1,23
 342 -11 342 -11 261 -11 c 0,24,25
 210 -11 210 -11 168.5 -2 c 128,-1,26
 127 7 127 7 97 27.5 c 128,-1,27
 67 48 67 48 51 81 c 128,-1,28
 35 114 35 114 35 162 c 0,29,30
 35 208 35 208 53.5 240 c 128,-1,31
 72 272 72 272 103 291 c 128,-1,32
 134 310 134 310 174 318.5 c 128,-1,33
 214 327 214 327 257 327 c 0,34,35
 286 327 286 327 308.5 324.5 c 128,-1,36
 331 322 331 322 345 318 c 1,37,-1
 345 332 l 2,38,39
 345 370 345 370 322 393 c 128,-1,40
 299 416 299 416 242 416 c 0,41,42
 204 416 204 416 167 410.5 c 128,-1,43
 130 405 130 405 103 395 c 1,44,-1
 84 515 l 1,45,46
 97 519 97 519 116.5 523.5 c 128,-1,47
 136 528 136 528 159 531.5 c 128,-1,48
 182 535 182 535 207.5 537.5 c 128,-1,49
 233 540 233 540 259 540 c 0,15,16
EndSplineSet
Substitution2: "'case' Case-Sensitive Forms lookup 19 subtable" A
Substitution2: "'ordn' Ordinals in Latin lookup 9 subtable" ordfeminine
EndChar

StartChar: b
Encoding: 98 98 69
Width: 604
Flags: W
LayerCount: 2
Fore
SplineSet
407 267 m 0,0,1
 407 411 407 411 301 411 c 0,2,3
 278 411 278 411 255.5 405 c 128,-1,4
 233 399 233 399 219 390 c 1,5,-1
 219 119 l 1,6,7
 230 117 230 117 247 115.5 c 128,-1,8
 264 114 264 114 284 114 c 0,9,10
 345 114 345 114 376 156 c 128,-1,11
 407 198 407 198 407 267 c 0,0,1
559 263 m 0,12,13
 559 200 559 200 540.5 149 c 128,-1,14
 522 98 522 98 487 62 c 128,-1,15
 452 26 452 26 401 6.5 c 128,-1,16
 350 -13 350 -13 285 -13 c 0,17,18
 258 -13 258 -13 228.5 -10.5 c 128,-1,19
 199 -8 199 -8 170.5 -4 c 128,-1,20
 142 0 142 0 116 5.5 c 128,-1,21
 90 11 90 11 70 17 c 1,22,-1
 70 752 l 1,23,-1
 219 776 l 1,24,-1
 219 514 l 1,25,26
 244 525 244 525 271 531 c 128,-1,27
 298 537 298 537 329 537 c 0,28,29
 385 537 385 537 428 517.5 c 128,-1,30
 471 498 471 498 500 462 c 128,-1,31
 529 426 529 426 544 375.5 c 128,-1,32
 559 325 559 325 559 263 c 0,12,13
EndSplineSet
Substitution2: "'case' Case-Sensitive Forms lookup 19 subtable" B
EndChar

StartChar: c
Encoding: 99 99 70
Width: 500
Flags: W
LayerCount: 2
Fore
SplineSet
45 263 m 0,0,1
 45 320 45 320 63.5 370.5 c 128,-1,2
 82 421 82 421 117 458.5 c 128,-1,3
 152 496 152 496 202 518 c 128,-1,4
 252 540 252 540 316 540 c 0,5,6
 358 540 358 540 393 532.5 c 128,-1,7
 428 525 428 525 461 511 c 1,8,-1
 430 392 l 1,9,10
 409 400 409 400 384 406 c 128,-1,11
 359 412 359 412 328 412 c 0,12,13
 262 412 262 412 229.5 371 c 128,-1,14
 197 330 197 330 197 263 c 0,15,16
 197 192 197 192 227.5 153 c 128,-1,17
 258 114 258 114 334 114 c 0,18,19
 361 114 361 114 392 119 c 128,-1,20
 423 124 423 124 449 135 c 1,21,-1
 470 13 l 1,22,23
 444 2 444 2 405 -6 c 128,-1,24
 366 -14 366 -14 319 -14 c 0,25,26
 247 -14 247 -14 195 7.5 c 128,-1,27
 143 29 143 29 109.5 66 c 128,-1,28
 76 103 76 103 60.5 153.5 c 128,-1,29
 45 204 45 204 45 263 c 0,0,1
EndSplineSet
Substitution2: "'case' Case-Sensitive Forms lookup 19 subtable" C
EndChar

StartChar: d
Encoding: 100 100 71
Width: 604
Flags: W
LayerCount: 2
Fore
SplineSet
197 267 m 0,0,1
 197 198 197 198 228 156 c 128,-1,2
 259 114 259 114 320 114 c 0,3,4
 340 114 340 114 357 115.5 c 128,-1,5
 374 117 374 117 385 119 c 1,6,-1
 385 390 l 1,7,8
 371 399 371 399 348.5 405 c 128,-1,9
 326 411 326 411 303 411 c 0,10,11
 197 411 197 411 197 267 c 0,0,1
534 17 m 1,12,13
 514 11 514 11 488 5.5 c 128,-1,14
 462 0 462 0 433.5 -4 c 128,-1,15
 405 -8 405 -8 375.5 -10.5 c 128,-1,16
 346 -13 346 -13 319 -13 c 0,17,18
 254 -13 254 -13 203 6 c 128,-1,19
 152 25 152 25 117 60.5 c 128,-1,20
 82 96 82 96 63.5 146.5 c 128,-1,21
 45 197 45 197 45 260 c 0,22,23
 45 324 45 324 61 375.5 c 128,-1,24
 77 427 77 427 107 463 c 128,-1,25
 137 499 137 499 180.5 518 c 128,-1,26
 224 537 224 537 280 537 c 0,27,28
 311 537 311 537 335.5 531 c 128,-1,29
 360 525 360 525 385 514 c 1,30,-1
 385 752 l 1,31,-1
 534 776 l 1,32,-1
 534 17 l 1,12,13
EndSplineSet
Substitution2: "'case' Case-Sensitive Forms lookup 19 subtable" D
EndChar

StartChar: e
Encoding: 101 101 72
Width: 584
Flags: W
LayerCount: 2
Fore
SplineSet
45 259 m 0,0,1
 45 329 45 329 66.5 381.5 c 128,-1,2
 88 434 88 434 123 469 c 128,-1,3
 158 504 158 504 203.5 522 c 128,-1,4
 249 540 249 540 297 540 c 0,5,6
 409 540 409 540 474 471.5 c 128,-1,7
 539 403 539 403 539 270 c 0,8,9
 539 257 539 257 538 241.5 c 128,-1,10
 537 226 537 226 536 214 c 1,11,-1
 198 214 l 1,12,13
 203 168 203 168 241 141 c 128,-1,14
 279 114 279 114 343 114 c 0,15,16
 384 114 384 114 423.5 121.5 c 128,-1,17
 463 129 463 129 488 140 c 1,18,-1
 508 19 l 1,19,20
 496 13 496 13 476 7 c 128,-1,21
 456 1 456 1 431.5 -3.5 c 128,-1,22
 407 -8 407 -8 379 -11 c 128,-1,23
 351 -14 351 -14 323 -14 c 0,24,25
 252 -14 252 -14 199.5 7 c 128,-1,26
 147 28 147 28 112.5 64.5 c 128,-1,27
 78 101 78 101 61.5 151 c 128,-1,28
 45 201 45 201 45 259 c 0,0,1
395 316 m 1,29,30
 394 335 394 335 388.5 353 c 128,-1,31
 383 371 383 371 371.5 385 c 128,-1,32
 360 399 360 399 342.5 408 c 128,-1,33
 325 417 325 417 299 417 c 0,34,35
 274 417 274 417 256 408.5 c 128,-1,36
 238 400 238 400 226 386 c 128,-1,37
 214 372 214 372 207.5 353.5 c 128,-1,38
 201 335 201 335 198 316 c 1,39,-1
 395 316 l 1,29,30
EndSplineSet
Substitution2: "'case' Case-Sensitive Forms lookup 19 subtable" E
EndChar

StartChar: f
Encoding: 102 102 73
Width: 422
Flags: W
LayerCount: 2
Fore
SplineSet
298 776 m 0,0,1
 340 776 340 776 375 767.5 c 128,-1,2
 410 759 410 759 429 751 c 1,3,-1
 400 632 l 1,4,5
 380 641 380 641 356.5 645.5 c 128,-1,6
 333 650 333 650 313 650 c 0,7,8
 286 650 286 650 267.5 642.5 c 128,-1,9
 249 635 249 635 238.5 622 c 128,-1,10
 228 609 228 609 223.5 591 c 128,-1,11
 219 573 219 573 219 552 c 2,12,-1
 219 526 l 1,13,-1
 403 526 l 1,14,-1
 403 402 l 1,15,-1
 219 402 l 1,16,-1
 219 0 l 1,17,-1
 70 0 l 1,18,-1
 70 554 l 2,19,20
 70 656 70 656 127.5 716 c 128,-1,21
 185 776 185 776 298 776 c 0,0,1
EndSplineSet
Substitution2: "'case' Case-Sensitive Forms lookup 19 subtable" F
EndChar

StartChar: g
Encoding: 103 103 74
Width: 594
Flags: W
LayerCount: 2
Fore
SplineSet
197 280 m 0,0,1
 197 155 197 155 298 155 c 0,2,3
 321 155 321 155 341 161 c 128,-1,4
 361 167 361 167 375 175 c 1,5,-1
 375 413 l 1,6,7
 364 415 364 415 349 416.5 c 128,-1,8
 334 418 334 418 314 418 c 0,9,10
 255 418 255 418 226 379 c 128,-1,11
 197 340 197 340 197 280 c 0,0,1
524 66 m 2,12,13
 524 -63 524 -63 458.5 -125.5 c 128,-1,14
 393 -188 393 -188 256 -188 c 0,15,16
 208 -188 208 -188 160 -179.5 c 128,-1,17
 112 -171 112 -171 71 -157 c 1,18,-1
 97 -32 l 1,19,20
 132 -46 132 -46 170.5 -54 c 128,-1,21
 209 -62 209 -62 258 -62 c 0,22,23
 322 -62 322 -62 348.5 -34 c 128,-1,24
 375 -6 375 -6 375 38 c 2,25,-1
 375 57 l 1,26,27
 351 46 351 46 325.5 40.5 c 128,-1,28
 300 35 300 35 270 35 c 0,29,30
 161 35 161 35 103 99.5 c 128,-1,31
 45 164 45 164 45 280 c 0,32,33
 45 338 45 338 63 385.5 c 128,-1,34
 81 433 81 433 115.5 467 c 128,-1,35
 150 501 150 501 200 519.5 c 128,-1,36
 250 538 250 538 313 538 c 0,37,38
 340 538 340 538 368.5 535.5 c 128,-1,39
 397 533 397 533 425 529 c 128,-1,40
 453 525 453 525 478.5 519.5 c 128,-1,41
 504 514 504 514 524 508 c 1,42,-1
 524 66 l 2,12,13
EndSplineSet
Substitution2: "'case' Case-Sensitive Forms lookup 19 subtable" G
EndChar

StartChar: h
Encoding: 104 104 75
Width: 589
Flags: W
LayerCount: 2
Fore
SplineSet
70 0 m 1,0,-1
 70 752 l 1,1,-1
 219 776 l 1,2,-1
 219 524 l 1,3,4
 234 529 234 529 257.5 533.5 c 128,-1,5
 281 538 281 538 303 538 c 0,6,7
 367 538 367 538 409.5 520.5 c 128,-1,8
 452 503 452 503 477.5 471 c 128,-1,9
 503 439 503 439 513.5 395 c 128,-1,10
 524 351 524 351 524 297 c 2,11,-1
 524 0 l 1,12,-1
 375 0 l 1,13,-1
 375 279 l 2,14,15
 375 351 375 351 356.5 381 c 128,-1,16
 338 411 338 411 288 411 c 0,17,18
 268 411 268 411 250.5 407.5 c 128,-1,19
 233 404 233 404 219 400 c 1,20,-1
 219 0 l 1,21,-1
 70 0 l 1,0,-1
EndSplineSet
Substitution2: "'case' Case-Sensitive Forms lookup 19 subtable" H
EndChar

StartChar: i
Encoding: 105 105 76
Width: 289
Flags: W
LayerCount: 2
Fore
SplineSet
219 0 m 1,0,-1
 70 0 l 1,1,-1
 70 526 l 1,2,-1
 219 526 l 1,3,-1
 219 0 l 1,0,-1
233 678 m 256,4,5
 233 637 233 637 206.5 613.5 c 128,-1,6
 180 590 180 590 144 590 c 256,7,8
 108 590 108 590 81.5 613.5 c 128,-1,9
 55 637 55 637 55 678 c 256,10,11
 55 719 55 719 81.5 742.5 c 128,-1,12
 108 766 108 766 144 766 c 256,13,14
 180 766 180 766 206.5 742.5 c 128,-1,15
 233 719 233 719 233 678 c 256,4,5
EndSplineSet
Substitution2: "'case' Case-Sensitive Forms lookup 19 subtable" I
Substitution2: "'locl' Localized Forms in Latin lookup 2 subtable" i.locl
Substitution2: "'locl' Localized Forms in Latin lookup 1 subtable" i.locl
Substitution2: "'locl' Localized Forms in Latin lookup 0 subtable" i.locl
EndChar

StartChar: j
Encoding: 106 106 77
Width: 289
Flags: W
LayerCount: 2
Fore
SplineSet
21 -185 m 0,0,1
 7 -185 7 -185 -20.5 -182 c 128,-1,2
 -48 -179 -48 -179 -72 -171 c 1,3,-1
 -52 -50 l 1,4,5
 -37 -55 -37 -55 -24.5 -57 c 128,-1,6
 -12 -59 -12 -59 7 -59 c 0,7,8
 42 -59 42 -59 56 -38 c 128,-1,9
 70 -17 70 -17 70 23 c 2,10,-1
 70 526 l 1,11,-1
 219 526 l 1,12,-1
 219 19 l 2,13,14
 219 -85 219 -85 168 -135 c 128,-1,15
 117 -185 117 -185 21 -185 c 0,0,1
233 678 m 256,16,17
 233 637 233 637 206.5 613.5 c 128,-1,18
 180 590 180 590 144 590 c 256,19,20
 108 590 108 590 81.5 613.5 c 128,-1,21
 55 637 55 637 55 678 c 256,22,23
 55 719 55 719 81.5 742.5 c 128,-1,24
 108 766 108 766 144 766 c 256,25,26
 180 766 180 766 206.5 742.5 c 128,-1,27
 233 719 233 719 233 678 c 256,16,17
EndSplineSet
Substitution2: "'case' Case-Sensitive Forms lookup 19 subtable" J
EndChar

StartChar: k
Encoding: 107 107 78
Width: 579
Flags: W
LayerCount: 2
Fore
SplineSet
219 336 m 1,0,1
 241 360 241 360 264.5 386 c 128,-1,2
 288 412 288 412 310 437.5 c 128,-1,3
 332 463 332 463 351.5 486 c 128,-1,4
 371 509 371 509 385 526 c 1,5,-1
 562 526 l 1,6,7
 509 465 509 465 458.5 409.5 c 128,-1,8
 408 354 408 354 348 295 c 1,9,10
 378 268 378 268 410 230.5 c 128,-1,11
 442 193 442 193 472 153 c 128,-1,12
 502 113 502 113 527 73 c 128,-1,13
 552 33 552 33 569 0 c 1,14,-1
 398 0 l 1,15,16
 382 26 382 26 361.5 57.5 c 128,-1,17
 341 89 341 89 318 120.5 c 128,-1,18
 295 152 295 152 269.5 181 c 128,-1,19
 244 210 244 210 219 230 c 1,20,-1
 219 0 l 1,21,-1
 70 0 l 1,22,-1
 70 752 l 1,23,-1
 219 776 l 1,24,-1
 219 336 l 1,0,1
EndSplineSet
Substitution2: "'case' Case-Sensitive Forms lookup 19 subtable" K
EndChar

StartChar: l
Encoding: 108 108 79
Width: 316
Flags: W
LayerCount: 2
Fore
SplineSet
280 -10 m 1,0,1
 215 -9 215 -9 174.5 4 c 128,-1,2
 134 17 134 17 110.5 40.5 c 128,-1,3
 87 64 87 64 78.5 97.5 c 128,-1,4
 70 131 70 131 70 173 c 2,5,-1
 70 752 l 1,6,-1
 219 776 l 1,7,-1
 219 203 l 2,8,9
 219 183 219 183 222 167 c 128,-1,10
 225 151 225 151 233.5 140 c 128,-1,11
 242 129 242 129 258 122 c 128,-1,12
 274 115 274 115 301 113 c 1,13,-1
 280 -10 l 1,0,1
EndSplineSet
Substitution2: "'case' Case-Sensitive Forms lookup 19 subtable" L
EndChar

StartChar: m
Encoding: 109 109 80
Width: 862
Flags: W
LayerCount: 2
Fore
SplineSet
359 279 m 2,0,1
 359 351 359 351 340.5 381 c 128,-1,2
 322 411 322 411 277 411 c 0,3,4
 263 411 263 411 248 409.5 c 128,-1,5
 233 408 233 408 219 406 c 1,6,-1
 219 0 l 1,7,-1
 70 0 l 1,8,-1
 70 508 l 1,9,10
 89 513 89 513 114.5 518.5 c 128,-1,11
 140 524 140 524 168.5 528.5 c 128,-1,12
 197 533 197 533 227 535.5 c 128,-1,13
 257 538 257 538 286 538 c 0,14,15
 343 538 343 538 378.5 523.5 c 128,-1,16
 414 509 414 509 437 489 c 1,17,18
 469 512 469 512 510.5 525 c 128,-1,19
 552 538 552 538 587 538 c 0,20,21
 650 538 650 538 690.5 520.5 c 128,-1,22
 731 503 731 503 755 471 c 128,-1,23
 779 439 779 439 788 395 c 128,-1,24
 797 351 797 351 797 297 c 2,25,-1
 797 0 l 1,26,-1
 648 0 l 1,27,-1
 648 279 l 2,28,29
 648 351 648 351 629.5 381 c 128,-1,30
 611 411 611 411 566 411 c 0,31,32
 554 411 554 411 532.5 405 c 128,-1,33
 511 399 511 399 497 390 c 1,34,35
 504 367 504 367 506 341.5 c 128,-1,36
 508 316 508 316 508 287 c 2,37,-1
 508 0 l 1,38,-1
 359 0 l 1,39,-1
 359 279 l 2,0,1
EndSplineSet
Substitution2: "'case' Case-Sensitive Forms lookup 19 subtable" M
EndChar

StartChar: n
Encoding: 110 110 81
Width: 589
Flags: W
LayerCount: 2
Fore
SplineSet
70 508 m 1,0,1
 108 519 108 519 168 528.5 c 128,-1,2
 228 538 228 538 294 538 c 0,3,4
 361 538 361 538 405.5 520.5 c 128,-1,5
 450 503 450 503 476 471 c 128,-1,6
 502 439 502 439 513 395 c 128,-1,7
 524 351 524 351 524 297 c 2,8,-1
 524 0 l 1,9,-1
 375 0 l 1,10,-1
 375 279 l 2,11,12
 375 351 375 351 356 381 c 128,-1,13
 337 411 337 411 285 411 c 0,14,15
 269 411 269 411 251 409.5 c 128,-1,16
 233 408 233 408 219 406 c 1,17,-1
 219 0 l 1,18,-1
 70 0 l 1,19,-1
 70 508 l 1,0,1
EndSplineSet
Substitution2: "'case' Case-Sensitive Forms lookup 19 subtable" N
EndChar

StartChar: o
Encoding: 111 111 82
Width: 607
Flags: W
LayerCount: 2
Fore
SplineSet
562 264 m 256,0,1
 562 202 562 202 544 150.5 c 128,-1,2
 526 99 526 99 492 62.5 c 128,-1,3
 458 26 458 26 410.5 6 c 128,-1,4
 363 -14 363 -14 304 -14 c 0,5,6
 246 -14 246 -14 198.5 6 c 128,-1,7
 151 26 151 26 117 62.5 c 128,-1,8
 83 99 83 99 64 150.5 c 128,-1,9
 45 202 45 202 45 264 c 256,10,11
 45 326 45 326 64.5 377 c 128,-1,12
 84 428 84 428 118.5 464 c 128,-1,13
 153 500 153 500 200.5 520 c 128,-1,14
 248 540 248 540 304 540 c 0,15,16
 361 540 361 540 408.5 520 c 128,-1,17
 456 500 456 500 490 464 c 128,-1,18
 524 428 524 428 543 377 c 128,-1,19
 562 326 562 326 562 264 c 256,0,1
410 264 m 256,20,21
 410 333 410 333 382.5 372.5 c 128,-1,22
 355 412 355 412 304 412 c 256,23,24
 253 412 253 412 225 372.5 c 128,-1,25
 197 333 197 333 197 264 c 256,26,27
 197 195 197 195 225 154.5 c 128,-1,28
 253 114 253 114 304 114 c 256,29,30
 355 114 355 114 382.5 154.5 c 128,-1,31
 410 195 410 195 410 264 c 256,20,21
EndSplineSet
Substitution2: "'case' Case-Sensitive Forms lookup 19 subtable" O
Substitution2: "'ordn' Ordinals in Latin lookup 9 subtable" ordmasculine
EndChar

StartChar: p
Encoding: 112 112 83
Width: 604
Flags: W
LayerCount: 2
Fore
SplineSet
407 259 m 0,0,1
 407 328 407 328 376 369.5 c 128,-1,2
 345 411 345 411 284 411 c 0,3,4
 264 411 264 411 247 409.5 c 128,-1,5
 230 408 230 408 219 406 c 1,6,-1
 219 137 l 1,7,8
 233 128 233 128 255.5 122 c 128,-1,9
 278 116 278 116 301 116 c 0,10,11
 407 116 407 116 407 259 c 0,0,1
559 263 m 0,12,13
 559 202 559 202 544 152 c 128,-1,14
 529 102 529 102 500 66 c 128,-1,15
 471 30 471 30 428 10 c 128,-1,16
 385 -10 385 -10 329 -10 c 0,17,18
 298 -10 298 -10 271 -4 c 128,-1,19
 244 2 244 2 219 13 c 1,20,-1
 219 -185 l 1,21,-1
 70 -185 l 1,22,-1
 70 508 l 1,23,24
 90 514 90 514 116 519.5 c 128,-1,25
 142 525 142 525 170.5 529 c 128,-1,26
 199 533 199 533 228.5 535.5 c 128,-1,27
 258 538 258 538 285 538 c 0,28,29
 350 538 350 538 401 518.5 c 128,-1,30
 452 499 452 499 487 463.5 c 128,-1,31
 522 428 522 428 540.5 377 c 128,-1,32
 559 326 559 326 559 263 c 0,12,13
EndSplineSet
Substitution2: "'case' Case-Sensitive Forms lookup 19 subtable" P
EndChar

StartChar: q
Encoding: 113 113 84
Width: 604
Flags: W
LayerCount: 2
Fore
SplineSet
197 259 m 0,0,1
 197 116 197 116 303 116 c 0,2,3
 326 116 326 116 348.5 122 c 128,-1,4
 371 128 371 128 385 137 c 1,5,-1
 385 406 l 1,6,7
 374 408 374 408 357 409.5 c 128,-1,8
 340 411 340 411 320 411 c 0,9,10
 259 411 259 411 228 369.5 c 128,-1,11
 197 328 197 328 197 259 c 0,0,1
45 263 m 0,12,13
 45 324 45 324 63.5 374.5 c 128,-1,14
 82 425 82 425 117 461.5 c 128,-1,15
 152 498 152 498 203 518 c 128,-1,16
 254 538 254 538 319 538 c 0,17,18
 346 538 346 538 375.5 535.5 c 128,-1,19
 405 533 405 533 433.5 529 c 128,-1,20
 462 525 462 525 488 519.5 c 128,-1,21
 514 514 514 514 534 508 c 1,22,-1
 534 -185 l 1,23,-1
 385 -185 l 1,24,-1
 385 13 l 1,25,26
 360 2 360 2 333 -4 c 128,-1,27
 306 -10 306 -10 275 -10 c 0,28,29
 163 -10 163 -10 104 63.5 c 128,-1,30
 45 137 45 137 45 263 c 0,12,13
EndSplineSet
Substitution2: "'case' Case-Sensitive Forms lookup 19 subtable" Q
EndChar

StartChar: r
Encoding: 114 114 85
Width: 422
Flags: W
LayerCount: 2
Fore
SplineSet
387 394 m 1,0,1
 367 399 367 399 340 404.5 c 128,-1,2
 313 410 313 410 282 410 c 0,3,4
 268 410 268 410 248.5 407.5 c 128,-1,5
 229 405 229 405 219 402 c 1,6,-1
 219 0 l 1,7,-1
 70 0 l 1,8,-1
 70 498 l 1,9,10
 110 512 110 512 164.5 524.5 c 128,-1,11
 219 537 219 537 286 537 c 0,12,13
 298 537 298 537 315 535.5 c 128,-1,14
 332 534 332 534 349 531.5 c 128,-1,15
 366 529 366 529 383 525.5 c 128,-1,16
 400 522 400 522 412 517 c 1,17,-1
 387 394 l 1,0,1
EndSplineSet
Substitution2: "'case' Case-Sensitive Forms lookup 19 subtable" R
EndChar

StartChar: s
Encoding: 115 115 86
Width: 485
Flags: W
LayerCount: 2
Fore
SplineSet
221 107 m 0,0,1
 262 107 262 107 279 115 c 128,-1,2
 296 123 296 123 296 146 c 0,3,4
 296 164 296 164 274 177.5 c 128,-1,5
 252 191 252 191 207 208 c 0,6,7
 172 221 172 221 143.5 235 c 128,-1,8
 115 249 115 249 95 268.5 c 128,-1,9
 75 288 75 288 64 315 c 128,-1,10
 53 342 53 342 53 380 c 0,11,12
 53 454 53 454 108 497 c 128,-1,13
 163 540 163 540 259 540 c 0,14,15
 307 540 307 540 351 531.5 c 128,-1,16
 395 523 395 523 421 513 c 1,17,-1
 395 397 l 1,18,19
 369 406 369 406 338.5 413 c 128,-1,20
 308 420 308 420 270 420 c 0,21,22
 200 420 200 420 200 381 c 0,23,24
 200 372 200 372 203 365 c 128,-1,25
 206 358 206 358 215 351.5 c 128,-1,26
 224 345 224 345 239.5 337.5 c 128,-1,27
 255 330 255 330 279 321 c 0,28,29
 328 303 328 303 360 285.5 c 128,-1,30
 392 268 392 268 410.5 247.5 c 128,-1,31
 429 227 429 227 436.5 202 c 128,-1,32
 444 177 444 177 444 144 c 0,33,34
 444 66 444 66 385.5 26 c 128,-1,35
 327 -14 327 -14 220 -14 c 0,36,37
 150 -14 150 -14 103.5 -2 c 128,-1,38
 57 10 57 10 39 18 c 1,39,-1
 64 139 l 1,40,41
 102 124 102 124 142 115.5 c 128,-1,42
 182 107 182 107 221 107 c 0,0,1
EndSplineSet
Substitution2: "'case' Case-Sensitive Forms lookup 19 subtable" S
EndChar

StartChar: t
Encoding: 116 116 87
Width: 444
Flags: W
LayerCount: 2
Fore
SplineSet
65 657 m 1,0,-1
 214 681 l 1,1,-1
 214 526 l 1,2,-1
 393 526 l 1,3,-1
 393 402 l 1,4,-1
 214 402 l 1,5,-1
 214 217 l 2,6,7
 214 170 214 170 230.5 142 c 128,-1,8
 247 114 247 114 297 114 c 0,9,10
 321 114 321 114 346.5 118.5 c 128,-1,11
 372 123 372 123 393 131 c 1,12,-1
 414 15 l 1,13,14
 387 4 387 4 354 -4 c 128,-1,15
 321 -12 321 -12 273 -12 c 0,16,17
 212 -12 212 -12 172 4.5 c 128,-1,18
 132 21 132 21 108 50.5 c 128,-1,19
 84 80 84 80 74.5 122 c 128,-1,20
 65 164 65 164 65 215 c 2,21,-1
 65 657 l 1,0,-1
EndSplineSet
Substitution2: "'case' Case-Sensitive Forms lookup 19 subtable" T
EndChar

StartChar: u
Encoding: 117 117 88
Width: 589
Flags: W
LayerCount: 2
Fore
SplineSet
519 18 m 1,0,1
 481 7 481 7 421 -2.5 c 128,-1,2
 361 -12 361 -12 295 -12 c 0,3,4
 228 -12 228 -12 183.5 6 c 128,-1,5
 139 24 139 24 113 56.5 c 128,-1,6
 87 89 87 89 76 134 c 128,-1,7
 65 179 65 179 65 233 c 2,8,-1
 65 526 l 1,9,-1
 214 526 l 1,10,-1
 214 251 l 2,11,12
 214 179 214 179 233 147 c 128,-1,13
 252 115 252 115 304 115 c 0,14,15
 320 115 320 115 338 116.5 c 128,-1,16
 356 118 356 118 370 120 c 1,17,-1
 370 526 l 1,18,-1
 519 526 l 1,19,-1
 519 18 l 1,0,1
EndSplineSet
Substitution2: "'case' Case-Sensitive Forms lookup 19 subtable" U
EndChar

StartChar: v
Encoding: 118 118 89
Width: 550
Flags: W
LayerCount: 2
Fore
SplineSet
213 0 m 1,0,1
 162 100 162 100 109.5 234 c 128,-1,2
 57 368 57 368 10 526 c 1,3,-1
 168 526 l 1,4,5
 178 487 178 487 191.5 441.5 c 128,-1,6
 205 396 205 396 219.5 349.5 c 128,-1,7
 234 303 234 303 248.5 259 c 128,-1,8
 263 215 263 215 277 179 c 1,9,10
 290 215 290 215 305 259 c 128,-1,11
 320 303 320 303 334.5 349.5 c 128,-1,12
 349 396 349 396 362.5 441.5 c 128,-1,13
 376 487 376 487 386 526 c 1,14,-1
 540 526 l 1,15,16
 493 368 493 368 440.5 234 c 128,-1,17
 388 100 388 100 337 0 c 1,18,-1
 213 0 l 1,0,1
EndSplineSet
Substitution2: "'case' Case-Sensitive Forms lookup 19 subtable" V
EndChar

StartChar: w
Encoding: 119 119 90
Width: 784
Flags: W
LayerCount: 2
Fore
SplineSet
390 302 m 1,0,1
 370 226 370 226 347.5 151 c 128,-1,2
 325 76 325 76 300 0 c 1,3,-1
 184 0 l 1,4,5
 166 42 166 42 145 100 c 128,-1,6
 124 158 124 158 101.5 226.5 c 128,-1,7
 79 295 79 295 55.5 371.5 c 128,-1,8
 32 448 32 448 10 526 c 1,9,-1
 167 526 l 1,10,11
 175 490 175 490 184.5 447.5 c 128,-1,12
 194 405 194 405 204.5 360 c 128,-1,13
 215 315 215 315 226.5 269.5 c 128,-1,14
 238 224 238 224 250 182 c 1,15,16
 263 226 263 226 275.5 272 c 128,-1,17
 288 318 288 318 299.5 362.5 c 128,-1,18
 311 407 311 407 321.5 448.5 c 128,-1,19
 332 490 332 490 340 526 c 1,20,-1
 448 526 l 1,21,22
 456 490 456 490 466 448.5 c 128,-1,23
 476 407 476 407 487 362.5 c 128,-1,24
 498 318 498 318 510 272 c 128,-1,25
 522 226 522 226 535 182 c 1,26,27
 547 224 547 224 559 269.5 c 128,-1,28
 571 315 571 315 581.5 360 c 128,-1,29
 592 405 592 405 601.5 447.5 c 128,-1,30
 611 490 611 490 619 526 c 1,31,-1
 774 526 l 1,32,33
 752 448 752 448 728.5 371.5 c 128,-1,34
 705 295 705 295 682.5 226.5 c 128,-1,35
 660 158 660 158 638.5 100 c 128,-1,36
 617 42 617 42 599 0 c 1,37,-1
 483 0 l 1,38,39
 458 76 458 76 434 151 c 128,-1,40
 410 226 410 226 390 302 c 1,0,1
EndSplineSet
Substitution2: "'case' Case-Sensitive Forms lookup 19 subtable" W
EndChar

StartChar: x
Encoding: 120 120 91
Width: 554
Flags: W
LayerCount: 2
Fore
SplineSet
279 366 m 1,0,-1
 383 526 l 1,1,-1
 537 526 l 1,2,-1
 357 273 l 1,3,4
 417 198 417 198 466 127 c 128,-1,5
 515 56 515 56 544 0 c 1,6,-1
 384 0 l 1,7,8
 376 15 376 15 364 37.5 c 128,-1,9
 352 60 352 60 337 84.5 c 128,-1,10
 322 109 322 109 305.5 133.5 c 128,-1,11
 289 158 289 158 273 178 c 1,12,13
 258 159 258 159 242.5 136 c 128,-1,14
 227 113 227 113 213 89.5 c 128,-1,15
 199 66 199 66 185.5 43 c 128,-1,16
 172 20 172 20 162 0 c 1,17,-1
 10 0 l 1,18,19
 22 25 22 25 43 59 c 128,-1,20
 64 93 64 93 88.5 129.5 c 128,-1,21
 113 166 113 166 140 202.5 c 128,-1,22
 167 239 167 239 193 271 c 1,23,24
 148 334 148 334 103 398.5 c 128,-1,25
 58 463 58 463 14 526 c 1,26,-1
 175 526 l 1,27,-1
 279 366 l 1,0,-1
EndSplineSet
Substitution2: "'case' Case-Sensitive Forms lookup 19 subtable" X
EndChar

StartChar: y
Encoding: 121 121 92
Width: 547
Flags: W
LayerCount: 2
Fore
SplineSet
537 526 m 1,0,1
 492 374 492 374 443 241 c 128,-1,2
 394 108 394 108 336 -17 c 0,3,4
 315 -62 315 -62 294 -93.5 c 128,-1,5
 273 -125 273 -125 248 -145.5 c 128,-1,6
 223 -166 223 -166 191.5 -175.5 c 128,-1,7
 160 -185 160 -185 118 -185 c 0,8,9
 83 -185 83 -185 53.5 -178.5 c 128,-1,10
 24 -172 24 -172 5 -164 c 1,11,-1
 31 -45 l 1,12,13
 54 -53 54 -53 72 -56 c 128,-1,14
 90 -59 90 -59 110 -59 c 0,15,16
 150 -59 150 -59 171.5 -37.5 c 128,-1,17
 193 -16 193 -16 208 22 c 1,18,19
 157 122 157 122 106 246.5 c 128,-1,20
 55 371 55 371 10 526 c 1,21,-1
 168 526 l 1,22,23
 178 487 178 487 191.5 441.5 c 128,-1,24
 205 396 205 396 220 349.5 c 128,-1,25
 235 303 235 303 250.5 259 c 128,-1,26
 266 215 266 215 280 179 c 1,27,28
 293 215 293 215 307 259 c 128,-1,29
 321 303 321 303 334.5 349.5 c 128,-1,30
 348 396 348 396 360.5 441.5 c 128,-1,31
 373 487 373 487 383 526 c 1,32,-1
 537 526 l 1,0,1
EndSplineSet
Substitution2: "'case' Case-Sensitive Forms lookup 19 subtable" Y
EndChar

StartChar: z
Encoding: 122 122 93
Width: 500
Flags: W
LayerCount: 2
Fore
SplineSet
465 426 m 1,0,1
 447 406 447 406 416.5 372 c 128,-1,2
 386 338 386 338 351 297 c 128,-1,3
 316 256 316 256 280.5 211 c 128,-1,4
 245 166 245 166 216 124 c 1,5,-1
 470 124 l 1,6,-1
 470 0 l 1,7,-1
 35 0 l 1,8,-1
 35 88 l 1,9,10
 56 124 56 124 85.5 165.5 c 128,-1,11
 115 207 115 207 147.5 249 c 128,-1,12
 180 291 180 291 212 330.5 c 128,-1,13
 244 370 244 370 271 402 c 1,14,-1
 47 402 l 1,15,-1
 47 526 l 1,16,-1
 465 526 l 1,17,-1
 465 426 l 1,0,1
EndSplineSet
Substitution2: "'case' Case-Sensitive Forms lookup 19 subtable" Z
EndChar

StartChar: braceleft
Encoding: 123 123 94
Width: 371
Flags: W
LayerCount: 2
Fore
SplineSet
35 358 m 1,0,1
 80 358 80 358 100 384 c 128,-1,2
 120 410 120 410 120 452 c 2,3,-1
 120 603 l 2,4,5
 120 646 120 646 131 679.5 c 128,-1,6
 142 713 142 713 167.5 736 c 128,-1,7
 193 759 193 759 235.5 771 c 128,-1,8
 278 783 278 783 341 783 c 2,9,-1
 361 783 l 1,10,-1
 361 664 l 1,11,-1
 336 664 l 2,12,13
 291 664 291 664 275.5 644 c 128,-1,14
 260 624 260 624 260 582 c 2,15,-1
 260 449 l 2,16,17
 260 397 260 397 246 361 c 128,-1,18
 232 325 232 325 190 299 c 1,19,20
 232 273 232 273 246 237 c 128,-1,21
 260 201 260 201 260 149 c 2,22,-1
 260 16 l 2,23,24
 260 -26 260 -26 275.5 -46 c 128,-1,25
 291 -66 291 -66 336 -66 c 2,26,-1
 361 -66 l 1,27,-1
 361 -185 l 1,28,-1
 341 -185 l 2,29,30
 278 -185 278 -185 235.5 -173 c 128,-1,31
 193 -161 193 -161 167.5 -138 c 128,-1,32
 142 -115 142 -115 131 -81.5 c 128,-1,33
 120 -48 120 -48 120 -5 c 2,34,-1
 120 146 l 2,35,36
 120 188 120 188 100 214 c 128,-1,37
 80 240 80 240 35 240 c 1,38,-1
 35 358 l 1,0,1
EndSplineSet
Substitution2: "'case' Case-Sensitive Forms lookup 18 subtable" Braceleft
EndChar

StartChar: bar
Encoding: 124 124 95
Width: 322
Flags: W
LayerCount: 2
Fore
SplineSet
90 783 m 1,0,-1
 232 783 l 1,1,-1
 232 -185 l 1,2,-1
 90 -185 l 1,3,-1
 90 783 l 1,0,-1
EndSplineSet
EndChar

StartChar: braceright
Encoding: 125 125 96
Width: 371
Flags: W
LayerCount: 2
Fore
SplineSet
336 240 m 1,0,1
 291 240 291 240 271 214 c 128,-1,2
 251 188 251 188 251 146 c 2,3,-1
 251 -5 l 2,4,5
 251 -48 251 -48 240 -81.5 c 128,-1,6
 229 -115 229 -115 203.5 -138 c 128,-1,7
 178 -161 178 -161 135.5 -173 c 128,-1,8
 93 -185 93 -185 30 -185 c 2,9,-1
 10 -185 l 1,10,-1
 10 -66 l 1,11,-1
 35 -66 l 2,12,13
 80 -66 80 -66 95.5 -46 c 128,-1,14
 111 -26 111 -26 111 16 c 2,15,-1
 111 149 l 2,16,17
 111 201 111 201 125 237 c 128,-1,18
 139 273 139 273 181 299 c 1,19,20
 139 325 139 325 125 361 c 128,-1,21
 111 397 111 397 111 449 c 2,22,-1
 111 582 l 2,23,24
 111 624 111 624 95.5 644 c 128,-1,25
 80 664 80 664 35 664 c 2,26,-1
 10 664 l 1,27,-1
 10 783 l 1,28,-1
 30 783 l 2,29,30
 93 783 93 783 135.5 771 c 128,-1,31
 178 759 178 759 203.5 736 c 128,-1,32
 229 713 229 713 240 679.5 c 128,-1,33
 251 646 251 646 251 603 c 2,34,-1
 251 452 l 2,35,36
 251 410 251 410 271 384 c 128,-1,37
 291 358 291 358 336 358 c 1,38,-1
 336 240 l 1,0,1
EndSplineSet
Substitution2: "'case' Case-Sensitive Forms lookup 18 subtable" Braceright
EndChar

StartChar: asciitilde
Encoding: 126 126 97
Width: 568
Flags: W
LayerCount: 2
Fore
SplineSet
386 196 m 0,0,1
 356 196 356 196 329.5 208 c 128,-1,2
 303 220 303 220 278.5 234 c 128,-1,3
 254 248 254 248 231.5 260 c 128,-1,4
 209 272 209 272 187 272 c 0,5,6
 179 272 179 272 170.5 270 c 128,-1,7
 162 268 162 268 154 260.5 c 128,-1,8
 146 253 146 253 138.5 238.5 c 128,-1,9
 131 224 131 224 125 199 c 1,10,-1
 23 227 l 1,11,12
 28 255 28 255 39 286 c 128,-1,13
 50 317 50 317 68.5 343 c 128,-1,14
 87 369 87 369 115 386 c 128,-1,15
 143 403 143 403 182 403 c 0,16,17
 212 403 212 403 238.5 391 c 128,-1,18
 265 379 265 379 289.5 365 c 128,-1,19
 314 351 314 351 336.5 339 c 128,-1,20
 359 327 359 327 381 327 c 0,21,22
 389 327 389 327 397.5 329 c 128,-1,23
 406 331 406 331 414 338.5 c 128,-1,24
 422 346 422 346 429.5 360.5 c 128,-1,25
 437 375 437 375 443 400 c 1,26,-1
 545 372 l 1,27,28
 540 344 540 344 529 313 c 128,-1,29
 518 282 518 282 499 256 c 128,-1,30
 480 230 480 230 452.5 213 c 128,-1,31
 425 196 425 196 386 196 c 0,0,1
EndSplineSet
EndChar

StartChar: Euro
Encoding: 8364 8364 98
Width: 568
Flags: W
LayerCount: 2
Fore
SplineSet
122 481 m 1,0,1
 148 593 148 593 221 650 c 128,-1,2
 294 707 294 707 408 707 c 0,3,4
 453 707 453 707 485 700 c 128,-1,5
 517 693 517 693 549 681 c 1,6,-1
 518 565 l 1,7,8
 494 573 494 573 469 578.5 c 128,-1,9
 444 584 444 584 407 584 c 0,10,11
 347 584 347 584 313.5 558 c 128,-1,12
 280 532 280 532 265 481 c 1,13,-1
 487 481 l 1,14,-1
 468 382 l 1,15,-1
 252 382 l 1,16,17
 251 371 251 371 251 363.5 c 128,-1,18
 251 356 251 356 251 348 c 256,19,20
 251 340 251 340 251 334 c 128,-1,21
 251 328 251 328 252 317 c 1,22,-1
 456 317 l 1,23,-1
 437 218 l 1,24,-1
 265 218 l 1,25,26
 282 158 282 158 316 134.5 c 128,-1,27
 350 111 350 111 401 111 c 0,28,29
 434 111 434 111 468 117 c 128,-1,30
 502 123 502 123 536 137 c 1,31,-1
 565 22 l 1,32,33
 538 8 538 8 495.5 -2.5 c 128,-1,34
 453 -13 453 -13 396 -13 c 0,35,36
 271 -13 271 -13 205 47.5 c 128,-1,37
 139 108 139 108 118 218 c 1,38,-1
 46 218 l 1,39,-1
 46 317 l 1,40,-1
 109 317 l 1,41,42
 108 328 108 328 108 334 c 128,-1,43
 108 340 108 340 108 348 c 256,44,45
 108 356 108 356 108 365 c 128,-1,46
 108 374 108 374 109 382 c 1,47,-1
 46 382 l 1,48,-1
 46 481 l 1,49,-1
 122 481 l 1,0,1
EndSplineSet
EndChar

StartChar: florin
Encoding: 402 402 100
Width: 422
Flags: W
LayerCount: 2
Fore
SplineSet
21 -185 m 0,0,1
 7 -185 7 -185 -20.5 -182 c 128,-1,2
 -48 -179 -48 -179 -72 -171 c 1,3,-1
 -52 -50 l 1,4,5
 -37 -55 -37 -55 -24.5 -57 c 128,-1,6
 -12 -59 -12 -59 7 -59 c 0,7,8
 42 -59 42 -59 56 -38 c 128,-1,9
 70 -17 70 -17 70 23 c 2,10,-1
 70 554 l 2,11,12
 70 656 70 656 127.5 716 c 128,-1,13
 185 776 185 776 298 776 c 0,14,15
 340 776 340 776 375 767.5 c 128,-1,16
 410 759 410 759 429 751 c 1,17,-1
 400 632 l 1,18,19
 380 641 380 641 356.5 645.5 c 128,-1,20
 333 650 333 650 313 650 c 0,21,22
 286 650 286 650 267.5 642.5 c 128,-1,23
 249 635 249 635 238.5 622 c 128,-1,24
 228 609 228 609 223.5 591 c 128,-1,25
 219 573 219 573 219 552 c 2,26,-1
 219 526 l 1,27,-1
 403 526 l 1,28,-1
 403 402 l 1,29,-1
 219 402 l 1,30,-1
 219 19 l 2,31,32
 219 -86 219 -86 168.5 -135.5 c 128,-1,33
 118 -185 118 -185 21 -185 c 0,0,1
EndSplineSet
EndChar

StartChar: dagger
Encoding: 8224 8224 103
Width: 494
Flags: W
LayerCount: 2
Fore
SplineSet
308 376 m 1,0,-1
 308 148 l 2,1,2
 308 67 308 67 303 -2.5 c 128,-1,3
 298 -72 298 -72 288 -145 c 1,4,-1
 205 -145 l 1,5,6
 195 -72 195 -72 190 -2.5 c 128,-1,7
 185 67 185 67 185 148 c 2,8,-1
 185 376 l 1,9,-1
 35 376 l 1,10,-1
 35 491 l 1,11,-1
 185 491 l 1,12,-1
 185 693 l 1,13,-1
 308 693 l 1,14,-1
 308 491 l 1,15,-1
 459 491 l 1,16,-1
 459 376 l 1,17,-1
 308 376 l 1,0,-1
EndSplineSet
EndChar

StartChar: daggerdbl
Encoding: 8225 8225 104
Width: 494
Flags: W
LayerCount: 2
Fore
SplineSet
308 110 m 1,0,1
 306 41 306 41 301.5 -19 c 128,-1,2
 297 -79 297 -79 288 -145 c 1,3,-1
 205 -145 l 1,4,5
 196 -81 196 -81 191 -20 c 128,-1,6
 186 41 186 41 185 110 c 1,7,-1
 35 110 l 1,8,-1
 35 225 l 1,9,-1
 185 225 l 1,10,-1
 185 376 l 1,11,-1
 35 376 l 1,12,-1
 35 491 l 1,13,-1
 185 491 l 1,14,-1
 185 693 l 1,15,-1
 308 693 l 1,16,-1
 308 491 l 1,17,-1
 459 491 l 1,18,-1
 459 376 l 1,19,-1
 308 376 l 1,20,-1
 308 225 l 1,21,-1
 459 225 l 1,22,-1
 459 110 l 1,23,-1
 308 110 l 1,0,1
EndSplineSet
EndChar

StartChar: circumflex
Encoding: 710 710 105
Width: 398
Flags: W
LayerCount: 2
Fore
SplineSet
354 645 m 1,0,-1
 299 579 l 1,1,-1
 199 656 l 1,2,-1
 99 579 l 1,3,-1
 42 645 l 1,4,-1
 199 782 l 1,5,-1
 354 645 l 1,0,-1
EndSplineSet
EndChar

StartChar: perthousand
Encoding: 8240 8240 106
Width: 1320
Flags: W
LayerCount: 2
Fore
SplineSet
389 515 m 256,0,1
 389 421 389 421 341 371 c 128,-1,2
 293 321 293 321 212 321 c 256,3,4
 131 321 131 321 83 371 c 128,-1,5
 35 421 35 421 35 515 c 256,6,7
 35 609 35 609 83 659 c 128,-1,8
 131 709 131 709 212 709 c 256,9,10
 293 709 293 709 341 659 c 128,-1,11
 389 609 389 609 389 515 c 256,0,1
276 515 m 256,12,13
 276 566 276 566 258 589 c 128,-1,14
 240 612 240 612 212 612 c 0,15,16
 183 612 183 612 165.5 589 c 128,-1,17
 148 566 148 566 148 515 c 256,18,19
 148 464 148 464 165.5 440.5 c 128,-1,20
 183 417 183 417 212 417 c 0,21,22
 240 417 240 417 258 440.5 c 128,-1,23
 276 464 276 464 276 515 c 256,12,13
584 693 m 1,24,-1
 723 693 l 1,25,-1
 332 0 l 1,26,-1
 193 0 l 1,27,-1
 584 693 l 1,24,-1
883 178 m 256,28,29
 883 84 883 84 835 34 c 128,-1,30
 787 -16 787 -16 706 -16 c 256,31,32
 625 -16 625 -16 577 34 c 128,-1,33
 529 84 529 84 529 178 c 256,34,35
 529 272 529 272 577 322 c 128,-1,36
 625 372 625 372 706 372 c 256,37,38
 787 372 787 372 835 322 c 128,-1,39
 883 272 883 272 883 178 c 256,28,29
770 178 m 256,40,41
 770 229 770 229 752 252 c 128,-1,42
 734 275 734 275 706 275 c 0,43,44
 677 275 677 275 659.5 252 c 128,-1,45
 642 229 642 229 642 178 c 256,46,47
 642 127 642 127 659.5 103.5 c 128,-1,48
 677 80 677 80 706 80 c 0,49,50
 734 80 734 80 752 103.5 c 128,-1,51
 770 127 770 127 770 178 c 256,40,41
1285 178 m 256,52,53
 1285 84 1285 84 1237 34 c 128,-1,54
 1189 -16 1189 -16 1108 -16 c 256,55,56
 1027 -16 1027 -16 979 34 c 128,-1,57
 931 84 931 84 931 178 c 256,58,59
 931 272 931 272 979 322 c 128,-1,60
 1027 372 1027 372 1108 372 c 256,61,62
 1189 372 1189 372 1237 322 c 128,-1,63
 1285 272 1285 272 1285 178 c 256,52,53
1172 178 m 256,64,65
 1172 229 1172 229 1154 252 c 128,-1,66
 1136 275 1136 275 1108 275 c 0,67,68
 1079 275 1079 275 1061.5 252 c 128,-1,69
 1044 229 1044 229 1044 178 c 256,70,71
 1044 127 1044 127 1061.5 103.5 c 128,-1,72
 1079 80 1079 80 1108 80 c 0,73,74
 1136 80 1136 80 1154 103.5 c 128,-1,75
 1172 127 1172 127 1172 178 c 256,64,65
EndSplineSet
EndChar

StartChar: guilsinglleft
Encoding: 8249 8249 108
Width: 327
Flags: W
LayerCount: 2
Fore
SplineSet
196 284 m 1,0,-1
 297 97 l 1,1,-1
 184 44 l 1,2,-1
 20 284 l 1,3,-1
 184 524 l 1,4,-1
 297 471 l 1,5,-1
 196 284 l 1,0,-1
EndSplineSet
Substitution2: "'case' Case-Sensitive Forms lookup 18 subtable" Guilsinglleft
EndChar

StartChar: OE
Encoding: 338 338 109
Width: 997
Flags: W
LayerCount: 2
Fore
SplineSet
546 0 m 1,0,1
 523 -3 523 -3 494.5 -4.5 c 128,-1,2
 466 -6 466 -6 443 -6 c 0,3,4
 355 -6 355 -6 282.5 15 c 128,-1,5
 210 36 210 36 158.5 79.5 c 128,-1,6
 107 123 107 123 78.5 189.5 c 128,-1,7
 50 256 50 256 50 347 c 256,8,9
 50 438 50 438 78.5 504 c 128,-1,10
 107 570 107 570 158.5 613.5 c 128,-1,11
 210 657 210 657 282.5 678 c 128,-1,12
 355 699 355 699 443 699 c 0,13,14
 466 699 466 699 494.5 697.5 c 128,-1,15
 523 696 523 696 546 693 c 1,16,-1
 939 693 l 1,17,-1
 939 562 l 1,18,-1
 644 562 l 1,19,-1
 644 426 l 1,20,-1
 904 426 l 1,21,-1
 904 298 l 1,22,-1
 644 298 l 1,23,-1
 644 131 l 1,24,-1
 962 131 l 1,25,-1
 962 0 l 1,26,-1
 546 0 l 1,0,1
441 126 m 0,27,28
 453 126 453 126 463.5 126 c 128,-1,29
 474 126 474 126 493 127 c 1,30,-1
 493 566 l 1,31,32
 473 567 473 567 464 567 c 128,-1,33
 455 567 455 567 441 567 c 0,34,35
 324 567 324 567 267 510.5 c 128,-1,36
 210 454 210 454 210 347 c 256,37,38
 210 240 210 240 267 183 c 128,-1,39
 324 126 324 126 441 126 c 0,27,28
EndSplineSet
EndChar

StartChar: quoteleft
Encoding: 8216 8216 110
Width: 243
Flags: W
LayerCount: 2
Fore
SplineSet
44 495 m 1,0,1
 42 509 42 509 41 524 c 128,-1,2
 40 539 40 539 40 546 c 0,3,4
 40 613 40 613 64 673.5 c 128,-1,5
 88 734 88 734 123 776 c 1,6,-1
 228 752 l 1,7,8
 209 709 209 709 197.5 655 c 128,-1,9
 186 601 186 601 186 552 c 0,10,11
 186 550 186 550 186 543.5 c 128,-1,12
 186 537 186 537 186.5 528.5 c 128,-1,13
 187 520 187 520 187.5 511 c 128,-1,14
 188 502 188 502 189 495 c 1,15,-1
 44 495 l 1,0,1
EndSplineSet
EndChar

StartChar: quoteright
Encoding: 8217 8217 111
Width: 243
Flags: W
LayerCount: 2
Fore
SplineSet
199 767 m 1,0,1
 201 753 201 753 202 738 c 128,-1,2
 203 723 203 723 203 716 c 0,3,4
 203 649 203 649 179 588.5 c 128,-1,5
 155 528 155 528 120 486 c 1,6,-1
 15 510 l 1,7,8
 34 553 34 553 45.5 607 c 128,-1,9
 57 661 57 661 57 710 c 0,10,11
 57 712 57 712 57 718.5 c 128,-1,12
 57 725 57 725 56.5 733.5 c 128,-1,13
 56 742 56 742 55.5 751 c 128,-1,14
 55 760 55 760 54 767 c 1,15,-1
 199 767 l 1,0,1
EndSplineSet
EndChar

StartChar: quotedblleft
Encoding: 8220 8220 112
Width: 454
Flags: W
LayerCount: 2
Fore
SplineSet
44 495 m 1,0,1
 42 509 42 509 41 524 c 128,-1,2
 40 539 40 539 40 546 c 0,3,4
 40 613 40 613 64 673.5 c 128,-1,5
 88 734 88 734 123 776 c 1,6,-1
 224 753 l 1,7,8
 205 710 205 710 193.5 655.5 c 128,-1,9
 182 601 182 601 182 552 c 0,10,11
 182 550 182 550 182 543.5 c 128,-1,12
 182 537 182 537 182.5 528.5 c 128,-1,13
 183 520 183 520 183.5 511 c 128,-1,14
 184 502 184 502 185 495 c 1,15,-1
 44 495 l 1,0,1
259 495 m 1,16,17
 257 509 257 509 256 524 c 128,-1,18
 255 539 255 539 255 546 c 0,19,20
 255 613 255 613 279 673.5 c 128,-1,21
 303 734 303 734 338 776 c 1,22,-1
 439 753 l 1,23,24
 420 710 420 710 408.5 655.5 c 128,-1,25
 397 601 397 601 397 552 c 0,26,27
 397 550 397 550 397 543.5 c 128,-1,28
 397 537 397 537 397.5 528.5 c 128,-1,29
 398 520 398 520 398.5 511 c 128,-1,30
 399 502 399 502 400 495 c 1,31,-1
 259 495 l 1,16,17
EndSplineSet
EndChar

StartChar: quotedblright
Encoding: 8221 8221 113
Width: 454
Flags: W
LayerCount: 2
Fore
SplineSet
410 767 m 1,0,1
 412 753 412 753 413 738 c 128,-1,2
 414 723 414 723 414 716 c 0,3,4
 414 649 414 649 390 588.5 c 128,-1,5
 366 528 366 528 331 486 c 1,6,-1
 230 509 l 1,7,8
 249 552 249 552 260.5 606.5 c 128,-1,9
 272 661 272 661 272 710 c 0,10,11
 272 712 272 712 272 718.5 c 128,-1,12
 272 725 272 725 271.5 733.5 c 128,-1,13
 271 742 271 742 270.5 751 c 128,-1,14
 270 760 270 760 269 767 c 1,15,-1
 410 767 l 1,0,1
195 767 m 1,16,17
 197 753 197 753 198 738 c 128,-1,18
 199 723 199 723 199 716 c 0,19,20
 199 649 199 649 175 588.5 c 128,-1,21
 151 528 151 528 116 486 c 1,22,-1
 15 509 l 1,23,24
 34 552 34 552 45.5 606.5 c 128,-1,25
 57 661 57 661 57 710 c 0,26,27
 57 712 57 712 57 718.5 c 128,-1,28
 57 725 57 725 56.5 733.5 c 128,-1,29
 56 742 56 742 55.5 751 c 128,-1,30
 55 760 55 760 54 767 c 1,31,-1
 195 767 l 1,16,17
EndSplineSet
EndChar

StartChar: bullet
Encoding: 8226 8226 114
Width: 364
Flags: W
LayerCount: 2
Fore
SplineSet
326 353 m 0,0,1
 326 324 326 324 316 298.5 c 128,-1,2
 306 273 306 273 287 253.5 c 128,-1,3
 268 234 268 234 241.5 222.5 c 128,-1,4
 215 211 215 211 182 211 c 256,5,6
 149 211 149 211 122.5 222.5 c 128,-1,7
 96 234 96 234 77 253.5 c 128,-1,8
 58 273 58 273 48 298.5 c 128,-1,9
 38 324 38 324 38 353 c 0,10,11
 38 381 38 381 48 407 c 128,-1,12
 58 433 58 433 77 452.5 c 128,-1,13
 96 472 96 472 122.5 483.5 c 128,-1,14
 149 495 149 495 182 495 c 256,15,16
 215 495 215 495 241.5 483.5 c 128,-1,17
 268 472 268 472 287 452.5 c 128,-1,18
 306 433 306 433 316 407 c 128,-1,19
 326 381 326 381 326 353 c 0,0,1
EndSplineSet
Substitution2: "'case' Case-Sensitive Forms lookup 18 subtable" Bullet
EndChar

StartChar: endash
Encoding: 8211 8211 115
Width: 500
Flags: W
LayerCount: 2
Fore
SplineSet
0 361 m 1,0,-1
 500 361 l 1,1,-1
 500 237 l 1,2,-1
 0 237 l 1,3,-1
 0 361 l 1,0,-1
EndSplineSet
Substitution2: "'case' Case-Sensitive Forms lookup 18 subtable" Endash
EndChar

StartChar: emdash
Encoding: 8212 8212 116
Width: 1000
Flags: W
LayerCount: 2
Fore
SplineSet
0 361 m 1,0,-1
 1000 361 l 1,1,-1
 1000 237 l 1,2,-1
 0 237 l 1,3,-1
 0 361 l 1,0,-1
EndSplineSet
Substitution2: "'case' Case-Sensitive Forms lookup 18 subtable" Emdash
EndChar

StartChar: tilde
Encoding: 732 732 117
Width: 373
Flags: W
LayerCount: 2
Fore
SplineSet
374 709 m 1,0,1
 368 694 368 694 357.5 676 c 128,-1,2
 347 658 347 658 332 642.5 c 128,-1,3
 317 627 317 627 298 617 c 128,-1,4
 279 607 279 607 256 607 c 0,5,6
 238 607 238 607 222.5 612.5 c 128,-1,7
 207 618 207 618 192 624.5 c 128,-1,8
 177 631 177 631 162 636.5 c 128,-1,9
 147 642 147 642 131 642 c 0,10,11
 111 642 111 642 98 629 c 128,-1,12
 85 616 85 616 77 599 c 1,13,-1
 4 647 l 1,14,15
 10 662 10 662 20.5 680 c 128,-1,16
 31 698 31 698 46 713.5 c 128,-1,17
 61 729 61 729 80 739 c 128,-1,18
 99 749 99 749 122 749 c 0,19,20
 140 749 140 749 155.5 743.5 c 128,-1,21
 171 738 171 738 186 731.5 c 128,-1,22
 201 725 201 725 215.5 719.5 c 128,-1,23
 230 714 230 714 247 714 c 0,24,25
 267 714 267 714 280 727 c 128,-1,26
 293 740 293 740 301 757 c 1,27,-1
 374 709 l 1,0,1
EndSplineSet
EndChar

StartChar: trademark
Encoding: 8482 8482 118
Width: 854
Flags: W
LayerCount: 2
Fore
SplineSet
352 693 m 1,0,-1
 352 590 l 1,1,-1
 250 590 l 1,2,-1
 250 341 l 1,3,-1
 132 341 l 1,4,-1
 132 590 l 1,5,-1
 30 590 l 1,6,-1
 30 693 l 1,7,-1
 352 693 l 1,0,-1
791 693 m 1,8,9
 801 634 801 634 808.5 549.5 c 128,-1,10
 816 465 816 465 824 341 c 1,11,-1
 709 341 l 1,12,-1
 705 528 l 1,13,-1
 646 378 l 1,14,-1
 567 378 l 1,15,-1
 508 527 l 1,16,17
 508 495 508 495 507.5 463.5 c 128,-1,18
 507 432 507 432 506.5 406 c 128,-1,19
 506 380 506 380 505.5 362 c 128,-1,20
 505 344 505 344 505 341 c 1,21,-1
 391 341 l 1,22,23
 398 465 398 465 406 549.5 c 128,-1,24
 414 634 414 634 422 693 c 1,25,-1
 528 693 l 1,26,27
 549 648 549 648 568 601.5 c 128,-1,28
 587 555 587 555 607 510 c 1,29,30
 627 555 627 555 647.5 605 c 128,-1,31
 668 655 668 655 684 693 c 1,32,-1
 791 693 l 1,8,9
EndSplineSet
EndChar

StartChar: guilsinglright
Encoding: 8250 8250 120
Width: 327
Flags: W
LayerCount: 2
Fore
SplineSet
30 471 m 1,0,-1
 143 524 l 1,1,-1
 307 284 l 1,2,-1
 143 44 l 1,3,-1
 30 97 l 1,4,-1
 131 284 l 1,5,-1
 30 471 l 1,0,-1
EndSplineSet
Substitution2: "'case' Case-Sensitive Forms lookup 18 subtable" Guilsinglright
EndChar

StartChar: oe
Encoding: 339 339 121
Width: 937
Flags: W
LayerCount: 2
Fore
SplineSet
676 -14 m 0,0,1
 612 -14 612 -14 560.5 6.5 c 128,-1,2
 509 27 509 27 474 69 c 1,3,4
 441 29 441 29 396 7.5 c 128,-1,5
 351 -14 351 -14 300 -14 c 0,6,7
 242 -14 242 -14 195 6 c 128,-1,8
 148 26 148 26 114.5 62.5 c 128,-1,9
 81 99 81 99 63 150.5 c 128,-1,10
 45 202 45 202 45 264 c 256,11,12
 45 326 45 326 63.5 377 c 128,-1,13
 82 428 82 428 116 464 c 128,-1,14
 150 500 150 500 197 520 c 128,-1,15
 244 540 244 540 300 540 c 0,16,17
 416 540 416 540 481 454 c 1,18,19
 517 502 517 502 561 521 c 128,-1,20
 605 540 605 540 650 540 c 0,21,22
 762 540 762 540 827 472 c 128,-1,23
 892 404 892 404 892 270 c 0,24,25
 892 257 892 257 891 241.5 c 128,-1,26
 890 226 890 226 889 214 c 1,27,-1
 551 214 l 1,28,29
 556 168 556 168 594 141 c 128,-1,30
 632 114 632 114 696 114 c 0,31,32
 738 114 738 114 777 121.5 c 128,-1,33
 816 129 816 129 841 140 c 1,34,-1
 861 19 l 1,35,36
 849 13 849 13 829 7 c 128,-1,37
 809 1 809 1 784.5 -3.5 c 128,-1,38
 760 -8 760 -8 732 -11 c 128,-1,39
 704 -14 704 -14 676 -14 c 0,0,1
410 264 m 256,40,41
 410 333 410 333 382.5 372.5 c 128,-1,42
 355 412 355 412 304 412 c 256,43,44
 253 412 253 412 225 372.5 c 128,-1,45
 197 333 197 333 197 264 c 256,46,47
 197 195 197 195 225 154.5 c 128,-1,48
 253 114 253 114 304 114 c 256,49,50
 355 114 355 114 382.5 154.5 c 128,-1,51
 410 195 410 195 410 264 c 256,40,41
748 316 m 1,52,53
 747 335 747 335 741.5 353 c 128,-1,54
 736 371 736 371 724.5 385 c 128,-1,55
 713 399 713 399 695 408 c 128,-1,56
 677 417 677 417 652 417 c 0,57,58
 626 417 626 417 608.5 408.5 c 128,-1,59
 591 400 591 400 579 386 c 128,-1,60
 567 372 567 372 560.5 353.5 c 128,-1,61
 554 335 554 335 551 316 c 1,62,-1
 748 316 l 1,52,53
EndSplineSet
Substitution2: "'case' Case-Sensitive Forms lookup 19 subtable" OE
EndChar

StartChar: exclamdown
Encoding: 161 161 124
Width: 286
Flags: W
LayerCount: 2
Fore
SplineSet
223 -180 m 1,0,-1
 64 -180 l 1,1,-1
 64 4 l 2,2,3
 64 85 64 85 70.5 155 c 128,-1,4
 77 225 77 225 87 297 c 1,5,-1
 201 297 l 1,6,7
 211 225 211 225 217 155 c 128,-1,8
 223 85 223 85 223 4 c 2,9,-1
 223 -180 l 1,0,-1
236 434 m 256,10,11
 236 390 236 390 207.5 366 c 128,-1,12
 179 342 179 342 143 342 c 256,13,14
 107 342 107 342 78.5 366 c 128,-1,15
 50 390 50 390 50 434 c 256,16,17
 50 478 50 478 78.5 502 c 128,-1,18
 107 526 107 526 143 526 c 256,19,20
 179 526 179 526 207.5 502 c 128,-1,21
 236 478 236 478 236 434 c 256,10,11
EndSplineSet
Substitution2: "'case' Case-Sensitive Forms lookup 18 subtable" Exclamdown
EndChar

StartChar: cent
Encoding: 162 162 125
Width: 568
Flags: W
LayerCount: 2
Fore
SplineSet
224 37 m 1,0,1
 132 62 132 62 88.5 131 c 128,-1,2
 45 200 45 200 45 293 c 0,3,4
 45 337 45 337 57 377.5 c 128,-1,5
 69 418 69 418 92.5 451 c 128,-1,6
 116 484 116 484 149 508.5 c 128,-1,7
 182 533 182 533 224 546 c 1,8,-1
 224 692 l 1,9,-1
 366 692 l 1,10,-1
 366 557 l 1,11,12
 392 553 392 553 415.5 547 c 128,-1,13
 439 541 439 541 462 531 c 1,14,-1
 429 412 l 1,15,16
 408 420 408 420 383.5 426 c 128,-1,17
 359 432 359 432 328 432 c 0,18,19
 265 432 265 432 231 394.5 c 128,-1,20
 197 357 197 357 197 293 c 0,21,22
 197 225 197 225 229 189.5 c 128,-1,23
 261 154 261 154 334 154 c 0,24,25
 361 154 361 154 392 159 c 128,-1,26
 423 164 423 164 449 175 c 1,27,-1
 470 53 l 1,28,29
 450 45 450 45 424 38.5 c 128,-1,30
 398 32 398 32 366 28 c 1,31,-1
 366 -109 l 1,32,-1
 224 -109 l 1,33,-1
 224 37 l 1,0,1
EndSplineSet
EndChar

StartChar: sterling
Encoding: 163 163 126
Width: 568
Flags: W
LayerCount: 2
Fore
SplineSet
255 394 m 1,0,-1
 421 394 l 1,1,-1
 421 273 l 1,2,-1
 255 273 l 1,3,4
 254 238 254 238 250.5 198 c 128,-1,5
 247 158 247 158 242 125 c 1,6,-1
 503 125 l 1,7,-1
 503 0 l 1,8,-1
 78 0 l 1,9,10
 96 80 96 80 102 148 c 128,-1,11
 108 216 108 216 110 273 c 1,12,-1
 23 273 l 1,13,-1
 23 394 l 1,14,-1
 110 394 l 1,15,-1
 110 447 l 2,16,17
 110 522 110 522 128 571.5 c 128,-1,18
 146 621 146 621 177.5 651 c 128,-1,19
 209 681 209 681 253 693.5 c 128,-1,20
 297 706 297 706 349 706 c 0,21,22
 389 706 389 706 424 698 c 128,-1,23
 459 690 459 690 492 676 c 1,24,-1
 455 559 l 1,25,26
 432 570 432 570 411.5 575 c 128,-1,27
 391 580 391 580 362 581 c 0,28,29
 338 581 338 581 318.5 576 c 128,-1,30
 299 571 299 571 285 557 c 128,-1,31
 271 543 271 543 263 519 c 128,-1,32
 255 495 255 495 255 459 c 2,33,-1
 255 394 l 1,0,-1
EndSplineSet
EndChar

StartChar: currency
Encoding: 164 164 127
Width: 568
Flags: W
LayerCount: 2
Fore
SplineSet
284 544 m 0,0,1
 309 544 309 544 331.5 540 c 128,-1,2
 354 536 354 536 376 526 c 1,3,-1
 450 597 l 1,4,-1
 543 506 l 1,5,-1
 471 437 l 1,6,7
 492 398 492 398 492 347 c 256,8,9
 492 296 492 296 471 257 c 1,10,-1
 543 188 l 1,11,-1
 449 96 l 1,12,-1
 375 168 l 1,13,14
 354 158 354 158 332 154 c 128,-1,15
 310 150 310 150 284 150 c 0,16,17
 259 150 259 150 236.5 154 c 128,-1,18
 214 158 214 158 192 168 c 1,19,-1
 118 97 l 1,20,-1
 25 188 l 1,21,-1
 97 257 l 1,22,23
 76 296 76 296 76 347 c 256,24,25
 76 398 76 398 97 437 c 1,26,-1
 25 506 l 1,27,-1
 119 598 l 1,28,-1
 193 526 l 1,29,30
 214 536 214 536 236 540 c 128,-1,31
 258 544 258 544 284 544 c 0,0,1
366 347 m 256,32,33
 366 390 366 390 342 412 c 128,-1,34
 318 434 318 434 284 434 c 256,35,36
 250 434 250 434 226 412 c 128,-1,37
 202 390 202 390 202 347 c 256,38,39
 202 304 202 304 226 282 c 128,-1,40
 250 260 250 260 284 260 c 256,41,42
 318 260 318 260 342 282 c 128,-1,43
 366 304 366 304 366 347 c 256,32,33
EndSplineSet
EndChar

StartChar: yen
Encoding: 165 165 128
Width: 568
Flags: W
LayerCount: 2
Fore
SplineSet
209 0 m 1,0,-1
 209 111 l 1,1,-1
 61 111 l 1,2,-1
 61 210 l 1,3,-1
 209 210 l 1,4,-1
 209 275 l 1,5,-1
 61 275 l 1,6,-1
 61 374 l 1,7,-1
 161 374 l 1,8,9
 140 412 140 412 117 454 c 128,-1,10
 94 496 94 496 72 538 c 128,-1,11
 50 580 50 580 30 620 c 128,-1,12
 10 660 10 660 -5 693 c 1,13,-1
 165 693 l 1,14,15
 196 624 196 624 224.5 554.5 c 128,-1,16
 253 485 253 485 287 419 c 1,17,18
 320 485 320 485 347 555.5 c 128,-1,19
 374 626 374 626 404 693 c 1,20,-1
 573 693 l 1,21,22
 535 616 535 616 494.5 535.5 c 128,-1,23
 454 455 454 455 408 374 c 1,24,-1
 508 374 l 1,25,-1
 508 275 l 1,26,-1
 360 275 l 1,27,-1
 360 210 l 1,28,-1
 508 210 l 1,29,-1
 508 111 l 1,30,-1
 360 111 l 1,31,-1
 360 0 l 1,32,-1
 209 0 l 1,0,-1
EndSplineSet
EndChar

StartChar: brokenbar
Encoding: 166 166 129
Width: 302
Flags: W
LayerCount: 2
Fore
SplineSet
80 212 m 1,0,-1
 222 212 l 1,1,-1
 222 -185 l 1,2,-1
 80 -185 l 1,3,-1
 80 212 l 1,0,-1
80 783 m 1,4,-1
 222 783 l 1,5,-1
 222 386 l 1,6,-1
 80 386 l 1,7,-1
 80 783 l 1,4,-1
EndSplineSet
EndChar

StartChar: section
Encoding: 167 167 130
Width: 515
Flags: W
LayerCount: 2
Fore
SplineSet
65 54 m 1,0,1
 88 45 88 45 108.5 38 c 128,-1,2
 129 31 129 31 149.5 26.5 c 128,-1,3
 170 22 170 22 192 19.5 c 128,-1,4
 214 17 214 17 241 17 c 0,5,6
 278 17 278 17 297 25.5 c 128,-1,7
 316 34 316 34 316 55 c 0,8,9
 316 65 316 65 312 72.5 c 128,-1,10
 308 80 308 80 297.5 87 c 128,-1,11
 287 94 287 94 269.5 101 c 128,-1,12
 252 108 252 108 225 117 c 0,13,14
 186 130 186 130 151.5 144.5 c 128,-1,15
 117 159 117 159 91.5 180.5 c 128,-1,16
 66 202 66 202 51.5 232.5 c 128,-1,17
 37 263 37 263 37 308 c 0,18,19
 37 355 37 355 59.5 387 c 128,-1,20
 82 419 82 419 114 450 c 1,21,22
 66 490 66 490 66 546 c 0,23,24
 66 623 66 623 122.5 666 c 128,-1,25
 179 709 179 709 285 709 c 0,26,27
 331 709 331 709 379.5 699 c 128,-1,28
 428 689 428 689 467 673 c 1,29,-1
 430 553 l 1,30,31
 398 567 398 567 363.5 575 c 128,-1,32
 329 583 329 583 284 583 c 0,33,34
 246 583 246 583 230.5 574.5 c 128,-1,35
 215 566 215 566 215 549 c 0,36,37
 215 528 215 528 232 515.5 c 128,-1,38
 249 503 249 503 294 488 c 0,39,40
 338 473 338 473 373 457 c 128,-1,41
 408 441 408 441 432 420 c 128,-1,42
 456 399 456 399 469 370 c 128,-1,43
 482 341 482 341 482 300 c 0,44,45
 482 278 482 278 477 260.5 c 128,-1,46
 472 243 472 243 462.5 228 c 128,-1,47
 453 213 453 213 439 198.5 c 128,-1,48
 425 184 425 184 408 169 c 1,49,50
 439 146 439 146 452 118.5 c 128,-1,51
 465 91 465 91 465 54 c 0,52,53
 465 -109 465 -109 249 -109 c 0,54,55
 172 -109 172 -109 117.5 -96 c 128,-1,56
 63 -83 63 -83 28 -65 c 1,57,-1
 65 54 l 1,0,1
208 384 m 1,58,59
 192 370 192 370 181.5 353 c 128,-1,60
 171 336 171 336 171 319 c 0,61,62
 171 281 171 281 204.5 261 c 128,-1,63
 238 241 238 241 307 218 c 1,64,65
 323 232 323 232 333.5 249 c 128,-1,66
 344 266 344 266 344 283 c 0,67,68
 344 302 344 302 335.5 315.5 c 128,-1,69
 327 329 327 329 310.5 340.5 c 128,-1,70
 294 352 294 352 268 362 c 128,-1,71
 242 372 242 372 208 384 c 1,58,59
EndSplineSet
EndChar

StartChar: dieresis
Encoding: 168 168 131
Width: 536
Flags: W
LayerCount: 2
Fore
SplineSet
156 602 m 256,0,1
 125 602 125 602 102 622.5 c 128,-1,2
 79 643 79 643 79 678 c 256,3,4
 79 713 79 713 102 733.5 c 128,-1,5
 125 754 125 754 156 754 c 256,6,7
 187 754 187 754 210 733.5 c 128,-1,8
 233 713 233 713 233 678 c 256,9,10
 233 643 233 643 210 622.5 c 128,-1,11
 187 602 187 602 156 602 c 256,0,1
379 602 m 256,12,13
 348 602 348 602 325 622.5 c 128,-1,14
 302 643 302 643 302 678 c 256,15,16
 302 713 302 713 325 733.5 c 128,-1,17
 348 754 348 754 379 754 c 256,18,19
 410 754 410 754 433 733.5 c 128,-1,20
 456 713 456 713 456 678 c 256,21,22
 456 643 456 643 433 622.5 c 128,-1,23
 410 602 410 602 379 602 c 256,12,13
EndSplineSet
EndChar

StartChar: copyright
Encoding: 169 169 132
Width: 796
Flags: W
LayerCount: 2
Fore
SplineSet
746 347 m 256,0,1
 746 262 746 262 717.5 194.5 c 128,-1,2
 689 127 689 127 641 80.5 c 128,-1,3
 593 34 593 34 530 9.5 c 128,-1,4
 467 -15 467 -15 398 -15 c 256,5,6
 329 -15 329 -15 266 9.5 c 128,-1,7
 203 34 203 34 155 80.5 c 128,-1,8
 107 127 107 127 78.5 194.5 c 128,-1,9
 50 262 50 262 50 347 c 256,10,11
 50 432 50 432 78.5 499.5 c 128,-1,12
 107 567 107 567 155 613.5 c 128,-1,13
 203 660 203 660 266 684.5 c 128,-1,14
 329 709 329 709 398 709 c 256,15,16
 467 709 467 709 530 684.5 c 128,-1,17
 593 660 593 660 641 613.5 c 128,-1,18
 689 567 689 567 717.5 499.5 c 128,-1,19
 746 432 746 432 746 347 c 256,0,1
644 347 m 256,20,21
 644 407 644 407 626 456 c 128,-1,22
 608 505 608 505 575.5 540 c 128,-1,23
 543 575 543 575 497.5 594 c 128,-1,24
 452 613 452 613 398 613 c 256,25,26
 344 613 344 613 298.5 594 c 128,-1,27
 253 575 253 575 220.5 540 c 128,-1,28
 188 505 188 505 170 456 c 128,-1,29
 152 407 152 407 152 347 c 256,30,31
 152 287 152 287 170 238 c 128,-1,32
 188 189 188 189 220.5 154 c 128,-1,33
 253 119 253 119 298.5 100 c 128,-1,34
 344 81 344 81 398 81 c 256,35,36
 452 81 452 81 497.5 100 c 128,-1,37
 543 119 543 119 575.5 154 c 128,-1,38
 608 189 608 189 626 238 c 128,-1,39
 644 287 644 287 644 347 c 256,20,21
414 160 m 0,40,41
 325 160 325 160 278 209 c 128,-1,42
 231 258 231 258 231 349 c 0,43,44
 231 439 231 439 280.5 488 c 128,-1,45
 330 537 330 537 411 537 c 0,46,47
 459 537 459 537 488.5 524 c 128,-1,48
 518 511 518 511 529 505 c 1,49,-1
 497 417 l 1,50,51
 483 425 483 425 465.5 430.5 c 128,-1,52
 448 436 448 436 420 436 c 0,53,54
 387 436 387 436 367 415 c 128,-1,55
 347 394 347 394 347 354 c 0,56,57
 347 336 347 336 350 319.5 c 128,-1,58
 353 303 353 303 361 290.5 c 128,-1,59
 369 278 369 278 383 270 c 128,-1,60
 397 262 397 262 420 262 c 0,61,62
 450 262 450 262 470 269 c 128,-1,63
 490 276 490 276 506 282 c 1,64,-1
 534 191 l 1,65,66
 521 184 521 184 490 172 c 128,-1,67
 459 160 459 160 414 160 c 0,40,41
EndSplineSet
EndChar

StartChar: ordfeminine
Encoding: 170 170 133
Width: 399
Flags: W
LayerCount: 2
Fore
SplineSet
200 393 m 0,0,1
 216 393 216 393 230.5 394 c 128,-1,2
 245 395 245 395 254 396 c 1,3,-1
 254 474 l 1,4,5
 247 476 247 476 234 477.5 c 128,-1,6
 221 479 221 479 210 479 c 0,7,8
 180 479 180 479 158 471 c 128,-1,9
 136 463 136 463 136 437 c 256,10,11
 136 411 136 411 153.5 402 c 128,-1,12
 171 393 171 393 200 393 c 0,0,1
191 708 m 0,13,14
 239 708 239 708 271.5 697.5 c 128,-1,15
 304 687 304 687 324 667 c 128,-1,16
 344 647 344 647 352.5 619 c 128,-1,17
 361 591 361 591 361 555 c 2,18,-1
 361 328 l 1,19,20
 338 323 338 323 294.5 315.5 c 128,-1,21
 251 308 251 308 193 308 c 0,22,23
 114 308 114 308 69 336 c 128,-1,24
 24 364 24 364 24 434 c 0,25,26
 24 468 24 468 37.5 490.5 c 128,-1,27
 51 513 51 513 73.5 527 c 128,-1,28
 96 541 96 541 126.5 547 c 128,-1,29
 157 553 157 553 190 553 c 0,30,31
 210 553 210 553 226.5 551 c 128,-1,32
 243 549 243 549 254 547 c 1,33,-1
 254 557 l 2,34,35
 254 585 254 585 237 600.5 c 128,-1,36
 220 616 220 616 179 616 c 0,37,38
 151 616 151 616 123 612 c 128,-1,39
 95 608 95 608 75 601 c 1,40,-1
 60 690 l 1,41,42
 79 696 79 696 116.5 702 c 128,-1,43
 154 708 154 708 191 708 c 0,13,14
EndSplineSet
EndChar

StartChar: logicalnot
Encoding: 172 172 135
Width: 568
Flags: W
LayerCount: 2
Fore
SplineSet
520 47 m 1,0,-1
 384 47 l 1,1,-1
 384 281 l 1,2,-1
 50 281 l 1,3,-1
 50 406 l 1,4,-1
 520 406 l 1,5,-1
 520 47 l 1,0,-1
EndSplineSet
EndChar

StartChar: registered
Encoding: 174 174 137
Width: 796
Flags: W
LayerCount: 2
Fore
SplineSet
746 347 m 0,0,1
 746 261 746 261 717.5 194 c 128,-1,2
 689 127 689 127 641 80.5 c 128,-1,3
 593 34 593 34 530 9.5 c 128,-1,4
 467 -15 467 -15 398 -15 c 256,5,6
 329 -15 329 -15 266 9.5 c 128,-1,7
 203 34 203 34 155 80.5 c 128,-1,8
 107 127 107 127 78.5 194 c 128,-1,9
 50 261 50 261 50 347 c 0,10,11
 50 432 50 432 78.5 499.5 c 128,-1,12
 107 567 107 567 155 613.5 c 128,-1,13
 203 660 203 660 266 684.5 c 128,-1,14
 329 709 329 709 398 709 c 256,15,16
 467 709 467 709 530 684.5 c 128,-1,17
 593 660 593 660 641 613.5 c 128,-1,18
 689 567 689 567 717.5 499.5 c 128,-1,19
 746 432 746 432 746 347 c 0,0,1
644 347 m 256,20,21
 644 407 644 407 626 456 c 128,-1,22
 608 505 608 505 575.5 540 c 128,-1,23
 543 575 543 575 497.5 594 c 128,-1,24
 452 613 452 613 398 613 c 256,25,26
 344 613 344 613 298.5 594 c 128,-1,27
 253 575 253 575 220.5 540 c 128,-1,28
 188 505 188 505 170 456 c 128,-1,29
 152 407 152 407 152 347 c 256,30,31
 152 287 152 287 170 238 c 128,-1,32
 188 189 188 189 220.5 154 c 128,-1,33
 253 119 253 119 298.5 100 c 128,-1,34
 344 81 344 81 398 81 c 256,35,36
 452 81 452 81 497.5 100 c 128,-1,37
 543 119 543 119 575.5 154 c 128,-1,38
 608 189 608 189 626 238 c 128,-1,39
 644 287 644 287 644 347 c 256,20,21
459 177 m 1,40,41
 442 215 442 215 430 243.5 c 128,-1,42
 418 272 418 272 403 295 c 1,43,-1
 363 295 l 1,44,-1
 363 177 l 1,45,-1
 266 177 l 1,46,-1
 266 519 l 1,47,48
 300 527 300 527 329.5 530.5 c 128,-1,49
 359 534 359 534 381 534 c 0,50,51
 542 534 542 534 542 413 c 0,52,53
 542 351 542 351 488 322 c 1,54,55
 499 305 499 305 507.5 289.5 c 128,-1,56
 516 274 516 274 524.5 257.5 c 128,-1,57
 533 241 533 241 541.5 221.5 c 128,-1,58
 550 202 550 202 561 177 c 1,59,-1
 459 177 l 1,40,41
363 373 m 1,60,-1
 381 373 l 2,61,62
 413 373 413 373 429 381.5 c 128,-1,63
 445 390 445 390 445 414 c 0,64,65
 445 434 445 434 431 442 c 128,-1,66
 417 450 417 450 390 450 c 0,67,68
 383 450 383 450 375.5 449.5 c 128,-1,69
 368 449 368 449 363 448 c 1,70,-1
 363 373 l 1,60,-1
EndSplineSet
EndChar

StartChar: macron
Encoding: 175 175 138
Width: 376
Flags: W
LayerCount: 2
Fore
SplineSet
27 725 m 1,0,-1
 349 725 l 1,1,-1
 349 623 l 1,2,-1
 27 623 l 1,3,-1
 27 725 l 1,0,-1
EndSplineSet
EndChar

StartChar: degree
Encoding: 176 176 139
Width: 363
Flags: W
LayerCount: 2
Fore
SplineSet
181 781 m 256,0,1
 213 781 213 781 242.5 770.5 c 128,-1,2
 272 760 272 760 294 739.5 c 128,-1,3
 316 719 316 719 329 690.5 c 128,-1,4
 342 662 342 662 342 626 c 256,5,6
 342 590 342 590 329 561.5 c 128,-1,7
 316 533 316 533 294 512.5 c 128,-1,8
 272 492 272 492 242.5 481.5 c 128,-1,9
 213 471 213 471 181 471 c 256,10,11
 149 471 149 471 119.5 481.5 c 128,-1,12
 90 492 90 492 68 512.5 c 128,-1,13
 46 533 46 533 33 561.5 c 128,-1,14
 20 590 20 590 20 626 c 256,15,16
 20 662 20 662 33 690.5 c 128,-1,17
 46 719 46 719 68 739.5 c 128,-1,18
 90 760 90 760 119.5 770.5 c 128,-1,19
 149 781 149 781 181 781 c 256,0,1
181 569 m 256,20,21
 202 569 202 569 219 584.5 c 128,-1,22
 236 600 236 600 236 626 c 256,23,24
 236 652 236 652 219 667.5 c 128,-1,25
 202 683 202 683 181 683 c 256,26,27
 160 683 160 683 143 667.5 c 128,-1,28
 126 652 126 652 126 626 c 256,29,30
 126 600 126 600 143 584.5 c 128,-1,31
 160 569 160 569 181 569 c 256,20,21
EndSplineSet
EndChar

StartChar: plusminus
Encoding: 177 177 140
Width: 568
Flags: W
LayerCount: 2
Fore
SplineSet
49 455 m 1,0,-1
 216 455 l 1,1,-1
 216 625 l 1,2,-1
 352 625 l 1,3,-1
 352 455 l 1,4,-1
 519 455 l 1,5,-1
 519 330 l 1,6,-1
 352 330 l 1,7,-1
 352 160 l 1,8,-1
 216 160 l 1,9,-1
 216 330 l 1,10,-1
 49 330 l 1,11,-1
 49 455 l 1,0,-1
49 125 m 1,12,-1
 519 125 l 1,13,-1
 519 0 l 1,14,-1
 49 0 l 1,15,-1
 49 125 l 1,12,-1
EndSplineSet
EndChar

StartChar: twosuperior
Encoding: 178 178 141
Width: 363
Flags: W
LayerCount: 2
Fore
SplineSet
312 586 m 0,0,1
 312 564 312 564 305 546 c 128,-1,2
 298 528 298 528 286.5 512.5 c 128,-1,3
 275 497 275 497 260 483.5 c 128,-1,4
 245 470 245 470 230 457 c 0,5,6
 213 443 213 443 195 425.5 c 128,-1,7
 177 408 177 408 166 393 c 1,8,-1
 322 393 l 1,9,-1
 322 302 l 1,10,-1
 35 302 l 1,11,12
 34 310 34 310 34 316.5 c 128,-1,13
 34 323 34 323 34 330 c 0,14,15
 34 379 34 379 60.5 418.5 c 128,-1,16
 87 458 87 458 138 501 c 0,17,18
 165 524 165 524 181.5 541 c 128,-1,19
 198 558 198 558 198 576 c 0,20,21
 198 591 198 591 189 600 c 128,-1,22
 180 609 180 609 163 609 c 0,23,24
 134 609 134 609 109.5 597.5 c 128,-1,25
 85 586 85 586 68 572 c 1,26,-1
 16 650 l 1,27,28
 42 672 42 672 82.5 690.5 c 128,-1,29
 123 709 123 709 168 709 c 0,30,31
 207 709 207 709 234.5 700 c 128,-1,32
 262 691 262 691 279 674.5 c 128,-1,33
 296 658 296 658 304 635.5 c 128,-1,34
 312 613 312 613 312 586 c 0,0,1
EndSplineSet
Substitution2: "Single Substitution lookup 26 subtable" twoinferior
Substitution2: "'sinf' Scientific Inferiors lookup 13 subtable" two.sinf
Substitution2: "'subs' Subscript lookup 12 subtable" two.sinf
Substitution2: "'sups' Superscript lookup 11 subtable" two.sups
Substitution2: "'dnom' Denominators lookup 10 subtable" twoinferior
EndChar

StartChar: threesuperior
Encoding: 179 179 142
Width: 363
Flags: W
LayerCount: 2
Fore
SplineSet
149 388 m 0,0,1
 184 388 184 388 198 398.5 c 128,-1,2
 212 409 212 409 212 425 c 0,3,4
 212 466 212 466 142 466 c 2,5,-1
 101 466 l 1,6,-1
 101 548 l 1,7,-1
 142 548 l 2,8,9
 165 548 165 548 180 557 c 128,-1,10
 195 566 195 566 195 584 c 0,11,12
 195 616 195 616 151 616 c 0,13,14
 128 616 128 616 105 608.5 c 128,-1,15
 82 601 82 601 61 591 c 1,16,-1
 23 670 l 1,17,18
 48 686 48 686 85.5 697.5 c 128,-1,19
 123 709 123 709 159 709 c 0,20,21
 199 709 199 709 226.5 700 c 128,-1,22
 254 691 254 691 270.5 675.5 c 128,-1,23
 287 660 287 660 294 639.5 c 128,-1,24
 301 619 301 619 301 597 c 0,25,26
 301 576 301 576 291.5 557 c 128,-1,27
 282 538 282 538 259 520 c 1,28,29
 291 505 291 505 305.5 480 c 128,-1,30
 320 455 320 455 320 424 c 0,31,32
 320 397 320 397 311 373 c 128,-1,33
 302 349 302 349 282 331.5 c 128,-1,34
 262 314 262 314 229.5 304 c 128,-1,35
 197 294 197 294 150 294 c 0,36,37
 133 294 133 294 114.5 296 c 128,-1,38
 96 298 96 298 78 302 c 128,-1,39
 60 306 60 306 44.5 310.5 c 128,-1,40
 29 315 29 315 17 321 c 1,41,-1
 40 410 l 1,42,43
 74 396 74 396 97.5 392 c 128,-1,44
 121 388 121 388 149 388 c 0,0,1
EndSplineSet
Substitution2: "Single Substitution lookup 26 subtable" threeinferior
Substitution2: "'sinf' Scientific Inferiors lookup 13 subtable" three.sinf
Substitution2: "'subs' Subscript lookup 12 subtable" three.sinf
Substitution2: "'sups' Superscript lookup 11 subtable" three.sups
Substitution2: "'dnom' Denominators lookup 10 subtable" threeinferior
EndChar

StartChar: acute
Encoding: 180 180 143
Width: 286
Flags: W
LayerCount: 2
Fore
SplineSet
259 715 m 1,0,-1
 94 576 l 1,1,-1
 26 637 l 1,2,-1
 168 799 l 1,3,-1
 259 715 l 1,0,-1
EndSplineSet
EndChar

StartChar: mu
Encoding: 181 181 144
Width: 594
Flags: W
LayerCount: 2
Fore
SplineSet
219 526 m 1,0,-1
 219 244 l 2,1,2
 219 206 219 206 224.5 181 c 128,-1,3
 230 156 230 156 241.5 141.5 c 128,-1,4
 253 127 253 127 270 121 c 128,-1,5
 287 115 287 115 310 115 c 0,6,7
 326 115 326 115 343.5 116.5 c 128,-1,8
 361 118 361 118 375 120 c 1,9,-1
 375 526 l 1,10,-1
 524 526 l 1,11,-1
 524 18 l 1,12,13
 485 7 485 7 430.5 -1.5 c 128,-1,14
 376 -10 376 -10 313 -10 c 0,15,16
 287 -10 287 -10 260 -5 c 128,-1,17
 233 0 233 0 214 9 c 1,18,19
 216 -11 216 -11 217.5 -31.5 c 128,-1,20
 219 -52 219 -52 219 -89 c 2,21,-1
 219 -166 l 1,22,-1
 70 -166 l 1,23,-1
 70 526 l 1,24,-1
 219 526 l 1,0,-1
EndSplineSet
EndChar

StartChar: paragraph
Encoding: 182 182 145
Width: 710
Flags: W
LayerCount: 2
Fore
SplineSet
259 258 m 1,0,1
 147 273 147 273 93.5 324.5 c 128,-1,2
 40 376 40 376 40 476 c 0,3,4
 40 585 40 585 125.5 643 c 128,-1,5
 211 701 211 701 372 701 c 0,6,7
 403 701 403 701 437.5 699 c 128,-1,8
 472 697 472 697 506 694 c 128,-1,9
 540 691 540 691 572 686 c 128,-1,10
 604 681 604 681 630 675 c 1,11,-1
 630 -186 l 1,12,-1
 489 -186 l 1,13,-1
 489 574 l 1,14,15
 475 576 475 576 449 577 c 128,-1,16
 423 578 423 578 401 578 c 1,17,-1
 401 -186 l 1,18,-1
 259 -186 l 1,19,-1
 259 258 l 1,0,1
EndSplineSet
EndChar

StartChar: cedilla
Encoding: 184 184 147
Width: 326
Flags: W
LayerCount: 2
Fore
SplineSet
215 -40 m 1,0,1
 247 -56 247 -56 259 -78 c 128,-1,2
 271 -100 271 -100 271 -123 c 0,3,4
 271 -171 271 -171 233.5 -196 c 128,-1,5
 196 -221 196 -221 133 -221 c 0,6,7
 111 -221 111 -221 89 -217.5 c 128,-1,8
 67 -214 67 -214 45 -208 c 1,9,-1
 63 -121 l 1,10,11
 70 -123 70 -123 88.5 -127.5 c 128,-1,12
 107 -132 107 -132 125 -132 c 0,13,14
 139 -132 139 -132 149.5 -126.5 c 128,-1,15
 160 -121 160 -121 161 -107 c 0,16,17
 162 -95 162 -95 151.5 -85 c 128,-1,18
 141 -75 141 -75 118 -70 c 2,19,-1
 106 -67 l 1,20,21
 109 -57 109 -57 114.5 -44 c 128,-1,22
 120 -31 120 -31 126 -18.5 c 128,-1,23
 132 -6 132 -6 137 4.5 c 128,-1,24
 142 15 142 15 145 20 c 1,25,-1
 244 20 l 1,26,27
 238 9 238 9 229 -9.5 c 128,-1,28
 220 -28 220 -28 215 -40 c 1,0,1
EndSplineSet
EndChar

StartChar: onesuperior
Encoding: 185 185 148
Width: 363
Flags: W
LayerCount: 2
Fore
SplineSet
38 618 m 1,0,1
 80 635 80 635 119.5 656.5 c 128,-1,2
 159 678 159 678 188 701 c 1,3,-1
 275 701 l 1,4,-1
 275 302 l 1,5,-1
 161 302 l 1,6,-1
 161 572 l 1,7,8
 141 561 141 561 120 551.5 c 128,-1,9
 99 542 99 542 69 531 c 1,10,-1
 38 618 l 1,0,1
EndSplineSet
Substitution2: "Single Substitution lookup 26 subtable" oneinferior
Substitution2: "'sinf' Scientific Inferiors lookup 13 subtable" one.sinf
Substitution2: "'subs' Subscript lookup 12 subtable" one.sinf
Substitution2: "'sups' Superscript lookup 11 subtable" one.sups
Substitution2: "'dnom' Denominators lookup 10 subtable" oneinferior
EndChar

StartChar: ordmasculine
Encoding: 186 186 149
Width: 457
Flags: W
LayerCount: 2
Fore
SplineSet
424 506 m 0,0,1
 424 459 424 459 409.5 422 c 128,-1,2
 395 385 395 385 369.5 359.5 c 128,-1,3
 344 334 344 334 308 320 c 128,-1,4
 272 306 272 306 229 306 c 256,5,6
 186 306 186 306 150 320 c 128,-1,7
 114 334 114 334 88 359.5 c 128,-1,8
 62 385 62 385 47.5 422 c 128,-1,9
 33 459 33 459 33 506 c 0,10,11
 33 554 33 554 47.5 591.5 c 128,-1,12
 62 629 62 629 88 655 c 128,-1,13
 114 681 114 681 150 695 c 128,-1,14
 186 709 186 709 229 709 c 256,15,16
 272 709 272 709 308 695 c 128,-1,17
 344 681 344 681 369.5 655 c 128,-1,18
 395 629 395 629 409.5 591.5 c 128,-1,19
 424 554 424 554 424 506 c 0,0,1
310 506 m 0,20,21
 310 554 310 554 289 581.5 c 128,-1,22
 268 609 268 609 229 609 c 0,23,24
 191 609 191 609 169 581.5 c 128,-1,25
 147 554 147 554 147 506 c 0,26,27
 147 461 147 461 168.5 433.5 c 128,-1,28
 190 406 190 406 229 406 c 256,29,30
 268 406 268 406 289 433.5 c 128,-1,31
 310 461 310 461 310 506 c 0,20,21
EndSplineSet
EndChar

StartChar: questiondown
Encoding: 191 191 154
Width: 455
Flags: W
LayerCount: 2
Fore
SplineSet
254 -70 m 256,0,1
 290 -70 290 -70 322 -61 c 128,-1,2
 354 -52 354 -52 393 -32 c 1,3,-1
 435 -145 l 1,4,5
 396 -170 396 -170 343 -183.5 c 128,-1,6
 290 -197 290 -197 239 -197 c 0,7,8
 175 -197 175 -197 133.5 -180 c 128,-1,9
 92 -163 92 -163 68 -137 c 128,-1,10
 44 -111 44 -111 34.5 -80 c 128,-1,11
 25 -49 25 -49 25 -21 c 256,12,13
 25 7 25 7 33.5 30.5 c 128,-1,14
 42 54 42 54 55 74 c 128,-1,15
 68 94 68 94 84.5 112 c 128,-1,16
 101 130 101 130 118 146 c 0,17,18
 130 158 130 158 143 171.5 c 128,-1,19
 156 185 156 185 166.5 200 c 128,-1,20
 177 215 177 215 184 231.5 c 128,-1,21
 191 248 191 248 191 265 c 0,22,23
 191 269 191 269 191 277 c 128,-1,24
 191 285 191 285 190 291 c 1,25,-1
 322 291 l 1,26,27
 324 281 324 281 324.5 268.5 c 128,-1,28
 325 256 325 256 325 247 c 0,29,30
 325 219 325 219 318 196 c 128,-1,31
 311 173 311 173 299.5 153.5 c 128,-1,32
 288 134 288 134 273 117.5 c 128,-1,33
 258 101 258 101 242 85 c 0,34,35
 219 62 219 62 200 39.5 c 128,-1,36
 181 17 181 17 181 -12 c 0,37,38
 181 -36 181 -36 199.5 -53 c 128,-1,39
 218 -70 218 -70 254 -70 c 256,0,1
161 433 m 256,40,41
 161 477 161 477 189.5 501 c 128,-1,42
 218 525 218 525 254 525 c 256,43,44
 290 525 290 525 318.5 501 c 128,-1,45
 347 477 347 477 347 433 c 256,46,47
 347 389 347 389 318.5 365 c 128,-1,48
 290 341 290 341 254 341 c 256,49,50
 218 341 218 341 189.5 365 c 128,-1,51
 161 389 161 389 161 433 c 256,40,41
EndSplineSet
Substitution2: "'case' Case-Sensitive Forms lookup 18 subtable" Questiondown
EndChar

StartChar: Aring
Encoding: 197 197 160
Width: 721
Flags: W
LayerCount: 2
Fore
SplineSet
544 0 m 1,0,1
 533 36 533 36 519.5 74 c 128,-1,2
 506 112 506 112 493 150 c 1,3,-1
 223 150 l 1,4,5
 210 112 210 112 196.5 74 c 128,-1,6
 183 36 183 36 172 0 c 1,7,-1
 10 0 l 1,8,9
 48 109 48 109 82 202.5 c 128,-1,10
 116 296 116 296 149 378.5 c 128,-1,11
 182 461 182 461 214 535 c 128,-1,12
 246 609 246 609 280 680 c 1,13,14
 263 695 263 695 253 716.5 c 128,-1,15
 243 738 243 738 243 767 c 0,16,17
 243 795 243 795 252.5 816.5 c 128,-1,18
 262 838 262 838 278.5 852.5 c 128,-1,19
 295 867 295 867 316 874.5 c 128,-1,20
 337 882 337 882 360 882 c 0,21,22
 384 882 384 882 405.5 874.5 c 128,-1,23
 427 867 427 867 443.5 852.5 c 128,-1,24
 460 838 460 838 469.5 816.5 c 128,-1,25
 479 795 479 795 479 767 c 0,26,27
 479 738 479 738 468.5 716 c 128,-1,28
 458 694 458 694 441 680 c 1,29,30
 474 609 474 609 506.5 535 c 128,-1,31
 539 461 539 461 571.5 378.5 c 128,-1,32
 604 296 604 296 638.5 202.5 c 128,-1,33
 673 109 673 109 711 0 c 1,34,-1
 544 0 l 1,0,1
357 536 m 1,35,36
 352 521 352 521 342 495 c 128,-1,37
 332 469 332 469 319 435 c 128,-1,38
 306 401 306 401 290.5 360 c 128,-1,39
 275 319 275 319 259 274 c 1,40,-1
 456 274 l 1,41,42
 440 319 440 319 425 360 c 128,-1,43
 410 401 410 401 396.5 435 c 128,-1,44
 383 469 383 469 373 495 c 128,-1,45
 363 521 363 521 357 536 c 1,35,36
406 767 m 256,46,47
 406 790 406 790 392 802 c 128,-1,48
 378 814 378 814 360 814 c 0,49,50
 343 814 343 814 329 802 c 128,-1,51
 315 790 315 790 315 767 c 256,52,53
 315 744 315 744 329 732 c 128,-1,54
 343 720 343 720 360 720 c 0,55,56
 378 720 378 720 392 732 c 128,-1,57
 406 744 406 744 406 767 c 256,46,47
EndSplineSet
EndChar

StartChar: AE
Encoding: 198 198 161
Width: 994
Flags: W
LayerCount: 2
Fore
SplineSet
490 164 m 1,0,-1
 270 164 l 1,1,2
 249 126 249 126 224 82 c 128,-1,3
 199 38 199 38 181 0 c 1,4,-1
 10 0 l 1,5,6
 132 219 132 219 237 390.5 c 128,-1,7
 342 562 342 562 436 693 c 1,8,-1
 936 693 l 1,9,-1
 936 562 l 1,10,-1
 641 562 l 1,11,-1
 641 426 l 1,12,-1
 901 426 l 1,13,-1
 901 298 l 1,14,-1
 641 298 l 1,15,-1
 641 131 l 1,16,-1
 959 131 l 1,17,-1
 959 0 l 1,18,-1
 490 0 l 1,19,-1
 490 164 l 1,0,-1
490 542 m 1,20,21
 474 519 474 519 454 487 c 128,-1,22
 434 455 434 455 412.5 420.5 c 128,-1,23
 391 386 391 386 370.5 351 c 128,-1,24
 350 316 350 316 333 288 c 1,25,-1
 490 288 l 1,26,-1
 490 542 l 1,20,21
EndSplineSet
EndChar

StartChar: Ccedilla
Encoding: 199 199 162
Width: 648
Flags: W
LayerCount: 2
Fore
SplineSet
432 -13 m 1,0,1
 428 -21 428 -21 425 -28 c 128,-1,2
 422 -35 422 -35 420 -40 c 1,3,4
 452 -56 452 -56 464 -78 c 128,-1,5
 476 -100 476 -100 476 -123 c 0,6,7
 476 -171 476 -171 438 -196 c 128,-1,8
 400 -221 400 -221 338 -221 c 0,9,10
 316 -221 316 -221 294 -217.5 c 128,-1,11
 272 -214 272 -214 250 -208 c 1,12,-1
 268 -121 l 1,13,14
 275 -123 275 -123 293.5 -127.5 c 128,-1,15
 312 -132 312 -132 330 -132 c 0,16,17
 344 -132 344 -132 354.5 -126.5 c 128,-1,18
 365 -121 365 -121 366 -107 c 0,19,20
 367 -95 367 -95 356.5 -85 c 128,-1,21
 346 -75 346 -75 323 -70 c 2,22,-1
 311 -67 l 1,23,24
 315 -55 315 -55 321.5 -39.5 c 128,-1,25
 328 -24 328 -24 334 -10 c 1,26,27
 194 7 194 7 122 98.5 c 128,-1,28
 50 190 50 190 50 347 c 0,29,30
 50 433 50 433 77 500.5 c 128,-1,31
 104 568 104 568 151 614.5 c 128,-1,32
 198 661 198 661 263 685 c 128,-1,33
 328 709 328 709 404 709 c 0,34,35
 448 709 448 709 484 702.5 c 128,-1,36
 520 696 520 696 547 687.5 c 128,-1,37
 574 679 574 679 592 670 c 128,-1,38
 610 661 610 661 618 656 c 1,39,-1
 573 530 l 1,40,41
 541 547 541 547 498.5 559 c 128,-1,42
 456 571 456 571 402 571 c 0,43,44
 366 571 366 571 331.5 559 c 128,-1,45
 297 547 297 547 270.5 520.5 c 128,-1,46
 244 494 244 494 228 452 c 128,-1,47
 212 410 212 410 212 350 c 0,48,49
 212 302 212 302 222.5 260.5 c 128,-1,50
 233 219 233 219 256.5 189 c 128,-1,51
 280 159 280 159 318 141.5 c 128,-1,52
 356 124 356 124 410 124 c 0,53,54
 444 124 444 124 471 128 c 128,-1,55
 498 132 498 132 519 137.5 c 128,-1,56
 540 143 540 143 556 150 c 128,-1,57
 572 157 572 157 585 163 c 1,58,-1
 628 38 l 1,59,60
 599 20 599 20 548.5 5.5 c 128,-1,61
 498 -9 498 -9 432 -13 c 1,0,1
EndSplineSet
EndChar

StartChar: Eth
Encoding: 208 208 171
Width: 748
Flags: W
LayerCount: 2
Fore
SplineSet
247 127 m 1,0,1
 258 126 258 126 272.5 125.5 c 128,-1,2
 287 125 287 125 307 125 c 0,3,4
 424 125 424 125 480.5 184 c 128,-1,5
 537 243 537 243 537 347 c 0,6,7
 537 456 537 456 483 512 c 128,-1,8
 429 568 429 568 312 568 c 0,9,10
 296 568 296 568 279 567.5 c 128,-1,11
 262 567 262 567 247 565 c 1,12,-1
 247 417 l 1,13,-1
 373 417 l 1,14,-1
 373 302 l 1,15,-1
 247 302 l 1,16,-1
 247 127 l 1,0,1
698 347 m 0,17,18
 698 257 698 257 670 190 c 128,-1,19
 642 123 642 123 590.5 79 c 128,-1,20
 539 35 539 35 465 13 c 128,-1,21
 391 -9 391 -9 299 -9 c 0,22,23
 257 -9 257 -9 201 -5.5 c 128,-1,24
 145 -2 145 -2 91 9 c 1,25,-1
 91 302 l 1,26,-1
 10 302 l 1,27,-1
 10 417 l 1,28,-1
 91 417 l 1,29,-1
 91 684 l 1,30,31
 145 694 145 694 203.5 697.5 c 128,-1,32
 262 701 262 701 304 701 c 0,33,34
 393 701 393 701 465.5 681 c 128,-1,35
 538 661 538 661 590 618 c 128,-1,36
 642 575 642 575 670 508 c 128,-1,37
 698 441 698 441 698 347 c 0,17,18
EndSplineSet
EndChar

StartChar: multiply
Encoding: 215 215 178
Width: 568
Flags: W
LayerCount: 2
Fore
SplineSet
420 522 m 1,0,-1
 507 435 l 1,1,-1
 371 299 l 1,2,-1
 507 164 l 1,3,-1
 420 77 l 1,4,-1
 284 213 l 1,5,-1
 149 77 l 1,6,-1
 62 164 l 1,7,-1
 198 299 l 1,8,-1
 62 435 l 1,9,-1
 149 522 l 1,10,-1
 284 386 l 1,11,-1
 420 522 l 1,0,-1
EndSplineSet
EndChar

StartChar: Oslash
Encoding: 216 216 179
Width: 790
Flags: W
LayerCount: 2
Fore
SplineSet
740 347 m 0,0,1
 740 258 740 258 713.5 190.5 c 128,-1,2
 687 123 687 123 641 77.5 c 128,-1,3
 595 32 595 32 531.5 9 c 128,-1,4
 468 -14 468 -14 395 -14 c 0,5,6
 345 -14 345 -14 299.5 -3.5 c 128,-1,7
 254 7 254 7 215 30 c 1,8,-1
 157 -45 l 1,9,-1
 72 18 l 1,10,-1
 133 96 l 1,11,12
 94 141 94 141 72 203.5 c 128,-1,13
 50 266 50 266 50 347 c 0,14,15
 50 436 50 436 78 503.5 c 128,-1,16
 106 571 106 571 153.5 617 c 128,-1,17
 201 663 201 663 263.5 686 c 128,-1,18
 326 709 326 709 395 709 c 0,19,20
 494 709 494 709 573 665 c 1,21,-1
 629 738 l 1,22,-1
 714 675 l 1,23,-1
 655 599 l 1,24,25
 695 554 695 554 717.5 491 c 128,-1,26
 740 428 740 428 740 347 c 0,0,1
579 347 m 0,27,28
 579 419 579 419 555 470 c 1,29,-1
 304 145 l 1,30,31
 345 123 345 123 395 123 c 0,32,33
 438 123 438 123 472.5 139 c 128,-1,34
 507 155 507 155 530.5 184.5 c 128,-1,35
 554 214 554 214 566.5 255 c 128,-1,36
 579 296 579 296 579 347 c 0,27,28
211 347 m 0,37,38
 211 278 211 278 234 227 c 1,39,-1
 484 550 l 1,40,41
 445 572 445 572 395 572 c 0,42,43
 351 572 351 572 317 555.5 c 128,-1,44
 283 539 283 539 259.5 509.5 c 128,-1,45
 236 480 236 480 223.5 438.5 c 128,-1,46
 211 397 211 397 211 347 c 0,37,38
EndSplineSet
EndChar

StartChar: Thorn
Encoding: 222 222 185
Width: 644
Flags: W
LayerCount: 2
Fore
SplineSet
308 596 m 0,0,1
 374 596 374 596 429.5 583.5 c 128,-1,2
 485 571 485 571 525 543 c 128,-1,3
 565 515 565 515 587 471 c 128,-1,4
 609 427 609 427 609 364 c 0,5,6
 609 239 609 239 525 183.5 c 128,-1,7
 441 128 441 128 285 128 c 2,8,-1
 236 128 l 1,9,-1
 236 0 l 1,10,-1
 80 0 l 1,11,-1
 80 693 l 1,12,-1
 236 693 l 1,13,-1
 236 593 l 1,14,15
 243 594 243 594 253 594.5 c 128,-1,16
 263 595 263 595 273 595.5 c 128,-1,17
 283 596 283 596 292.5 596 c 128,-1,18
 302 596 302 596 308 596 c 0,0,1
298 464 m 0,19,20
 281 464 281 464 264.5 463 c 128,-1,21
 248 462 248 462 236 461 c 1,22,-1
 236 261 l 1,23,-1
 285 261 l 2,24,25
 366 261 366 261 407 283 c 128,-1,26
 448 305 448 305 448 365 c 0,27,28
 448 394 448 394 437.5 413 c 128,-1,29
 427 432 427 432 407.5 443.5 c 128,-1,30
 388 455 388 455 360 459.5 c 128,-1,31
 332 464 332 464 298 464 c 0,19,20
EndSplineSet
EndChar

StartChar: germandbls
Encoding: 223 223 186
Width: 659
Flags: W
LayerCount: 2
Fore
SplineSet
528 610 m 0,0,1
 528 568 528 568 519.5 543 c 128,-1,2
 511 518 511 518 491 495 c 0,3,4
 469 469 469 469 451.5 447 c 128,-1,5
 434 425 434 425 434 397 c 0,6,7
 434 382 434 382 442 371 c 128,-1,8
 450 360 450 360 463 350 c 128,-1,9
 476 340 476 340 493.5 330 c 128,-1,10
 511 320 511 320 531 309 c 0,11,12
 567 288 567 288 594 254 c 128,-1,13
 621 220 621 220 621 166 c 0,14,15
 621 80 621 80 572 34 c 128,-1,16
 523 -12 523 -12 410 -12 c 0,17,18
 355 -12 355 -12 322 -2 c 128,-1,19
 289 8 289 8 269 16 c 1,20,-1
 294 136 l 1,21,22
 304 132 304 132 318 127.5 c 128,-1,23
 332 123 332 123 347 119 c 128,-1,24
 362 115 362 115 377.5 112.5 c 128,-1,25
 393 110 393 110 407 110 c 0,26,27
 474 110 474 110 474 164 c 0,28,29
 474 190 474 190 447 210.5 c 128,-1,30
 420 231 420 231 378 250 c 0,31,32
 349 263 349 263 331.5 278 c 128,-1,33
 314 293 314 293 305 309.5 c 128,-1,34
 296 326 296 326 293 343 c 128,-1,35
 290 360 290 360 290 378 c 0,36,37
 290 420 290 420 309 448.5 c 128,-1,38
 328 477 328 477 354 507 c 0,39,40
 371 527 371 527 380 544 c 128,-1,41
 389 561 389 561 389 587 c 0,42,43
 389 620 389 620 368 636 c 128,-1,44
 347 652 347 652 311 652 c 0,45,46
 263 652 263 652 239.5 622 c 128,-1,47
 216 592 216 592 216 536 c 2,48,-1
 216 0 l 1,49,-1
 70 0 l 1,50,-1
 70 533 l 2,51,52
 70 586 70 586 84 630.5 c 128,-1,53
 98 675 98 675 127.5 707.5 c 128,-1,54
 157 740 157 740 201.5 758 c 128,-1,55
 246 776 246 776 307 776 c 0,56,57
 365 776 365 776 407 762.5 c 128,-1,58
 449 749 449 749 476 726.5 c 128,-1,59
 503 704 503 704 515.5 673.5 c 128,-1,60
 528 643 528 643 528 610 c 0,0,1
EndSplineSet
EndChar

StartChar: ae
Encoding: 230 230 193
Width: 874
Flags: W
LayerCount: 2
Fore
SplineSet
259 540 m 0,0,1
 290 540 290 540 315 536 c 128,-1,2
 340 532 340 532 359.5 523.5 c 128,-1,3
 379 515 379 515 395 501.5 c 128,-1,4
 411 488 411 488 425 469 c 1,5,6
 459 507 459 507 502 523.5 c 128,-1,7
 545 540 545 540 594 540 c 0,8,9
 648 540 648 540 691 522.5 c 128,-1,10
 734 505 734 505 765 471 c 128,-1,11
 796 437 796 437 812.5 386.5 c 128,-1,12
 829 336 829 336 829 270 c 0,13,14
 829 257 829 257 828 241.5 c 128,-1,15
 827 226 827 226 826 214 c 1,16,-1
 488 214 l 1,17,18
 493 168 493 168 531 141 c 128,-1,19
 569 114 569 114 633 114 c 0,20,21
 674 114 674 114 713.5 121.5 c 128,-1,22
 753 129 753 129 778 140 c 1,23,-1
 798 19 l 1,24,25
 786 13 786 13 766 7 c 128,-1,26
 746 1 746 1 721.5 -3.5 c 128,-1,27
 697 -8 697 -8 669 -11 c 128,-1,28
 641 -14 641 -14 613 -14 c 0,29,30
 554 -14 554 -14 510 -1 c 128,-1,31
 466 12 466 12 435 33 c 1,32,33
 360 -11 360 -11 261 -11 c 0,34,35
 210 -11 210 -11 168.5 -2 c 128,-1,36
 127 7 127 7 97 27.5 c 128,-1,37
 67 48 67 48 51 81 c 128,-1,38
 35 114 35 114 35 162 c 0,39,40
 35 208 35 208 53.5 240 c 128,-1,41
 72 272 72 272 103 291 c 128,-1,42
 134 310 134 310 174 318.5 c 128,-1,43
 214 327 214 327 257 327 c 0,44,45
 286 327 286 327 308.5 324.5 c 128,-1,46
 331 322 331 322 345 318 c 1,47,-1
 345 335 l 2,48,49
 345 373 345 373 322 394.5 c 128,-1,50
 299 416 299 416 242 416 c 0,51,52
 204 416 204 416 167 410.5 c 128,-1,53
 130 405 130 405 103 395 c 1,54,-1
 84 515 l 1,55,56
 97 519 97 519 116.5 523.5 c 128,-1,57
 136 528 136 528 159 531.5 c 128,-1,58
 182 535 182 535 207.5 537.5 c 128,-1,59
 233 540 233 540 259 540 c 0,0,1
271 104 m 0,60,61
 302 104 302 104 327.5 107.5 c 128,-1,62
 353 111 353 111 372 119 c 1,63,64
 358 155 358 155 353 177.5 c 128,-1,65
 348 200 348 200 347 223 c 1,66,67
 333 225 333 225 314 226 c 128,-1,68
 295 227 295 227 285 227 c 0,69,70
 264 227 264 227 245.5 224.5 c 128,-1,71
 227 222 227 222 213 215 c 128,-1,72
 199 208 199 208 191 196 c 128,-1,73
 183 184 183 184 183 166 c 0,74,75
 183 131 183 131 206.5 117.5 c 128,-1,76
 230 104 230 104 271 104 c 0,60,61
684 316 m 1,77,78
 683 335 683 335 677.5 353 c 128,-1,79
 672 371 672 371 660.5 385 c 128,-1,80
 649 399 649 399 631.5 408 c 128,-1,81
 614 417 614 417 588 417 c 0,82,83
 563 417 563 417 545 408.5 c 128,-1,84
 527 400 527 400 515 386 c 128,-1,85
 503 372 503 372 496.5 353.5 c 128,-1,86
 490 335 490 335 487 316 c 1,87,-1
 684 316 l 1,77,78
EndSplineSet
Substitution2: "'case' Case-Sensitive Forms lookup 19 subtable" AE
EndChar

StartChar: ccedilla
Encoding: 231 231 194
Width: 500
Flags: W
LayerCount: 2
Fore
SplineSet
328 -40 m 1,0,1
 360 -56 360 -56 372 -78 c 128,-1,2
 384 -100 384 -100 384 -123 c 0,3,4
 384 -171 384 -171 346 -196 c 128,-1,5
 308 -221 308 -221 246 -221 c 0,6,7
 224 -221 224 -221 202 -217.5 c 128,-1,8
 180 -214 180 -214 158 -208 c 1,9,-1
 176 -121 l 1,10,11
 183 -123 183 -123 201.5 -127.5 c 128,-1,12
 220 -132 220 -132 238 -132 c 0,13,14
 252 -132 252 -132 262.5 -126.5 c 128,-1,15
 273 -121 273 -121 274 -107 c 0,16,17
 275 -95 275 -95 264.5 -85 c 128,-1,18
 254 -75 254 -75 231 -70 c 2,19,-1
 219 -67 l 1,20,21
 223 -54 223 -54 230 -37.5 c 128,-1,22
 237 -21 237 -21 244 -7 c 1,23,24
 192 3 192 3 154.5 27.5 c 128,-1,25
 117 52 117 52 92.5 87.5 c 128,-1,26
 68 123 68 123 56.5 168 c 128,-1,27
 45 213 45 213 45 263 c 0,28,29
 45 320 45 320 63.5 370.5 c 128,-1,30
 82 421 82 421 117 458.5 c 128,-1,31
 152 496 152 496 202 518 c 128,-1,32
 252 540 252 540 316 540 c 0,33,34
 358 540 358 540 393 532.5 c 128,-1,35
 428 525 428 525 461 511 c 1,36,-1
 430 392 l 1,37,38
 409 400 409 400 384 406 c 128,-1,39
 359 412 359 412 328 412 c 0,40,41
 262 412 262 412 229.5 371 c 128,-1,42
 197 330 197 330 197 263 c 0,43,44
 197 192 197 192 227.5 153 c 128,-1,45
 258 114 258 114 334 114 c 0,46,47
 361 114 361 114 392 119 c 128,-1,48
 423 124 423 124 449 135 c 1,49,-1
 470 13 l 1,50,51
 447 3 447 3 413.5 -4 c 128,-1,52
 380 -11 380 -11 340 -13 c 1,53,54
 336 -21 336 -21 333 -28 c 128,-1,55
 330 -35 330 -35 328 -40 c 1,0,1
EndSplineSet
Substitution2: "'case' Case-Sensitive Forms lookup 19 subtable" Ccedilla
EndChar

StartChar: eth
Encoding: 240 240 203
Width: 601
Flags: W
LayerCount: 2
Fore
SplineSet
483 603 m 1,0,1
 518 543 518 543 538 473 c 128,-1,2
 558 403 558 403 558 324 c 0,3,4
 558 249 558 249 542.5 187 c 128,-1,5
 527 125 527 125 495 80.5 c 128,-1,6
 463 36 463 36 413.5 11 c 128,-1,7
 364 -14 364 -14 296 -14 c 0,8,9
 233 -14 233 -14 186 6 c 128,-1,10
 139 26 139 26 107.5 59.5 c 128,-1,11
 76 93 76 93 60.5 138 c 128,-1,12
 45 183 45 183 45 234 c 0,13,14
 45 289 45 289 60.5 335 c 128,-1,15
 76 381 76 381 107 413 c 128,-1,16
 138 445 138 445 185 463 c 128,-1,17
 232 481 232 481 295 481 c 0,18,19
 321 481 321 481 349.5 473.5 c 128,-1,20
 378 466 378 466 398 456 c 1,21,22
 386 509 386 509 355 559 c 1,23,-1
 244 522 l 1,24,-1
 215 606 l 1,25,-1
 295 633 l 1,26,27
 278 650 278 650 259 665 c 128,-1,28
 240 680 240 680 220 694 c 1,29,-1
 303 780 l 1,30,31
 338 760 338 760 369.5 734.5 c 128,-1,32
 401 709 401 709 428 678 c 1,33,-1
 543 717 l 1,34,-1
 572 633 l 1,35,-1
 483 603 l 1,0,1
406 313 m 0,36,37
 406 315 406 315 406 319.5 c 128,-1,38
 406 324 406 324 405 329 c 1,39,40
 380 349 380 349 354.5 355.5 c 128,-1,41
 329 362 329 362 305 362 c 0,42,43
 273 362 273 362 252 352 c 128,-1,44
 231 342 231 342 218 325 c 128,-1,45
 205 308 205 308 200 285 c 128,-1,46
 195 262 195 262 195 236 c 0,47,48
 195 182 195 182 219.5 148.5 c 128,-1,49
 244 115 244 115 296 115 c 0,50,51
 329 115 329 115 350.5 131.5 c 128,-1,52
 372 148 372 148 384.5 175.5 c 128,-1,53
 397 203 397 203 401.5 239 c 128,-1,54
 406 275 406 275 406 313 c 0,36,37
EndSplineSet
Substitution2: "'case' Case-Sensitive Forms lookup 19 subtable" Eth
EndChar

StartChar: divide
Encoding: 247 247 210
Width: 568
Flags: W
LayerCount: 2
Fore
SplineSet
370 501 m 256,0,1
 370 459 370 459 344 438 c 128,-1,2
 318 417 318 417 285 417 c 256,3,4
 252 417 252 417 226 438 c 128,-1,5
 200 459 200 459 200 501 c 256,6,7
 200 543 200 543 226 564 c 128,-1,8
 252 585 252 585 285 585 c 256,9,10
 318 585 318 585 344 564 c 128,-1,11
 370 543 370 543 370 501 c 256,0,1
370 96 m 256,12,13
 370 54 370 54 344 33 c 128,-1,14
 318 12 318 12 285 12 c 256,15,16
 252 12 252 12 226 33 c 128,-1,17
 200 54 200 54 200 96 c 256,18,19
 200 138 200 138 226 159 c 128,-1,20
 252 180 252 180 285 180 c 256,21,22
 318 180 318 180 344 159 c 128,-1,23
 370 138 370 138 370 96 c 256,12,13
49 361 m 1,24,-1
 519 361 l 1,25,-1
 519 236 l 1,26,-1
 49 236 l 1,27,-1
 49 361 l 1,24,-1
EndSplineSet
EndChar

StartChar: oslash
Encoding: 248 248 211
Width: 607
Flags: W
LayerCount: 2
Fore
SplineSet
562 264 m 0,0,1
 562 202 562 202 544 150.5 c 128,-1,2
 526 99 526 99 492 62.5 c 128,-1,3
 458 26 458 26 410.5 6 c 128,-1,4
 363 -14 363 -14 304 -14 c 0,5,6
 229 -14 229 -14 170 20 c 1,7,-1
 125 -39 l 1,8,-1
 55 14 l 1,9,-1
 104 77 l 1,10,11
 75 113 75 113 60 160 c 128,-1,12
 45 207 45 207 45 264 c 0,13,14
 45 326 45 326 64.5 377 c 128,-1,15
 84 428 84 428 118.5 464 c 128,-1,16
 153 500 153 500 200.5 520 c 128,-1,17
 248 540 248 540 304 540 c 0,18,19
 341 540 341 540 374 531.5 c 128,-1,20
 407 523 407 523 435 507 c 1,21,-1
 481 566 l 1,22,-1
 551 513 l 1,23,-1
 502 450 l 1,24,25
 531 415 531 415 546.5 368 c 128,-1,26
 562 321 562 321 562 264 c 0,0,1
418 264 m 0,27,28
 418 298 418 298 410 330 c 1,29,-1
 249 121 l 1,30,31
 273 106 273 106 304 106 c 0,32,33
 358 106 358 106 388 148.5 c 128,-1,34
 418 191 418 191 418 264 c 0,27,28
189 264 m 0,35,36
 189 245 189 245 190.5 228.5 c 128,-1,37
 192 212 192 212 197 198 c 1,38,-1
 357 406 l 1,39,40
 334 420 334 420 304 420 c 0,41,42
 250 420 250 420 219.5 378.5 c 128,-1,43
 189 337 189 337 189 264 c 0,35,36
EndSplineSet
Substitution2: "'case' Case-Sensitive Forms lookup 19 subtable" Oslash
EndChar

StartChar: thorn
Encoding: 254 254 217
Width: 604
Flags: W
LayerCount: 2
Fore
SplineSet
559 263 m 0,0,1
 559 202 559 202 544 152 c 128,-1,2
 529 102 529 102 500 66 c 128,-1,3
 471 30 471 30 428 10 c 128,-1,4
 385 -10 385 -10 329 -10 c 0,5,6
 298 -10 298 -10 271 -4 c 128,-1,7
 244 2 244 2 219 13 c 1,8,-1
 219 -185 l 1,9,-1
 70 -185 l 1,10,-1
 70 752 l 1,11,-1
 219 776 l 1,12,-1
 219 528 l 1,13,14
 236 533 236 533 257 535.5 c 128,-1,15
 278 538 278 538 294 538 c 0,16,17
 355 538 355 538 404 518.5 c 128,-1,18
 453 499 453 499 487.5 463.5 c 128,-1,19
 522 428 522 428 540.5 377 c 128,-1,20
 559 326 559 326 559 263 c 0,0,1
407 259 m 0,21,22
 407 328 407 328 376.5 369.5 c 128,-1,23
 346 411 346 411 289 411 c 0,24,25
 269 411 269 411 249.5 408.5 c 128,-1,26
 230 406 230 406 219 402 c 1,27,-1
 219 137 l 1,28,29
 233 128 233 128 255.5 122 c 128,-1,30
 278 116 278 116 301 116 c 0,31,32
 407 116 407 116 407 259 c 0,21,22
EndSplineSet
Substitution2: "'case' Case-Sensitive Forms lookup 19 subtable" Thorn
EndChar

StartChar: Aogonek
Encoding: 260 260 223
Width: 721
Flags: W
LayerCount: 2
Fore
SplineSet
632 -221 m 0,0,1
 565 -221 565 -221 536 -196 c 128,-1,2
 507 -171 507 -171 507 -130 c 0,3,4
 507 -109 507 -109 516 -89 c 128,-1,5
 525 -69 525 -69 540 -50 c 0,6,7
 552 -35 552 -35 565.5 -22.5 c 128,-1,8
 579 -10 579 -10 592 0 c 1,9,-1
 544 0 l 1,10,11
 533 36 533 36 519.5 74 c 128,-1,12
 506 112 506 112 493 150 c 1,13,-1
 223 150 l 1,14,15
 210 112 210 112 196.5 74 c 128,-1,16
 183 36 183 36 172 0 c 1,17,-1
 10 0 l 1,18,19
 49 112 49 112 84 207 c 128,-1,20
 119 302 119 302 152.5 386 c 128,-1,21
 186 470 186 470 218.5 545.5 c 128,-1,22
 251 621 251 621 286 693 c 1,23,-1
 435 693 l 1,24,25
 469 622 469 622 501.5 547.5 c 128,-1,26
 534 473 534 473 567.5 389.5 c 128,-1,27
 601 306 601 306 636 210 c 128,-1,28
 671 114 671 114 711 0 c 1,29,30
 700 -8 700 -8 688.5 -19 c 128,-1,31
 677 -30 677 -30 666 -41 c 0,32,33
 653 -54 653 -54 645.5 -65.5 c 128,-1,34
 638 -77 638 -77 638 -88 c 256,35,36
 638 -99 638 -99 644.5 -106 c 128,-1,37
 651 -113 651 -113 668 -113 c 0,38,39
 677 -113 677 -113 689.5 -111.5 c 128,-1,40
 702 -110 702 -110 719 -105 c 1,41,-1
 731 -205 l 1,42,43
 711 -213 711 -213 683 -217 c 128,-1,44
 655 -221 655 -221 632 -221 c 0,0,1
357 536 m 1,45,46
 352 521 352 521 342 495 c 128,-1,47
 332 469 332 469 319 435 c 128,-1,48
 306 401 306 401 290.5 360 c 128,-1,49
 275 319 275 319 259 274 c 1,50,-1
 456 274 l 1,51,52
 440 319 440 319 425 360 c 128,-1,53
 410 401 410 401 396.5 435 c 128,-1,54
 383 469 383 469 373 495 c 128,-1,55
 363 521 363 521 357 536 c 1,45,46
EndSplineSet
EndChar

StartChar: aogonek
Encoding: 261 261 224
Width: 553
Flags: W
LayerCount: 2
Fore
SplineSet
271 104 m 0,0,1
 293 104 293 104 313 105 c 128,-1,2
 333 106 333 106 345 108 c 1,3,-1
 345 221 l 1,4,5
 336 223 336 223 318 225 c 128,-1,6
 300 227 300 227 285 227 c 0,7,8
 264 227 264 227 245.5 224.5 c 128,-1,9
 227 222 227 222 213 215 c 128,-1,10
 199 208 199 208 191 196 c 128,-1,11
 183 184 183 184 183 166 c 0,12,13
 183 131 183 131 206.5 117.5 c 128,-1,14
 230 104 230 104 271 104 c 0,0,1
259 540 m 0,15,16
 325 540 325 540 369 525 c 128,-1,17
 413 510 413 510 439.5 482 c 128,-1,18
 466 454 466 454 477 414 c 128,-1,19
 488 374 488 374 488 325 c 2,20,-1
 488 15 l 1,21,22
 478 7 478 7 460 -8.5 c 128,-1,23
 442 -24 442 -24 425 -41 c 0,24,25
 412 -54 412 -54 404.5 -65.5 c 128,-1,26
 397 -77 397 -77 397 -88 c 256,27,28
 397 -99 397 -99 403.5 -106 c 128,-1,29
 410 -113 410 -113 427 -113 c 0,30,31
 436 -113 436 -113 448.5 -111.5 c 128,-1,32
 461 -110 461 -110 478 -105 c 1,33,-1
 490 -205 l 1,34,35
 470 -213 470 -213 442 -217 c 128,-1,36
 414 -221 414 -221 391 -221 c 0,37,38
 324 -221 324 -221 295 -196 c 128,-1,39
 266 -171 266 -171 266 -130 c 0,40,41
 266 -109 266 -109 275 -89 c 128,-1,42
 284 -69 284 -69 299 -50 c 0,43,44
 317 -27 317 -27 340 -8 c 1,45,46
 323 -10 323 -10 302 -10.5 c 128,-1,47
 281 -11 281 -11 261 -11 c 0,48,49
 210 -11 210 -11 168.5 -2 c 128,-1,50
 127 7 127 7 97 27.5 c 128,-1,51
 67 48 67 48 51 81 c 128,-1,52
 35 114 35 114 35 162 c 0,53,54
 35 208 35 208 53.5 240 c 128,-1,55
 72 272 72 272 103 291 c 128,-1,56
 134 310 134 310 174 318.5 c 128,-1,57
 214 327 214 327 257 327 c 0,58,59
 286 327 286 327 308.5 324.5 c 128,-1,60
 331 322 331 322 345 318 c 1,61,-1
 345 332 l 2,62,63
 345 370 345 370 322 393 c 128,-1,64
 299 416 299 416 242 416 c 0,65,66
 204 416 204 416 167 410.5 c 128,-1,67
 130 405 130 405 103 395 c 1,68,-1
 84 515 l 1,69,70
 97 519 97 519 116.5 523.5 c 128,-1,71
 136 528 136 528 159 531.5 c 128,-1,72
 182 535 182 535 207.5 537.5 c 128,-1,73
 233 540 233 540 259 540 c 0,15,16
EndSplineSet
Substitution2: "'case' Case-Sensitive Forms lookup 19 subtable" Aogonek
EndChar

StartChar: dcroat
Encoding: 273 273 236
Width: 606
Flags: W
LayerCount: 2
Fore
SplineSet
534 689 m 1,0,-1
 596 689 l 1,1,-1
 596 596 l 1,2,-1
 534 596 l 1,3,-1
 534 17 l 1,4,5
 514 11 514 11 488 5.5 c 128,-1,6
 462 0 462 0 433.5 -4 c 128,-1,7
 405 -8 405 -8 375.5 -10.5 c 128,-1,8
 346 -13 346 -13 319 -13 c 0,9,10
 254 -13 254 -13 203 6 c 128,-1,11
 152 25 152 25 117 60 c 128,-1,12
 82 95 82 95 63.5 144 c 128,-1,13
 45 193 45 193 45 253 c 0,14,15
 45 314 45 314 61 363.5 c 128,-1,16
 77 413 77 413 107 448.5 c 128,-1,17
 137 484 137 484 180.5 503.5 c 128,-1,18
 224 523 224 523 280 523 c 0,19,20
 311 523 311 523 335.5 517 c 128,-1,21
 360 511 360 511 385 500 c 1,22,-1
 385 596 l 1,23,-1
 242 596 l 1,24,-1
 242 689 l 1,25,-1
 385 689 l 1,26,-1
 385 752 l 1,27,-1
 534 776 l 1,28,-1
 534 689 l 1,0,-1
197 260 m 0,29,30
 197 197 197 197 228.5 155.5 c 128,-1,31
 260 114 260 114 320 114 c 0,32,33
 360 114 360 114 385 119 c 1,34,-1
 385 376 l 1,35,36
 371 385 371 385 348.5 391 c 128,-1,37
 326 397 326 397 303 397 c 0,38,39
 249 397 249 397 223 361.5 c 128,-1,40
 197 326 197 326 197 260 c 0,29,30
EndSplineSet
Substitution2: "'case' Case-Sensitive Forms lookup 19 subtable" Dcroat
EndChar

StartChar: Eogonek
Encoding: 280 280 243
Width: 606
Flags: W
LayerCount: 2
Fore
SplineSet
492 -221 m 0,0,1
 425 -221 425 -221 396 -196 c 128,-1,2
 367 -171 367 -171 367 -130 c 0,3,4
 367 -109 367 -109 376 -89 c 128,-1,5
 385 -69 385 -69 400 -50 c 0,6,7
 412 -35 412 -35 425.5 -22.5 c 128,-1,8
 439 -10 439 -10 452 0 c 1,9,-1
 80 0 l 1,10,-1
 80 693 l 1,11,-1
 548 693 l 1,12,-1
 548 562 l 1,13,-1
 236 562 l 1,14,-1
 236 426 l 1,15,-1
 513 426 l 1,16,-1
 513 298 l 1,17,-1
 236 298 l 1,18,-1
 236 131 l 1,19,-1
 571 131 l 1,20,-1
 571 0 l 1,21,22
 561 -8 561 -8 549 -19 c 128,-1,23
 537 -30 537 -30 526 -41 c 0,24,25
 513 -54 513 -54 505.5 -65.5 c 128,-1,26
 498 -77 498 -77 498 -88 c 256,27,28
 498 -99 498 -99 504.5 -106 c 128,-1,29
 511 -113 511 -113 528 -113 c 0,30,31
 537 -113 537 -113 549.5 -111.5 c 128,-1,32
 562 -110 562 -110 579 -105 c 1,33,-1
 591 -205 l 1,34,35
 571 -213 571 -213 543 -217 c 128,-1,36
 515 -221 515 -221 492 -221 c 0,0,1
EndSplineSet
EndChar

StartChar: eogonek
Encoding: 281 281 244
Width: 584
Flags: W
LayerCount: 2
Fore
SplineSet
402 -221 m 0,0,1
 335 -221 335 -221 306 -196 c 128,-1,2
 277 -171 277 -171 277 -130 c 0,3,4
 277 -109 277 -109 286 -89 c 128,-1,5
 295 -69 295 -69 310 -50 c 0,6,7
 318 -39 318 -39 327 -30.5 c 128,-1,8
 336 -22 336 -22 345 -14 c 1,9,-1
 323 -14 l 2,10,11
 252 -14 252 -14 199.5 7 c 128,-1,12
 147 28 147 28 112.5 64.5 c 128,-1,13
 78 101 78 101 61.5 151 c 128,-1,14
 45 201 45 201 45 259 c 0,15,16
 45 329 45 329 66.5 381.5 c 128,-1,17
 88 434 88 434 123 469 c 128,-1,18
 158 504 158 504 203.5 522 c 128,-1,19
 249 540 249 540 297 540 c 0,20,21
 409 540 409 540 474 471.5 c 128,-1,22
 539 403 539 403 539 270 c 0,23,24
 539 257 539 257 538 241.5 c 128,-1,25
 537 226 537 226 536 214 c 1,26,-1
 198 214 l 1,27,28
 203 168 203 168 241 141 c 128,-1,29
 279 114 279 114 343 114 c 0,30,31
 384 114 384 114 423.5 121.5 c 128,-1,32
 463 129 463 129 488 140 c 1,33,-1
 508 19 l 1,34,35
 493 9 493 9 472.5 -7.5 c 128,-1,36
 452 -24 452 -24 436 -41 c 0,37,38
 423 -54 423 -54 415.5 -65.5 c 128,-1,39
 408 -77 408 -77 408 -88 c 256,40,41
 408 -99 408 -99 414.5 -106 c 128,-1,42
 421 -113 421 -113 438 -113 c 0,43,44
 447 -113 447 -113 459.5 -111.5 c 128,-1,45
 472 -110 472 -110 489 -105 c 1,46,-1
 501 -205 l 1,47,48
 481 -213 481 -213 453 -217 c 128,-1,49
 425 -221 425 -221 402 -221 c 0,0,1
395 316 m 1,50,51
 394 335 394 335 388.5 353 c 128,-1,52
 383 371 383 371 371.5 385 c 128,-1,53
 360 399 360 399 342.5 408 c 128,-1,54
 325 417 325 417 299 417 c 0,55,56
 274 417 274 417 256 408.5 c 128,-1,57
 238 400 238 400 226 386 c 128,-1,58
 214 372 214 372 207.5 353.5 c 128,-1,59
 201 335 201 335 198 316 c 1,60,-1
 395 316 l 1,50,51
EndSplineSet
Substitution2: "'case' Case-Sensitive Forms lookup 19 subtable" Eogonek
EndChar

StartChar: Hbar
Encoding: 294 294 257
Width: 756
Flags: W
LayerCount: 2
Fore
SplineSet
10 612 m 1,0,-1
 91 612 l 1,1,-1
 91 693 l 1,2,-1
 247 693 l 1,3,-1
 247 612 l 1,4,-1
 509 612 l 1,5,-1
 509 693 l 1,6,-1
 665 693 l 1,7,-1
 665 612 l 1,8,-1
 746 612 l 1,9,-1
 746 502 l 1,10,-1
 665 502 l 1,11,-1
 665 0 l 1,12,-1
 509 0 l 1,13,-1
 509 284 l 1,14,-1
 247 284 l 1,15,-1
 247 0 l 1,16,-1
 91 0 l 1,17,-1
 91 502 l 1,18,-1
 10 502 l 1,19,-1
 10 612 l 1,0,-1
509 502 m 1,20,-1
 247 502 l 1,21,-1
 247 418 l 1,22,-1
 509 418 l 1,23,-1
 509 502 l 1,20,-1
EndSplineSet
EndChar

StartChar: hbar
Encoding: 295 295 258
Width: 599
Flags: W
LayerCount: 2
Fore
SplineSet
18 689 m 1,0,-1
 80 689 l 1,1,-1
 80 752 l 1,2,-1
 229 776 l 1,3,-1
 229 689 l 1,4,-1
 372 689 l 1,5,-1
 372 596 l 1,6,-1
 229 596 l 1,7,-1
 229 509 l 1,8,9
 244 514 244 514 267.5 518.5 c 128,-1,10
 291 523 291 523 313 523 c 0,11,12
 377 523 377 523 419.5 505.5 c 128,-1,13
 462 488 462 488 487.5 456 c 128,-1,14
 513 424 513 424 523.5 380 c 128,-1,15
 534 336 534 336 534 282 c 2,16,-1
 534 0 l 1,17,-1
 385 0 l 1,18,-1
 385 264 l 2,19,20
 385 336 385 336 366.5 366 c 128,-1,21
 348 396 348 396 298 396 c 0,22,23
 278 396 278 396 260.5 392.5 c 128,-1,24
 243 389 243 389 229 385 c 1,25,-1
 229 0 l 1,26,-1
 80 0 l 1,27,-1
 80 596 l 1,28,-1
 18 596 l 1,29,-1
 18 689 l 1,0,-1
EndSplineSet
Substitution2: "'case' Case-Sensitive Forms lookup 19 subtable" Hbar
EndChar

StartChar: Iogonek
Encoding: 302 302 265
Width: 316
Flags: W
LayerCount: 2
Fore
SplineSet
80 693 m 1,0,-1
 236 693 l 1,1,-1
 236 0 l 1,2,3
 226 -8 226 -8 214 -19 c 128,-1,4
 202 -30 202 -30 191 -41 c 0,5,6
 178 -54 178 -54 170.5 -65.5 c 128,-1,7
 163 -77 163 -77 163 -88 c 256,8,9
 163 -99 163 -99 169.5 -106 c 128,-1,10
 176 -113 176 -113 193 -113 c 0,11,12
 202 -113 202 -113 214.5 -111.5 c 128,-1,13
 227 -110 227 -110 244 -105 c 1,14,-1
 256 -205 l 1,15,16
 236 -213 236 -213 208 -217 c 128,-1,17
 180 -221 180 -221 157 -221 c 0,18,19
 90 -221 90 -221 61 -196 c 128,-1,20
 32 -171 32 -171 32 -130 c 0,21,22
 32 -109 32 -109 41 -89 c 128,-1,23
 50 -69 50 -69 65 -50 c 0,24,25
 77 -35 77 -35 90.5 -22.5 c 128,-1,26
 104 -10 104 -10 117 0 c 1,27,-1
 80 0 l 1,28,-1
 80 693 l 1,0,-1
EndSplineSet
EndChar

StartChar: iogonek
Encoding: 303 303 266
Width: 289
Flags: W
LayerCount: 2
Fore
SplineSet
140 -221 m 0,0,1
 73 -221 73 -221 44 -196 c 128,-1,2
 15 -171 15 -171 15 -130 c 0,3,4
 15 -109 15 -109 24 -89 c 128,-1,5
 33 -69 33 -69 48 -50 c 0,6,7
 60 -35 60 -35 73.5 -22.5 c 128,-1,8
 87 -10 87 -10 100 0 c 1,9,-1
 70 0 l 1,10,-1
 70 526 l 1,11,-1
 219 526 l 1,12,-1
 219 0 l 1,13,14
 209 -8 209 -8 197 -19 c 128,-1,15
 185 -30 185 -30 174 -41 c 0,16,17
 161 -54 161 -54 153.5 -65.5 c 128,-1,18
 146 -77 146 -77 146 -88 c 256,19,20
 146 -99 146 -99 152.5 -106 c 128,-1,21
 159 -113 159 -113 176 -113 c 0,22,23
 185 -113 185 -113 197.5 -111.5 c 128,-1,24
 210 -110 210 -110 227 -105 c 1,25,-1
 239 -205 l 1,26,27
 219 -213 219 -213 191 -217 c 128,-1,28
 163 -221 163 -221 140 -221 c 0,0,1
233 678 m 256,29,30
 233 637 233 637 206.5 613.5 c 128,-1,31
 180 590 180 590 144 590 c 256,32,33
 108 590 108 590 81.5 613.5 c 128,-1,34
 55 637 55 637 55 678 c 256,35,36
 55 719 55 719 81.5 742.5 c 128,-1,37
 108 766 108 766 144 766 c 256,38,39
 180 766 180 766 206.5 742.5 c 128,-1,40
 233 719 233 719 233 678 c 256,29,30
EndSplineSet
Substitution2: "'case' Case-Sensitive Forms lookup 19 subtable" Iogonek
EndChar

StartChar: dotlessi
Encoding: 305 305 268
Width: 289
Flags: W
LayerCount: 2
Fore
SplineSet
219 0 m 1,0,-1
 70 0 l 1,1,-1
 70 526 l 1,2,-1
 219 526 l 1,3,-1
 219 0 l 1,0,-1
EndSplineSet
EndChar

StartChar: kgreenlandic
Encoding: 312 312 277
Width: 582
Flags: W
LayerCount: 2
Fore
SplineSet
219 329 m 1,0,1
 241 353 241 353 264.5 379.5 c 128,-1,2
 288 406 288 406 310 432.5 c 128,-1,3
 332 459 332 459 352 483 c 128,-1,4
 372 507 372 507 387 526 c 1,5,-1
 564 526 l 1,6,7
 542 499 542 499 514 467 c 128,-1,8
 486 435 486 435 456 403 c 128,-1,9
 426 371 426 371 398 340.5 c 128,-1,10
 370 310 370 310 348 288 c 1,11,12
 378 259 378 259 410.5 223 c 128,-1,13
 443 187 443 187 473 148.5 c 128,-1,14
 503 110 503 110 528.5 71.5 c 128,-1,15
 554 33 554 33 572 0 c 1,16,-1
 401 0 l 1,17,18
 385 26 385 26 364 56.5 c 128,-1,19
 343 87 343 87 319 117 c 128,-1,20
 295 147 295 147 269.5 175 c 128,-1,21
 244 203 244 203 219 224 c 1,22,-1
 219 0 l 1,23,-1
 70 0 l 1,24,-1
 70 526 l 1,25,-1
 219 526 l 1,26,-1
 219 329 l 1,0,1
EndSplineSet
Substitution2: "'case' Case-Sensitive Forms lookup 19 subtable" kgreenlandic.case
EndChar

StartChar: Lslash
Encoding: 321 321 286
Width: 594
Flags: W
LayerCount: 2
Fore
SplineSet
0 324 m 1,0,-1
 111 380 l 1,1,-1
 111 693 l 1,2,-1
 267 693 l 1,3,-1
 267 458 l 1,4,-1
 389 520 l 1,5,-1
 438 419 l 1,6,-1
 267 332 l 1,7,-1
 267 134 l 1,8,-1
 574 134 l 1,9,-1
 574 0 l 1,10,-1
 111 0 l 1,11,-1
 111 254 l 1,12,-1
 49 223 l 1,13,-1
 0 324 l 1,0,-1
EndSplineSet
EndChar

StartChar: lslash
Encoding: 322 322 287
Width: 364
Flags: W
LayerCount: 2
Fore
SplineSet
-10 393 m 1,0,-1
 97 446 l 1,1,-1
 97 752 l 1,2,-1
 246 776 l 1,3,-1
 246 520 l 1,4,-1
 317 556 l 1,5,-1
 362 464 l 1,6,-1
 246 406 l 1,7,-1
 246 203 l 2,8,9
 246 183 246 183 249 167 c 128,-1,10
 252 151 252 151 260.5 140 c 128,-1,11
 269 129 269 129 285 122 c 128,-1,12
 301 115 301 115 328 113 c 1,13,-1
 307 -10 l 1,14,15
 242 -9 242 -9 201.5 4 c 128,-1,16
 161 17 161 17 137.5 40.5 c 128,-1,17
 114 64 114 64 105.5 97.5 c 128,-1,18
 97 131 97 131 97 173 c 2,19,-1
 97 332 l 1,20,-1
 35 301 l 1,21,-1
 -10 393 l 1,0,-1
EndSplineSet
Substitution2: "'case' Case-Sensitive Forms lookup 19 subtable" Lslash
EndChar

StartChar: Eng
Encoding: 330 330 296
Width: 756
Flags: W
LayerCount: 2
Fore
SplineSet
521 42 m 1,0,1
 458 151 458 151 385.5 255.5 c 128,-1,2
 313 360 313 360 234 454 c 1,3,-1
 234 0 l 1,4,-1
 80 0 l 1,5,-1
 80 693 l 1,6,-1
 207 693 l 1,7,8
 240 660 240 660 280 612 c 128,-1,9
 320 564 320 564 361.5 509.5 c 128,-1,10
 403 455 403 455 444 396.5 c 128,-1,11
 485 338 485 338 521 284 c 1,12,-1
 521 693 l 1,13,-1
 676 693 l 1,14,-1
 676 17 l 2,15,16
 676 -87 676 -87 629 -137 c 128,-1,17
 582 -187 582 -187 479 -187 c 0,18,19
 465 -187 465 -187 440.5 -184.5 c 128,-1,20
 416 -182 416 -182 392 -174 c 1,21,-1
 412 -53 l 1,22,23
 427 -58 427 -58 436.5 -59.5 c 128,-1,24
 446 -61 446 -61 465 -61 c 0,25,26
 497 -61 497 -61 509 -40 c 128,-1,27
 521 -19 521 -19 521 21 c 2,28,-1
 521 42 l 1,0,1
EndSplineSet
EndChar

StartChar: eng
Encoding: 331 331 297
Width: 589
Flags: W
LayerCount: 2
Fore
SplineSet
375 279 m 2,0,1
 375 351 375 351 356 381 c 128,-1,2
 337 411 337 411 285 411 c 0,3,4
 269 411 269 411 251 409.5 c 128,-1,5
 233 408 233 408 219 406 c 1,6,-1
 219 0 l 1,7,-1
 70 0 l 1,8,-1
 70 508 l 1,9,10
 108 519 108 519 168 528.5 c 128,-1,11
 228 538 228 538 294 538 c 0,12,13
 361 538 361 538 405.5 520.5 c 128,-1,14
 450 503 450 503 476 471 c 128,-1,15
 502 439 502 439 513 395 c 128,-1,16
 524 351 524 351 524 297 c 2,17,-1
 524 3 l 2,18,19
 524 -93 524 -93 482 -139 c 128,-1,20
 440 -185 440 -185 337 -185 c 0,21,22
 324 -185 324 -185 301.5 -183 c 128,-1,23
 279 -181 279 -181 257 -173 c 1,24,-1
 275 -66 l 1,25,26
 286 -69 286 -69 296.5 -71 c 128,-1,27
 307 -73 307 -73 320 -73 c 0,28,29
 375 -73 375 -73 375 -2 c 2,30,-1
 375 279 l 2,0,1
EndSplineSet
Substitution2: "'case' Case-Sensitive Forms lookup 19 subtable" Eng
EndChar

StartChar: Scedilla
Encoding: 350 350 314
Width: 582
Flags: W
LayerCount: 2
Fore
SplineSet
269 119 m 0,0,1
 302 119 302 119 323.5 124.5 c 128,-1,2
 345 130 345 130 358 139.5 c 128,-1,3
 371 149 371 149 376 162 c 128,-1,4
 381 175 381 175 381 191 c 0,5,6
 381 225 381 225 349 247.5 c 128,-1,7
 317 270 317 270 239 296 c 0,8,9
 205 308 205 308 171 323.5 c 128,-1,10
 137 339 137 339 110 362.5 c 128,-1,11
 83 386 83 386 66 419.5 c 128,-1,12
 49 453 49 453 49 501 c 256,13,14
 49 549 49 549 67 587.5 c 128,-1,15
 85 626 85 626 118 653 c 128,-1,16
 151 680 151 680 198 694.5 c 128,-1,17
 245 709 245 709 304 709 c 0,18,19
 374 709 374 709 425 694 c 128,-1,20
 476 679 476 679 509 661 c 1,21,-1
 464 538 l 1,22,23
 435 553 435 553 399.5 564.5 c 128,-1,24
 364 576 364 576 314 576 c 0,25,26
 258 576 258 576 233.5 560.5 c 128,-1,27
 209 545 209 545 209 513 c 0,28,29
 209 494 209 494 218 481 c 128,-1,30
 227 468 227 468 243.5 457.5 c 128,-1,31
 260 447 260 447 281.5 438.5 c 128,-1,32
 303 430 303 430 329 421 c 0,33,34
 383 401 383 401 423 381.5 c 128,-1,35
 463 362 463 362 489.5 336 c 128,-1,36
 516 310 516 310 529 275 c 128,-1,37
 542 240 542 240 542 190 c 0,38,39
 542 106 542 106 491 54.5 c 128,-1,40
 440 3 440 3 338 -10 c 1,41,42
 329 -26 329 -26 324 -40 c 1,43,44
 356 -56 356 -56 368 -78 c 128,-1,45
 380 -100 380 -100 380 -123 c 0,46,47
 380 -171 380 -171 342 -196 c 128,-1,48
 304 -221 304 -221 242 -221 c 0,49,50
 220 -221 220 -221 198 -217.5 c 128,-1,51
 176 -214 176 -214 154 -208 c 1,52,-1
 172 -121 l 1,53,54
 179 -123 179 -123 197.5 -127.5 c 128,-1,55
 216 -132 216 -132 234 -132 c 0,56,57
 248 -132 248 -132 258.5 -126.5 c 128,-1,58
 269 -121 269 -121 270 -107 c 0,59,60
 271 -95 271 -95 260.5 -85 c 128,-1,61
 250 -75 250 -75 227 -70 c 2,62,-1
 215 -67 l 1,63,64
 219 -56 219 -56 225 -41.5 c 128,-1,65
 231 -27 231 -27 237 -13 c 1,66,67
 159 -9 159 -9 110.5 8 c 128,-1,68
 62 25 62 25 37 39 c 1,69,-1
 81 163 l 1,70,71
 112 146 112 146 157.5 132.5 c 128,-1,72
 203 119 203 119 269 119 c 0,0,1
EndSplineSet
EndChar

StartChar: scedilla
Encoding: 351 351 315
Width: 485
Flags: W
LayerCount: 2
Fore
SplineSet
221 107 m 0,0,1
 262 107 262 107 279 115 c 128,-1,2
 296 123 296 123 296 146 c 0,3,4
 296 164 296 164 274 177.5 c 128,-1,5
 252 191 252 191 207 208 c 0,6,7
 172 221 172 221 143.5 235 c 128,-1,8
 115 249 115 249 95 268.5 c 128,-1,9
 75 288 75 288 64 315 c 128,-1,10
 53 342 53 342 53 380 c 0,11,12
 53 454 53 454 108 497 c 128,-1,13
 163 540 163 540 259 540 c 0,14,15
 307 540 307 540 351 531.5 c 128,-1,16
 395 523 395 523 421 513 c 1,17,-1
 395 397 l 1,18,19
 369 406 369 406 338.5 413 c 128,-1,20
 308 420 308 420 270 420 c 0,21,22
 200 420 200 420 200 381 c 0,23,24
 200 372 200 372 203 365 c 128,-1,25
 206 358 206 358 215 351.5 c 128,-1,26
 224 345 224 345 239.5 337.5 c 128,-1,27
 255 330 255 330 279 321 c 0,28,29
 328 303 328 303 360 285.5 c 128,-1,30
 392 268 392 268 410.5 247.5 c 128,-1,31
 429 227 429 227 436.5 202 c 128,-1,32
 444 177 444 177 444 144 c 0,33,34
 444 79 444 79 403 40.5 c 128,-1,35
 362 2 362 2 286 -9 c 1,36,37
 281 -17 281 -17 277.5 -25.5 c 128,-1,38
 274 -34 274 -34 272 -40 c 1,39,40
 304 -56 304 -56 316 -78 c 128,-1,41
 328 -100 328 -100 328 -123 c 0,42,43
 328 -171 328 -171 290 -196 c 128,-1,44
 252 -221 252 -221 190 -221 c 0,45,46
 168 -221 168 -221 146 -217.5 c 128,-1,47
 124 -214 124 -214 102 -208 c 1,48,-1
 120 -121 l 1,49,50
 127 -123 127 -123 145.5 -127.5 c 128,-1,51
 164 -132 164 -132 182 -132 c 0,52,53
 196 -132 196 -132 206.5 -126.5 c 128,-1,54
 217 -121 217 -121 218 -107 c 0,55,56
 219 -95 219 -95 208.5 -85 c 128,-1,57
 198 -75 198 -75 175 -70 c 2,58,-1
 163 -67 l 1,59,60
 167 -56 167 -56 173 -41.5 c 128,-1,61
 179 -27 179 -27 185 -13 c 1,62,63
 129 -9 129 -9 92 1 c 128,-1,64
 55 11 55 11 39 18 c 1,65,-1
 64 139 l 1,66,67
 102 124 102 124 142 115.5 c 128,-1,68
 182 107 182 107 221 107 c 0,0,1
EndSplineSet
Substitution2: "'case' Case-Sensitive Forms lookup 19 subtable" Scedilla
EndChar

StartChar: uni0162
Encoding: 354 354 316
Width: 614
Flags: W
LayerCount: 2
Fore
SplineSet
594 693 m 1,0,-1
 594 560 l 1,1,-1
 385 560 l 1,2,-1
 385 0 l 1,3,-1
 353 0 l 1,4,5
 348 -11 348 -11 343 -21.5 c 128,-1,6
 338 -32 338 -32 335 -40 c 1,7,8
 367 -56 367 -56 379 -78 c 128,-1,9
 391 -100 391 -100 391 -123 c 0,10,11
 391 -171 391 -171 353 -196 c 128,-1,12
 315 -221 315 -221 253 -221 c 0,13,14
 231 -221 231 -221 209 -217.5 c 128,-1,15
 187 -214 187 -214 165 -208 c 1,16,-1
 183 -121 l 1,17,18
 190 -123 190 -123 208.5 -127.5 c 128,-1,19
 227 -132 227 -132 245 -132 c 0,20,21
 259 -132 259 -132 269.5 -126.5 c 128,-1,22
 280 -121 280 -121 281 -107 c 0,23,24
 282 -95 282 -95 271.5 -85 c 128,-1,25
 261 -75 261 -75 238 -70 c 2,26,-1
 226 -67 l 1,27,28
 231 -53 231 -53 239 -34 c 128,-1,29
 247 -15 247 -15 254 0 c 1,30,-1
 229 0 l 1,31,-1
 229 560 l 1,32,-1
 20 560 l 1,33,-1
 20 693 l 1,34,-1
 594 693 l 1,0,-1
EndSplineSet
EndChar

StartChar: uni0163
Encoding: 355 355 317
Width: 444
Flags: W
LayerCount: 2
Fore
SplineSet
65 657 m 1,0,-1
 214 681 l 1,1,-1
 214 526 l 1,2,-1
 393 526 l 1,3,-1
 393 402 l 1,4,-1
 214 402 l 1,5,-1
 214 217 l 2,6,7
 214 170 214 170 230.5 142 c 128,-1,8
 247 114 247 114 297 114 c 0,9,10
 321 114 321 114 346.5 118.5 c 128,-1,11
 372 123 372 123 393 131 c 1,12,-1
 414 15 l 1,13,14
 394 7 394 7 370.5 0.5 c 128,-1,15
 347 -6 347 -6 318 -9 c 1,16,-1
 305 -40 l 1,17,18
 337 -56 337 -56 349 -78 c 128,-1,19
 361 -100 361 -100 361 -123 c 0,20,21
 361 -171 361 -171 323 -196 c 128,-1,22
 285 -221 285 -221 223 -221 c 0,23,24
 201 -221 201 -221 179 -217.5 c 128,-1,25
 157 -214 157 -214 135 -208 c 1,26,-1
 153 -121 l 1,27,28
 160 -123 160 -123 178.5 -127.5 c 128,-1,29
 197 -132 197 -132 215 -132 c 0,30,31
 229 -132 229 -132 239.5 -126.5 c 128,-1,32
 250 -121 250 -121 251 -107 c 0,33,34
 252 -95 252 -95 241.5 -85 c 128,-1,35
 231 -75 231 -75 208 -70 c 2,36,-1
 196 -67 l 1,37,38
 200 -55 200 -55 206.5 -38.5 c 128,-1,39
 213 -22 213 -22 220 -8 c 1,40,41
 175 -1 175 -1 145 17.5 c 128,-1,42
 115 36 115 36 97.5 65 c 128,-1,43
 80 94 80 94 72.5 132 c 128,-1,44
 65 170 65 170 65 215 c 2,45,-1
 65 657 l 1,0,-1
EndSplineSet
Substitution2: "'case' Case-Sensitive Forms lookup 19 subtable" uni0162
EndChar

StartChar: Tbar
Encoding: 358 358 320
Width: 614
Flags: W
LayerCount: 2
Fore
SplineSet
594 693 m 1,0,-1
 594 560 l 1,1,-1
 385 560 l 1,2,-1
 385 377 l 1,3,-1
 526 377 l 1,4,-1
 526 267 l 1,5,-1
 385 267 l 1,6,-1
 385 0 l 1,7,-1
 229 0 l 1,8,-1
 229 267 l 1,9,-1
 88 267 l 1,10,-1
 88 377 l 1,11,-1
 229 377 l 1,12,-1
 229 560 l 1,13,-1
 20 560 l 1,14,-1
 20 693 l 1,15,-1
 594 693 l 1,0,-1
EndSplineSet
EndChar

StartChar: tbar
Encoding: 359 359 321
Width: 444
Flags: W
LayerCount: 2
Fore
SplineSet
65 657 m 1,0,-1
 214 681 l 1,1,-1
 214 526 l 1,2,-1
 393 526 l 1,3,-1
 393 402 l 1,4,-1
 214 402 l 1,5,-1
 214 321 l 1,6,-1
 392 321 l 1,7,-1
 392 228 l 1,8,-1
 214 228 l 1,9,-1
 214 217 l 2,10,11
 214 170 214 170 230.5 142 c 128,-1,12
 247 114 247 114 297 114 c 0,13,14
 321 114 321 114 346.5 118.5 c 128,-1,15
 372 123 372 123 393 131 c 1,16,-1
 414 15 l 1,17,18
 387 4 387 4 354 -4 c 128,-1,19
 321 -12 321 -12 273 -12 c 0,20,21
 212 -12 212 -12 172 4.5 c 128,-1,22
 132 21 132 21 108 50.5 c 128,-1,23
 84 80 84 80 74.5 122 c 128,-1,24
 65 164 65 164 65 215 c 2,25,-1
 65 657 l 1,0,-1
EndSplineSet
Substitution2: "'case' Case-Sensitive Forms lookup 19 subtable" Tbar
EndChar

StartChar: Uogonek
Encoding: 370 370 332
Width: 707
Flags: W
LayerCount: 2
Fore
SplineSet
345 -14 m 1,0,1
 273 -13 273 -13 221 8 c 128,-1,2
 169 29 169 29 135.5 65.5 c 128,-1,3
 102 102 102 102 86 152 c 128,-1,4
 70 202 70 202 70 262 c 2,5,-1
 70 693 l 1,6,-1
 226 693 l 1,7,-1
 226 275 l 2,8,9
 226 233 226 233 235.5 203.5 c 128,-1,10
 245 174 245 174 261.5 155.5 c 128,-1,11
 278 137 278 137 301.5 129 c 128,-1,12
 325 121 325 121 353 121 c 0,13,14
 410 121 410 121 445.5 156 c 128,-1,15
 481 191 481 191 481 275 c 2,16,-1
 481 693 l 1,17,-1
 637 693 l 1,18,-1
 637 262 l 2,19,20
 637 183 637 183 610 123 c 128,-1,21
 583 63 583 63 520 25 c 0,22,23
 506 17 506 17 495.5 9.5 c 128,-1,24
 485 2 485 2 475.5 -5.5 c 128,-1,25
 466 -13 466 -13 457 -21.5 c 128,-1,26
 448 -30 448 -30 437 -41 c 0,27,28
 424 -54 424 -54 416.5 -65.5 c 128,-1,29
 409 -77 409 -77 409 -88 c 256,30,31
 409 -99 409 -99 415.5 -106 c 128,-1,32
 422 -113 422 -113 439 -113 c 0,33,34
 448 -113 448 -113 460.5 -111.5 c 128,-1,35
 473 -110 473 -110 490 -105 c 1,36,-1
 502 -205 l 1,37,38
 482 -213 482 -213 454 -217 c 128,-1,39
 426 -221 426 -221 403 -221 c 0,40,41
 336 -221 336 -221 307 -196 c 128,-1,42
 278 -171 278 -171 278 -130 c 0,43,44
 278 -109 278 -109 287 -89 c 128,-1,45
 296 -69 296 -69 311 -50 c 0,46,47
 328 -28 328 -28 345 -14 c 1,0,1
EndSplineSet
EndChar

StartChar: uogonek
Encoding: 371 371 333
Width: 589
Flags: W
LayerCount: 2
Fore
SplineSet
422 -218 m 0,0,1
 355 -218 355 -218 326 -193 c 128,-1,2
 297 -168 297 -168 297 -127 c 0,3,4
 297 -106 297 -106 306 -86 c 128,-1,5
 315 -66 315 -66 330 -47 c 0,6,7
 338 -36 338 -36 347.5 -26.5 c 128,-1,8
 357 -17 357 -17 366 -9 c 1,9,10
 350 -11 350 -11 331 -11.5 c 128,-1,11
 312 -12 312 -12 295 -12 c 0,12,13
 228 -12 228 -12 183.5 6 c 128,-1,14
 139 24 139 24 113 56.5 c 128,-1,15
 87 89 87 89 76 134 c 128,-1,16
 65 179 65 179 65 233 c 2,17,-1
 65 526 l 1,18,-1
 214 526 l 1,19,-1
 214 251 l 2,20,21
 214 179 214 179 233 147 c 128,-1,22
 252 115 252 115 304 115 c 0,23,24
 320 115 320 115 338 116.5 c 128,-1,25
 356 118 356 118 370 120 c 1,26,-1
 370 526 l 1,27,-1
 519 526 l 1,28,-1
 519 18 l 1,29,30
 509 10 509 10 491 -5.5 c 128,-1,31
 473 -21 473 -21 456 -38 c 0,32,33
 443 -51 443 -51 435.5 -62.5 c 128,-1,34
 428 -74 428 -74 428 -85 c 256,35,36
 428 -96 428 -96 434.5 -103 c 128,-1,37
 441 -110 441 -110 458 -110 c 0,38,39
 467 -110 467 -110 479.5 -108.5 c 128,-1,40
 492 -107 492 -107 509 -102 c 1,41,-1
 521 -202 l 1,42,43
 501 -210 501 -210 473 -214 c 128,-1,44
 445 -218 445 -218 422 -218 c 0,0,1
EndSplineSet
Substitution2: "'case' Case-Sensitive Forms lookup 19 subtable" Uogonek
EndChar

StartChar: longs
Encoding: 383 383 344
Width: 329
Flags: W
LayerCount: 2
Fore
SplineSet
298 776 m 0,0,1
 340 776 340 776 375 767.5 c 128,-1,2
 410 759 410 759 429 751 c 1,3,-1
 400 632 l 1,4,5
 380 641 380 641 356.5 645.5 c 128,-1,6
 333 650 333 650 313 650 c 0,7,8
 286 650 286 650 267.5 642.5 c 128,-1,9
 249 635 249 635 238.5 622 c 128,-1,10
 228 609 228 609 223.5 591 c 128,-1,11
 219 573 219 573 219 552 c 2,12,-1
 219 0 l 1,13,-1
 70 0 l 1,14,-1
 70 554 l 2,15,16
 70 656 70 656 127.5 716 c 128,-1,17
 185 776 185 776 298 776 c 0,0,1
EndSplineSet
Substitution2: "'case' Case-Sensitive Forms lookup 18 subtable" S
EndChar

StartChar: dotlessj
Encoding: 567 567 349
Width: 289
Flags: W
LayerCount: 2
Fore
SplineSet
21 -185 m 0,0,1
 7 -185 7 -185 -20.5 -182 c 128,-1,2
 -48 -179 -48 -179 -72 -171 c 1,3,-1
 -52 -50 l 1,4,5
 -37 -55 -37 -55 -24.5 -57 c 128,-1,6
 -12 -59 -12 -59 7 -59 c 0,7,8
 42 -59 42 -59 56 -38 c 128,-1,9
 70 -17 70 -17 70 23 c 2,10,-1
 70 526 l 1,11,-1
 219 526 l 1,12,-1
 219 19 l 2,13,14
 219 -85 219 -85 168 -135 c 128,-1,15
 117 -185 117 -185 21 -185 c 0,0,1
EndSplineSet
Substitution2: "'case' Case-Sensitive Forms lookup 18 subtable" J
EndChar

StartChar: apostrophe
Encoding: 700 700 350
Width: 272
Flags: W
LayerCount: 2
Fore
SplineSet
229 776 m 1,0,1
 229 763 229 763 229 754 c 128,-1,2
 229 745 229 745 228 733 c 0,3,4
 224 671 224 671 207 627.5 c 128,-1,5
 190 584 190 584 161 540 c 1,6,-1
 64 567 l 1,7,8
 85 612 85 612 93.5 650 c 128,-1,9
 102 688 102 688 102 731 c 0,10,11
 102 743 102 743 101.5 755.5 c 128,-1,12
 101 768 101 768 99 776 c 1,13,-1
 229 776 l 1,0,1
EndSplineSet
EndChar

StartChar: caron
Encoding: 711 711 351
Width: 388
Flags: W
LayerCount: 2
Fore
SplineSet
45 723 m 1,0,-1
 100 789 l 1,1,-1
 200 712 l 1,2,-1
 300 789 l 1,3,-1
 357 723 l 1,4,-1
 200 586 l 1,5,-1
 45 723 l 1,0,-1
EndSplineSet
EndChar

StartChar: breve
Encoding: 728 728 353
Width: 410
Flags: W
LayerCount: 2
Fore
SplineSet
205 598 m 0,0,1
 170 598 170 598 140.5 609 c 128,-1,2
 111 620 111 620 89.5 640 c 128,-1,3
 68 660 68 660 55.5 689.5 c 128,-1,4
 43 719 43 719 43 756 c 2,5,-1
 43 764 l 1,6,-1
 144 764 l 1,7,8
 147 722 147 722 164 707.5 c 128,-1,9
 181 693 181 693 205 693 c 256,10,11
 229 693 229 693 246 707.5 c 128,-1,12
 263 722 263 722 266 764 c 1,13,-1
 367 764 l 1,14,-1
 367 756 l 2,15,16
 367 719 367 719 354.5 689.5 c 128,-1,17
 342 660 342 660 320.5 640 c 128,-1,18
 299 620 299 620 269 609 c 128,-1,19
 239 598 239 598 205 598 c 0,0,1
EndSplineSet
EndChar

StartChar: dotaccent
Encoding: 729 729 354
Width: 246
Flags: W
LayerCount: 2
Fore
SplineSet
123 600 m 256,0,1
 91 600 91 600 67.5 621 c 128,-1,2
 44 642 44 642 44 678 c 256,3,4
 44 714 44 714 67.5 735 c 128,-1,5
 91 756 91 756 123 756 c 256,6,7
 155 756 155 756 178.5 735 c 128,-1,8
 202 714 202 714 202 678 c 256,9,10
 202 642 202 642 178.5 621 c 128,-1,11
 155 600 155 600 123 600 c 256,0,1
EndSplineSet
EndChar

StartChar: ring
Encoding: 730 730 355
Width: 324
Flags: W
LayerCount: 2
Fore
SplineSet
280 699 m 256,0,1
 280 671 280 671 270.5 649.5 c 128,-1,2
 261 628 261 628 244.5 613.5 c 128,-1,3
 228 599 228 599 206.5 591.5 c 128,-1,4
 185 584 185 584 161 584 c 0,5,6
 138 584 138 584 117 591.5 c 128,-1,7
 96 599 96 599 79.5 613.5 c 128,-1,8
 63 628 63 628 53.5 649.5 c 128,-1,9
 44 671 44 671 44 699 c 256,10,11
 44 727 44 727 53.5 748.5 c 128,-1,12
 63 770 63 770 79.5 784.5 c 128,-1,13
 96 799 96 799 117 806.5 c 128,-1,14
 138 814 138 814 161 814 c 0,15,16
 185 814 185 814 206.5 806.5 c 128,-1,17
 228 799 228 799 244.5 784.5 c 128,-1,18
 261 770 261 770 270.5 748.5 c 128,-1,19
 280 727 280 727 280 699 c 256,0,1
207 699 m 256,20,21
 207 722 207 722 193 734 c 128,-1,22
 179 746 179 746 161 746 c 0,23,24
 144 746 144 746 130 734 c 128,-1,25
 116 722 116 722 116 699 c 256,26,27
 116 676 116 676 130 664 c 128,-1,28
 144 652 144 652 161 652 c 0,29,30
 179 652 179 652 193 664 c 128,-1,31
 207 676 207 676 207 699 c 256,20,21
EndSplineSet
EndChar

StartChar: ogonek
Encoding: 731 731 356
Width: 312
Flags: W
LayerCount: 2
Fore
SplineSet
176 -221 m 0,0,1
 109 -221 109 -221 80 -196.5 c 128,-1,2
 51 -172 51 -172 51 -130 c 0,3,4
 51 -109 51 -109 60 -89 c 128,-1,5
 69 -69 69 -69 84 -50 c 0,6,7
 101 -29 101 -29 120 -13 c 128,-1,8
 139 3 139 3 156 15 c 1,9,-1
 273 15 l 1,10,11
 263 7 263 7 245 -8.5 c 128,-1,12
 227 -24 227 -24 210 -41 c 0,13,14
 197 -54 197 -54 189.5 -65.5 c 128,-1,15
 182 -77 182 -77 182 -88 c 256,16,17
 182 -99 182 -99 188.5 -106 c 128,-1,18
 195 -113 195 -113 212 -113 c 0,19,20
 221 -113 221 -113 233.5 -111.5 c 128,-1,21
 246 -110 246 -110 263 -105 c 1,22,-1
 275 -205 l 1,23,24
 255 -213 255 -213 227 -217 c 128,-1,25
 199 -221 199 -221 176 -221 c 0,0,1
EndSplineSet
EndChar

StartChar: hungarumlaut
Encoding: 733 733 357
Width: 434
Flags: W
LayerCount: 2
Fore
SplineSet
246 729 m 1,0,-1
 106 577 l 1,1,-1
 39 628 l 1,2,-1
 159 799 l 1,3,-1
 246 729 l 1,0,-1
448 729 m 1,4,-1
 308 577 l 1,5,-1
 241 628 l 1,6,-1
 361 799 l 1,7,-1
 448 729 l 1,4,-1
EndSplineSet
EndChar

StartChar: fraction
Encoding: 8260 8260 366
Width: 152
Flags: W
LayerCount: 2
Fore
SplineSet
323 693 m 1,0,-1
 -32 0 l 1,1,-1
 -170 0 l 1,2,-1
 187 693 l 1,3,-1
 323 693 l 1,0,-1
EndSplineSet
EndChar

StartChar: zerosuperior
Encoding: 8304 8304 367
Width: 363
Flags: W
LayerCount: 2
Fore
SplineSet
15 502 m 0,0,1
 15 601 15 601 58.5 655 c 128,-1,2
 102 709 102 709 182 709 c 0,3,4
 261 709 261 709 304.5 655 c 128,-1,5
 348 601 348 601 348 502 c 0,6,7
 348 402 348 402 304.5 348 c 128,-1,8
 261 294 261 294 182 294 c 0,9,10
 102 294 102 294 58.5 348 c 128,-1,11
 15 402 15 402 15 502 c 0,0,1
241 502 m 0,12,13
 241 554 241 554 229 586.5 c 128,-1,14
 217 619 217 619 183 619 c 256,15,16
 149 619 149 619 135.5 586.5 c 128,-1,17
 122 554 122 554 122 502 c 0,18,19
 122 449 122 449 135.5 416.5 c 128,-1,20
 149 384 149 384 183 384 c 256,21,22
 217 384 217 384 229 416.5 c 128,-1,23
 241 449 241 449 241 502 c 0,12,13
EndSplineSet
Substitution2: "Single Substitution lookup 26 subtable" zeroinferior
Substitution2: "'sinf' Scientific Inferiors lookup 13 subtable" zero.sinf
Substitution2: "'subs' Subscript lookup 12 subtable" zero.sinf
Substitution2: "'sups' Superscript lookup 11 subtable" zero.sups
Substitution2: "'dnom' Denominators lookup 10 subtable" zeroinferior
EndChar

StartChar: foursuperior
Encoding: 8308 8308 368
Width: 363
Flags: W
LayerCount: 2
Fore
SplineSet
301 701 m 1,0,-1
 301 470 l 1,1,-1
 347 470 l 1,2,-1
 347 387 l 1,3,-1
 301 387 l 1,4,-1
 301 301 l 1,5,-1
 207 301 l 1,6,-1
 207 387 l 1,7,-1
 20 387 l 1,8,-1
 20 459 l 1,9,10
 62 530 62 530 105.5 587.5 c 128,-1,11
 149 645 149 645 202 701 c 1,12,-1
 301 701 l 1,0,-1
207 590 m 1,13,14
 184 564 184 564 163.5 534.5 c 128,-1,15
 143 505 143 505 125 470 c 1,16,-1
 207 470 l 1,17,-1
 207 590 l 1,13,14
EndSplineSet
Substitution2: "Single Substitution lookup 26 subtable" fourinferior
Substitution2: "'sinf' Scientific Inferiors lookup 13 subtable" four.sinf
Substitution2: "'subs' Subscript lookup 12 subtable" four.sinf
Substitution2: "'sups' Superscript lookup 11 subtable" four.sups
Substitution2: "'dnom' Denominators lookup 10 subtable" fourinferior
EndChar

StartChar: fivesuperior
Encoding: 8309 8309 369
Width: 363
Flags: W
LayerCount: 2
Fore
SplineSet
326 429 m 0,0,1
 326 400 326 400 317.5 375 c 128,-1,2
 309 350 309 350 289 332 c 128,-1,3
 269 314 269 314 237 304 c 128,-1,4
 205 294 205 294 159 294 c 0,5,6
 124 294 124 294 87 300.5 c 128,-1,7
 50 307 50 307 26 319 c 1,8,-1
 49 408 l 1,9,10
 59 404 59 404 69 400.5 c 128,-1,11
 79 397 79 397 90.5 394 c 128,-1,12
 102 391 102 391 116 389.5 c 128,-1,13
 130 388 130 388 149 388 c 0,14,15
 213 388 213 388 213 428 c 0,16,17
 213 445 213 445 202.5 454.5 c 128,-1,18
 192 464 192 464 172 468.5 c 128,-1,19
 152 473 152 473 122 474 c 128,-1,20
 92 475 92 475 52 475 c 1,21,22
 55 501 55 501 58.5 533.5 c 128,-1,23
 62 566 62 566 65 597.5 c 128,-1,24
 68 629 68 629 70 656.5 c 128,-1,25
 72 684 72 684 74 701 c 1,26,-1
 311 701 l 1,27,-1
 311 610 l 1,28,-1
 158 610 l 1,29,30
 157 600 157 600 156 582.5 c 128,-1,31
 155 565 155 565 153 554 c 1,32,33
 202 553 202 553 235 544 c 128,-1,34
 268 535 268 535 288 519 c 128,-1,35
 308 503 308 503 317 480 c 128,-1,36
 326 457 326 457 326 429 c 0,0,1
EndSplineSet
Substitution2: "Single Substitution lookup 26 subtable" fiveinferior
Substitution2: "'sinf' Scientific Inferiors lookup 13 subtable" five.sinf
Substitution2: "'subs' Subscript lookup 12 subtable" five.sinf
Substitution2: "'sups' Superscript lookup 11 subtable" five.sups
Substitution2: "'dnom' Denominators lookup 10 subtable" fiveinferior
EndChar

StartChar: sixsuperior
Encoding: 8310 8310 370
Width: 363
Flags: W
LayerCount: 2
Fore
SplineSet
179 479 m 0,0,1
 167 479 167 479 153.5 476 c 128,-1,2
 140 473 140 473 133 469 c 1,3,4
 127 380 127 380 190 380 c 0,5,6
 215 380 215 380 226 395 c 128,-1,7
 237 410 237 410 237 429 c 0,8,9
 237 454 237 454 224 466.5 c 128,-1,10
 211 479 211 479 179 479 c 0,0,1
199 552 m 0,11,12
 236 552 236 552 262 543 c 128,-1,13
 288 534 288 534 304.5 518 c 128,-1,14
 321 502 321 502 328.5 480 c 128,-1,15
 336 458 336 458 336 432 c 0,16,17
 336 405 336 405 327 380 c 128,-1,18
 318 355 318 355 300 336 c 128,-1,19
 282 317 282 317 254 305.5 c 128,-1,20
 226 294 226 294 188 294 c 0,21,22
 110 294 110 294 70.5 338.5 c 128,-1,23
 31 383 31 383 31 465 c 0,24,25
 31 520 31 520 49.5 563.5 c 128,-1,26
 68 607 68 607 103.5 638 c 128,-1,27
 139 669 139 669 189.5 685.5 c 128,-1,28
 240 702 240 702 304 702 c 1,29,-1
 309 613 l 1,30,31
 238 610 238 610 199 592.5 c 128,-1,32
 160 575 160 575 140 541 c 1,33,34
 150 545 150 545 166 548.5 c 128,-1,35
 182 552 182 552 199 552 c 0,11,12
EndSplineSet
Substitution2: "Single Substitution lookup 26 subtable" sixinferior
Substitution2: "'sinf' Scientific Inferiors lookup 13 subtable" six.sinf
Substitution2: "'subs' Subscript lookup 12 subtable" six.sinf
Substitution2: "'sups' Superscript lookup 11 subtable" six.sups
Substitution2: "'dnom' Denominators lookup 10 subtable" sixinferior
EndChar

StartChar: sevensuperior
Encoding: 8311 8311 371
Width: 363
Flags: W
LayerCount: 2
Fore
SplineSet
93 302 m 1,0,1
 107 400 107 400 135 472 c 128,-1,2
 163 544 163 544 208 605 c 1,3,-1
 30 605 l 1,4,-1
 30 701 l 1,5,-1
 337 701 l 1,6,-1
 337 617 l 1,7,8
 317 594 317 594 296.5 560 c 128,-1,9
 276 526 276 526 258 485 c 128,-1,10
 240 444 240 444 226.5 397 c 128,-1,11
 213 350 213 350 207 302 c 1,12,-1
 93 302 l 1,0,1
EndSplineSet
Substitution2: "Single Substitution lookup 26 subtable" seveninferior
Substitution2: "'sinf' Scientific Inferiors lookup 13 subtable" seven.sinf
Substitution2: "'subs' Subscript lookup 12 subtable" seven.sinf
Substitution2: "'sups' Superscript lookup 11 subtable" seven.sups
Substitution2: "'dnom' Denominators lookup 10 subtable" seveninferior
EndChar

StartChar: eightsuperior
Encoding: 8312 8312 372
Width: 363
Flags: W
LayerCount: 2
Fore
SplineSet
343 413 m 0,0,1
 343 387 343 387 334 365 c 128,-1,2
 325 343 325 343 305.5 327.5 c 128,-1,3
 286 312 286 312 255.5 303 c 128,-1,4
 225 294 225 294 181 294 c 0,5,6
 131 294 131 294 100 305 c 128,-1,7
 69 316 69 316 51.5 333 c 128,-1,8
 34 350 34 350 27.5 369.5 c 128,-1,9
 21 389 21 389 21 406 c 0,10,11
 21 441 21 441 39 463.5 c 128,-1,12
 57 486 57 486 83 503 c 1,13,14
 55 523 55 523 43 543 c 128,-1,15
 31 563 31 563 31 593 c 0,16,17
 31 616 31 616 40 637 c 128,-1,18
 49 658 49 658 68 674 c 128,-1,19
 87 690 87 690 115.5 699.5 c 128,-1,20
 144 709 144 709 182 709 c 0,21,22
 226 709 226 709 255 699 c 128,-1,23
 284 689 284 689 301.5 673 c 128,-1,24
 319 657 319 657 326 638 c 128,-1,25
 333 619 333 619 333 600 c 0,26,27
 333 573 333 573 317.5 549.5 c 128,-1,28
 302 526 302 526 277 512 c 1,29,30
 314 490 314 490 328.5 467 c 128,-1,31
 343 444 343 444 343 413 c 0,0,1
126 413 m 0,32,33
 126 399 126 399 138 385.5 c 128,-1,34
 150 372 150 372 182 372 c 0,35,36
 213 372 213 372 225.5 385 c 128,-1,37
 238 398 238 398 238 413 c 0,38,39
 238 438 238 438 217.5 452 c 128,-1,40
 197 466 197 466 163 473 c 1,41,42
 146 462 146 462 136 447.5 c 128,-1,43
 126 433 126 433 126 413 c 0,32,33
231 594 m 0,44,45
 231 606 231 606 220 619 c 128,-1,46
 209 632 209 632 183 632 c 256,47,48
 157 632 157 632 146 619 c 128,-1,49
 135 606 135 606 135 594 c 0,50,51
 135 577 135 577 147.5 562 c 128,-1,52
 160 547 160 547 192 537 c 1,53,54
 212 548 212 548 221.5 561 c 128,-1,55
 231 574 231 574 231 594 c 0,44,45
EndSplineSet
Substitution2: "Single Substitution lookup 26 subtable" eightinferior
Substitution2: "'sinf' Scientific Inferiors lookup 13 subtable" eight.sinf
Substitution2: "'subs' Subscript lookup 12 subtable" eight.sinf
Substitution2: "'sups' Superscript lookup 11 subtable" eight.sups
Substitution2: "'dnom' Denominators lookup 10 subtable" eightinferior
EndChar

StartChar: ninesuperior
Encoding: 8313 8313 373
Width: 363
Flags: W
LayerCount: 2
Fore
SplineSet
188 526 m 0,0,1
 200 526 200 526 213.5 529 c 128,-1,2
 227 532 227 532 234 536 c 1,3,4
 240 625 240 625 179 625 c 0,5,6
 154 625 154 625 142 611 c 128,-1,7
 130 597 130 597 130 578 c 0,8,9
 130 553 130 553 143 539.5 c 128,-1,10
 156 526 156 526 188 526 c 0,0,1
167 451 m 0,11,12
 130 451 130 451 104 460.5 c 128,-1,13
 78 470 78 470 61.5 486.5 c 128,-1,14
 45 503 45 503 37.5 525.5 c 128,-1,15
 30 548 30 548 30 574 c 256,16,17
 30 600 30 600 39 624.5 c 128,-1,18
 48 649 48 649 66 667.5 c 128,-1,19
 84 686 84 686 112 697.5 c 128,-1,20
 140 709 140 709 178 709 c 0,21,22
 256 709 256 709 295.5 663.5 c 128,-1,23
 335 618 335 618 335 538 c 0,24,25
 335 428 335 428 269 364.5 c 128,-1,26
 203 301 203 301 62 301 c 1,27,-1
 57 390 l 1,28,29
 134 392 134 392 172 409.5 c 128,-1,30
 210 427 210 427 227 462 c 1,31,32
 217 458 217 458 200.5 454.5 c 128,-1,33
 184 451 184 451 167 451 c 0,11,12
EndSplineSet
Substitution2: "Single Substitution lookup 26 subtable" nineinferior
Substitution2: "'sinf' Scientific Inferiors lookup 13 subtable" nine.sinf
Substitution2: "'subs' Subscript lookup 12 subtable" nine.sinf
Substitution2: "'sups' Superscript lookup 11 subtable" nine.sups
Substitution2: "'dnom' Denominators lookup 10 subtable" nineinferior
EndChar

StartChar: afii61289
Encoding: 8467 8467 384
Width: 541
Flags: W
LayerCount: 2
Fore
SplineSet
506 61 m 1,0,1
 468 25 468 25 419 5.5 c 128,-1,2
 370 -14 370 -14 310 -14 c 0,3,4
 225 -14 225 -14 177 26 c 128,-1,5
 129 66 129 66 119 154 c 1,6,-1
 74 122 l 1,7,-1
 26 194 l 1,8,9
 50 213 50 213 72.5 229.5 c 128,-1,10
 95 246 95 246 117 264 c 1,11,-1
 117 504 l 2,12,13
 117 645 117 645 169.5 710.5 c 128,-1,14
 222 776 222 776 310 776 c 0,15,16
 352 776 352 776 382.5 761 c 128,-1,17
 413 746 413 746 433.5 720.5 c 128,-1,18
 454 695 454 695 463.5 661 c 128,-1,19
 473 627 473 627 473 589 c 0,20,21
 473 498 473 498 415.5 414 c 128,-1,22
 358 330 358 330 255 239 c 1,23,-1
 255 206 l 2,24,25
 255 112 255 112 340 112 c 0,26,27
 368 112 368 112 396 125.5 c 128,-1,28
 424 139 424 139 445 157 c 1,29,-1
 506 61 l 1,0,1
255 372 m 1,30,31
 307 428 307 428 339.5 486 c 128,-1,32
 372 544 372 544 372 593 c 0,33,34
 372 632 372 632 360 652 c 128,-1,35
 348 672 348 672 318 672 c 0,36,37
 306 672 306 672 294.5 665 c 128,-1,38
 283 658 283 658 274.5 640.5 c 128,-1,39
 266 623 266 623 260.5 593.5 c 128,-1,40
 255 564 255 564 255 520 c 2,41,-1
 255 372 l 1,30,31
EndSplineSet
EndChar

StartChar: estimated
Encoding: 8494 8494 385
Width: 936
Flags: W
LayerCount: 2
Fore
SplineSet
219 337 m 2,0,1
 214 337 214 337 214 333 c 2,2,-1
 214 136 l 2,3,4
 214 123 214 123 223 114 c 0,5,6
 271 63 271 63 333 35 c 128,-1,7
 395 7 395 7 468 7 c 0,8,9
 547 7 547 7 613 39.5 c 128,-1,10
 679 72 679 72 727 126 c 1,11,-1
 784 126 l 1,12,13
 758 94 758 94 723.5 68.5 c 128,-1,14
 689 43 689 43 648 25 c 128,-1,15
 607 7 607 7 561 -3 c 128,-1,16
 515 -13 515 -13 467 -13 c 0,17,18
 384 -13 384 -13 311 15.5 c 128,-1,19
 238 44 238 44 184 92.5 c 128,-1,20
 130 141 130 141 98.5 206.5 c 128,-1,21
 67 272 67 272 67 347 c 256,22,23
 67 422 67 422 98.5 487.5 c 128,-1,24
 130 553 130 553 184 602 c 128,-1,25
 238 651 238 651 311 679.5 c 128,-1,26
 384 708 384 708 467 708 c 256,27,28
 550 708 550 708 623.5 679.5 c 128,-1,29
 697 651 697 651 751.5 602 c 128,-1,30
 806 553 806 553 837.5 487.5 c 128,-1,31
 869 422 869 422 869 347 c 2,32,-1
 869 337 l 1,33,-1
 219 337 l 2,0,1
721 560 m 2,34,35
 721 573 721 573 712 584 c 1,36,37
 664 632 664 632 602 659 c 128,-1,38
 540 686 540 686 468 686 c 0,39,40
 397 686 397 686 334 657 c 128,-1,41
 271 628 271 628 224 580 c 0,42,43
 219 576 219 576 216.5 569.5 c 128,-1,44
 214 563 214 563 214 556 c 2,45,-1
 214 363 l 2,46,47
 214 356 214 356 219 356 c 2,48,-1
 717 356 l 2,49,50
 721 356 721 356 721 363 c 2,51,-1
 721 560 l 2,34,35
EndSplineSet
EndChar

StartChar: partialdiff
Encoding: 8706 8706 410
Width: 612
Flags: W
LayerCount: 2
Fore
SplineSet
251 650 m 0,0,1
 225 650 225 650 195 646 c 128,-1,2
 165 642 165 642 130 628 c 1,3,-1
 107 745 l 1,4,5
 152 762 152 762 191.5 768.5 c 128,-1,6
 231 775 231 775 266 775 c 0,7,8
 354 775 354 775 411.5 742 c 128,-1,9
 469 709 469 709 502.5 655 c 128,-1,10
 536 601 536 601 549 531.5 c 128,-1,11
 562 462 562 462 562 388 c 0,12,13
 562 318 562 318 547.5 246.5 c 128,-1,14
 533 175 533 175 499.5 117.5 c 128,-1,15
 466 60 466 60 410 24 c 128,-1,16
 354 -12 354 -12 271 -12 c 0,17,18
 220 -12 220 -12 177.5 4 c 128,-1,19
 135 20 135 20 103.5 50.5 c 128,-1,20
 72 81 72 81 54.5 125 c 128,-1,21
 37 169 37 169 37 226 c 0,22,23
 37 290 37 290 55.5 343 c 128,-1,24
 74 396 74 396 108.5 433.5 c 128,-1,25
 143 471 143 471 191.5 492 c 128,-1,26
 240 513 240 513 300 513 c 0,27,28
 334 513 334 513 361 505.5 c 128,-1,29
 388 498 388 498 414 484 c 1,30,31
 409 564 409 564 367.5 607 c 128,-1,32
 326 650 326 650 251 650 c 0,0,1
314 394 m 0,33,34
 275 394 275 394 249 379.5 c 128,-1,35
 223 365 223 365 207.5 342 c 128,-1,36
 192 319 192 319 185 289.5 c 128,-1,37
 178 260 178 260 178 229 c 0,38,39
 178 169 178 169 206 142 c 128,-1,40
 234 115 234 115 274 115 c 0,41,42
 310 115 310 115 336 133.5 c 128,-1,43
 362 152 362 152 379 185 c 128,-1,44
 396 218 396 218 404.5 264 c 128,-1,45
 413 310 413 310 415 364 c 1,46,47
 392 380 392 380 364.5 387 c 128,-1,48
 337 394 337 394 314 394 c 0,33,34
EndSplineSet
EndChar

StartChar: Delta
Encoding: 8710 8710 411
Width: 693
Flags: W
LayerCount: 2
Fore
SplineSet
10 0 m 1,0,1
 45 110 45 110 78 202 c 128,-1,2
 111 294 111 294 143.5 376.5 c 128,-1,3
 176 459 176 459 209.5 536 c 128,-1,4
 243 613 243 613 281 693 c 1,5,-1
 411 693 l 1,6,7
 448 613 448 613 482.5 535.5 c 128,-1,8
 517 458 517 458 550 375.5 c 128,-1,9
 583 293 583 293 615.5 201 c 128,-1,10
 648 109 648 109 683 0 c 1,11,-1
 10 0 l 1,0,1
483 130 m 1,12,13
 440 255 440 255 404.5 355 c 128,-1,14
 369 455 369 455 344 508 c 1,15,16
 332 481 332 481 317 442 c 128,-1,17
 302 403 302 403 284.5 354 c 128,-1,18
 267 305 267 305 247.5 248.5 c 128,-1,19
 228 192 228 192 207 130 c 1,20,-1
 483 130 l 1,12,13
EndSplineSet
EndChar

StartChar: product
Encoding: 8719 8719 412
Width: 730
Flags: W
LayerCount: 2
Fore
SplineSet
650 693 m 1,0,-1
 650 -109 l 1,1,-1
 494 -109 l 1,2,-1
 494 561 l 1,3,-1
 236 561 l 1,4,-1
 236 -109 l 1,5,-1
 80 -109 l 1,6,-1
 80 693 l 1,7,-1
 650 693 l 1,0,-1
EndSplineSet
EndChar

StartChar: summation
Encoding: 8721 8721 413
Width: 543
Flags: W
LayerCount: 2
Fore
SplineSet
393 302 m 1,0,1
 367 270 367 270 341 234.5 c 128,-1,2
 315 199 315 199 290 163 c 128,-1,3
 265 127 265 127 241.5 91 c 128,-1,4
 218 55 218 55 199 22 c 1,5,-1
 523 22 l 1,6,-1
 523 -109 l 1,7,-1
 15 -109 l 1,8,-1
 15 -13 l 1,9,10
 64 78 64 78 117.5 156 c 128,-1,11
 171 234 171 234 222 306 c 1,12,13
 170 380 170 380 119.5 452.5 c 128,-1,14
 69 525 69 525 18 600 c 1,15,-1
 18 693 l 1,16,-1
 523 693 l 1,17,-1
 523 562 l 1,18,-1
 214 562 l 1,19,20
 233 535 233 535 255 503 c 128,-1,21
 277 471 277 471 300 437 c 128,-1,22
 323 403 323 403 347 368 c 128,-1,23
 371 333 371 333 393 302 c 1,0,1
EndSplineSet
EndChar

StartChar: minus
Encoding: 8722 8722 415
Width: 568
Flags: W
LayerCount: 2
Fore
SplineSet
49 361 m 1,0,-1
 519 361 l 1,1,-1
 519 236 l 1,2,-1
 49 236 l 1,3,-1
 49 361 l 1,0,-1
EndSplineSet
EndChar

StartChar: radical
Encoding: 8730 8730 418
Width: 602
Flags: W
LayerCount: 2
Fore
SplineSet
26 352 m 1,0,-1
 228 419 l 1,1,2
 243 388 243 388 254.5 362 c 128,-1,3
 266 336 266 336 276.5 310 c 128,-1,4
 287 284 287 284 299 256 c 128,-1,5
 311 228 311 228 326 192 c 1,6,-1
 496 783 l 1,7,-1
 637 783 l 1,8,-1
 394 -14 l 1,9,-1
 269 -14 l 1,10,11
 239 62 239 62 210 131 c 128,-1,12
 181 200 181 200 147 270 c 1,13,-1
 61 243 l 1,14,-1
 26 352 l 1,0,-1
EndSplineSet
EndChar

StartChar: infinity
Encoding: 8734 8734 419
Width: 636
Flags: W
LayerCount: 2
Fore
SplineSet
318 208 m 1,0,1
 293 177 293 177 262 155.5 c 128,-1,2
 231 134 231 134 189 134 c 0,3,4
 115 134 115 134 72.5 176.5 c 128,-1,5
 30 219 30 219 30 294 c 0,6,7
 30 371 30 371 72.5 412.5 c 128,-1,8
 115 454 115 454 189 454 c 0,9,10
 231 454 231 454 262.5 433 c 128,-1,11
 294 412 294 412 318 380 c 1,12,13
 343 411 343 411 374 432.5 c 128,-1,14
 405 454 405 454 447 454 c 0,15,16
 521 454 521 454 563.5 411.5 c 128,-1,17
 606 369 606 369 606 294 c 0,18,19
 606 217 606 217 563.5 175.5 c 128,-1,20
 521 134 521 134 447 134 c 0,21,22
 405 134 405 134 373.5 155 c 128,-1,23
 342 176 342 176 318 208 c 1,0,1
265 294 m 1,24,25
 251 322 251 322 232 336 c 128,-1,26
 213 350 213 350 191 350 c 0,27,28
 168 350 168 350 156 332.5 c 128,-1,29
 144 315 144 315 144 294 c 256,30,31
 144 273 144 273 156 255.5 c 128,-1,32
 168 238 168 238 191 238 c 0,33,34
 213 238 213 238 231 251 c 128,-1,35
 249 264 249 264 265 294 c 1,24,25
371 294 m 1,36,37
 385 266 385 266 404 252 c 128,-1,38
 423 238 423 238 445 238 c 0,39,40
 468 238 468 238 480 255.5 c 128,-1,41
 492 273 492 273 492 294 c 256,42,43
 492 315 492 315 480 332.5 c 128,-1,44
 468 350 468 350 445 350 c 0,45,46
 423 350 423 350 405 337 c 128,-1,47
 387 324 387 324 371 294 c 1,36,37
EndSplineSet
EndChar

StartChar: integral
Encoding: 8747 8747 420
Width: 401
Flags: W
LayerCount: 2
Fore
SplineSet
126 552 m 2,0,1
 126 660 126 660 179 718.5 c 128,-1,2
 232 777 232 777 346 777 c 0,3,4
 347 777 347 777 352.5 777 c 128,-1,5
 358 777 358 777 366 776.5 c 128,-1,6
 374 776 374 776 382 775.5 c 128,-1,7
 390 775 390 775 396 774 c 1,8,-1
 396 644 l 1,9,-1
 353 644 l 2,10,11
 311 644 311 644 293 619.5 c 128,-1,12
 275 595 275 595 275 554 c 2,13,-1
 275 40 l 2,14,15
 275 -68 275 -68 222 -126.5 c 128,-1,16
 169 -185 169 -185 55 -185 c 0,17,18
 54 -185 54 -185 48.5 -185 c 128,-1,19
 43 -185 43 -185 35 -184.5 c 128,-1,20
 27 -184 27 -184 19 -183.5 c 128,-1,21
 11 -183 11 -183 5 -182 c 1,22,-1
 5 -52 l 1,23,-1
 48 -52 l 2,24,25
 90 -52 90 -52 108 -27.5 c 128,-1,26
 126 -3 126 -3 126 38 c 2,27,-1
 126 552 l 2,0,1
EndSplineSet
EndChar

StartChar: approxequal
Encoding: 8776 8776 421
Width: 568
Flags: W
LayerCount: 2
Fore
SplineSet
386 315 m 0,0,1
 356 315 356 315 329.5 326.5 c 128,-1,2
 303 338 303 338 278.5 352.5 c 128,-1,3
 254 367 254 367 231.5 378.5 c 128,-1,4
 209 390 209 390 187 390 c 0,5,6
 178 390 178 390 170 388 c 128,-1,7
 162 386 162 386 154 378.5 c 128,-1,8
 146 371 146 371 138.5 356.5 c 128,-1,9
 131 342 131 342 125 317 c 1,10,-1
 23 345 l 1,11,12
 28 373 28 373 39 403 c 128,-1,13
 50 433 50 433 68.5 458.5 c 128,-1,14
 87 484 87 484 115 500.5 c 128,-1,15
 143 517 143 517 182 517 c 0,16,17
 212 517 212 517 238.5 505.5 c 128,-1,18
 265 494 265 494 289.5 479.5 c 128,-1,19
 314 465 314 465 336.5 453.5 c 128,-1,20
 359 442 359 442 381 442 c 0,21,22
 390 442 390 442 398 444 c 128,-1,23
 406 446 406 446 414 453.5 c 128,-1,24
 422 461 422 461 429.5 475.5 c 128,-1,25
 437 490 437 490 443 515 c 1,26,-1
 545 487 l 1,27,28
 540 459 540 459 529 429 c 128,-1,29
 518 399 518 399 499 373.5 c 128,-1,30
 480 348 480 348 452.5 331.5 c 128,-1,31
 425 315 425 315 386 315 c 0,0,1
387 71 m 0,32,33
 357 71 357 71 330.5 82.5 c 128,-1,34
 304 94 304 94 279.5 108.5 c 128,-1,35
 255 123 255 123 232.5 134.5 c 128,-1,36
 210 146 210 146 188 146 c 0,37,38
 179 146 179 146 171 144 c 128,-1,39
 163 142 163 142 155 134.5 c 128,-1,40
 147 127 147 127 139.5 112.5 c 128,-1,41
 132 98 132 98 126 73 c 1,42,-1
 24 101 l 1,43,44
 29 129 29 129 40 159 c 128,-1,45
 51 189 51 189 69.5 214.5 c 128,-1,46
 88 240 88 240 116 256.5 c 128,-1,47
 144 273 144 273 183 273 c 0,48,49
 213 273 213 273 239.5 261.5 c 128,-1,50
 266 250 266 250 290.5 235.5 c 128,-1,51
 315 221 315 221 337.5 209.5 c 128,-1,52
 360 198 360 198 382 198 c 0,53,54
 391 198 391 198 399 200 c 128,-1,55
 407 202 407 202 415 209.5 c 128,-1,56
 423 217 423 217 430.5 231.5 c 128,-1,57
 438 246 438 246 444 271 c 1,58,-1
 546 243 l 1,59,60
 541 215 541 215 530 185 c 128,-1,61
 519 155 519 155 500 129.5 c 128,-1,62
 481 104 481 104 453.5 87.5 c 128,-1,63
 426 71 426 71 387 71 c 0,32,33
EndSplineSet
EndChar

StartChar: notequal
Encoding: 8800 8800 422
Width: 568
Flags: W
LayerCount: 2
Fore
SplineSet
49 466 m 1,0,-1
 321 466 l 1,1,-1
 389 594 l 1,2,-1
 473 548 l 1,3,-1
 430 466 l 1,4,-1
 519 466 l 1,5,-1
 519 341 l 1,6,-1
 364 341 l 1,7,-1
 315 247 l 1,8,-1
 519 247 l 1,9,-1
 519 122 l 1,10,-1
 249 122 l 1,11,-1
 181 -8 l 1,12,-1
 97 38 l 1,13,-1
 141 122 l 1,14,-1
 49 122 l 1,15,-1
 49 247 l 1,16,-1
 206 247 l 1,17,-1
 256 341 l 1,18,-1
 49 341 l 1,19,-1
 49 466 l 1,0,-1
EndSplineSet
EndChar

StartChar: lessequal
Encoding: 8804 8804 423
Width: 568
Flags: W
LayerCount: 2
Fore
SplineSet
50 452 m 1,0,-1
 482 625 l 1,1,-1
 518 506 l 1,2,-1
 212 393 l 1,3,-1
 518 279 l 1,4,-1
 482 160 l 1,5,-1
 50 333 l 1,6,-1
 50 452 l 1,0,-1
49 121 m 1,7,-1
 519 121 l 1,8,-1
 519 0 l 1,9,-1
 49 0 l 1,10,-1
 49 121 l 1,7,-1
EndSplineSet
EndChar

StartChar: greaterequal
Encoding: 8805 8805 424
Width: 568
Flags: W
LayerCount: 2
Fore
SplineSet
518 333 m 1,0,-1
 86 160 l 1,1,-1
 50 279 l 1,2,-1
 356 393 l 1,3,-1
 50 506 l 1,4,-1
 86 625 l 1,5,-1
 518 452 l 1,6,-1
 518 333 l 1,0,-1
519 0 m 1,7,-1
 49 0 l 1,8,-1
 49 121 l 1,9,-1
 519 121 l 1,10,-1
 519 0 l 1,7,-1
EndSplineSet
EndChar

StartChar: lozenge
Encoding: 9674 9674 425
Width: 590
Flags: W
LayerCount: 2
Fore
SplineSet
47 347 m 1,0,1
 82 402 82 402 114.5 450.5 c 128,-1,2
 147 499 147 499 178 543 c 128,-1,3
 209 587 209 587 239 628.5 c 128,-1,4
 269 670 269 670 298 711 c 1,5,6
 327 670 327 670 357 628.5 c 128,-1,7
 387 587 387 587 418 543 c 128,-1,8
 449 499 449 499 481.5 450.5 c 128,-1,9
 514 402 514 402 549 347 c 1,10,11
 514 292 514 292 481.5 243.5 c 128,-1,12
 449 195 449 195 418 151 c 128,-1,13
 387 107 387 107 357 65.5 c 128,-1,14
 327 24 327 24 298 -17 c 1,15,16
 269 24 269 24 239 65.5 c 128,-1,17
 209 107 209 107 178 151 c 128,-1,18
 147 195 147 195 114.5 243.5 c 128,-1,19
 82 292 82 292 47 347 c 1,0,1
399 347 m 1,20,21
 373 391 373 391 348 426 c 128,-1,22
 323 461 323 461 298 496 c 1,23,24
 273 461 273 461 247.5 426 c 128,-1,25
 222 391 222 391 196 347 c 1,26,27
 222 303 222 303 247.5 268 c 128,-1,28
 273 233 273 233 298 198 c 1,29,30
 323 233 323 233 348 268 c 128,-1,31
 373 303 373 303 399 347 c 1,20,21
EndSplineSet
EndChar

StartChar: fi
Encoding: 61441 61441 427
Width: 708
Flags: W
LayerCount: 2
Fore
SplineSet
298 776 m 0,0,1
 340 776 340 776 367.5 769 c 128,-1,2
 395 762 395 762 414 754 c 1,3,-1
 388 637 l 1,4,5
 372 644 372 644 352.5 647 c 128,-1,6
 333 650 333 650 313 650 c 0,7,8
 286 650 286 650 267.5 642.5 c 128,-1,9
 249 635 249 635 238.5 622 c 128,-1,10
 228 609 228 609 223.5 591 c 128,-1,11
 219 573 219 573 219 552 c 2,12,-1
 219 526 l 1,13,-1
 403 526 l 1,14,-1
 403 402 l 1,15,-1
 219 402 l 1,16,-1
 219 0 l 1,17,-1
 70 0 l 1,18,-1
 70 554 l 2,19,20
 70 656 70 656 127.5 716 c 128,-1,21
 185 776 185 776 298 776 c 0,0,1
638 0 m 1,22,-1
 489 0 l 1,23,-1
 489 526 l 1,24,-1
 638 526 l 1,25,-1
 638 0 l 1,22,-1
652 678 m 256,26,27
 652 637 652 637 625.5 613.5 c 128,-1,28
 599 590 599 590 563 590 c 256,29,30
 527 590 527 590 500.5 613.5 c 128,-1,31
 474 637 474 637 474 678 c 256,32,33
 474 719 474 719 500.5 742.5 c 128,-1,34
 527 766 527 766 563 766 c 256,35,36
 599 766 599 766 625.5 742.5 c 128,-1,37
 652 719 652 719 652 678 c 256,26,27
EndSplineSet
EndChar

StartChar: fl
Encoding: 61442 61442 429
Width: 736
Flags: W
LayerCount: 2
Fore
SplineSet
298 776 m 0,0,1
 340 776 340 776 367.5 769 c 128,-1,2
 395 762 395 762 414 754 c 1,3,-1
 388 637 l 1,4,5
 372 644 372 644 352.5 647 c 128,-1,6
 333 650 333 650 313 650 c 0,7,8
 286 650 286 650 267.5 642.5 c 128,-1,9
 249 635 249 635 238.5 622 c 128,-1,10
 228 609 228 609 223.5 591 c 128,-1,11
 219 573 219 573 219 552 c 2,12,-1
 219 526 l 1,13,-1
 403 526 l 1,14,-1
 403 402 l 1,15,-1
 219 402 l 1,16,-1
 219 0 l 1,17,-1
 70 0 l 1,18,-1
 70 554 l 2,19,20
 70 656 70 656 127.5 716 c 128,-1,21
 185 776 185 776 298 776 c 0,0,1
700 -10 m 1,22,23
 635 -9 635 -9 594.5 4 c 128,-1,24
 554 17 554 17 530.5 40.5 c 128,-1,25
 507 64 507 64 498.5 97.5 c 128,-1,26
 490 131 490 131 490 173 c 2,27,-1
 490 752 l 1,28,-1
 639 776 l 1,29,-1
 639 203 l 2,30,31
 639 183 639 183 642 167 c 128,-1,32
 645 151 645 151 653.5 140 c 128,-1,33
 662 129 662 129 678 122 c 128,-1,34
 694 115 694 115 721 113 c 1,35,-1
 700 -10 l 1,22,23
EndSplineSet
EndChar

StartChar: f_f_i
Encoding: 64259 64259 431
Width: 1127
Flags: W
LayerCount: 2
Fore
SplineSet
298 776 m 0,0,1
 340 776 340 776 375 767.5 c 128,-1,2
 410 759 410 759 429 751 c 1,3,-1
 400 632 l 1,4,5
 380 641 380 641 356.5 645.5 c 128,-1,6
 333 650 333 650 313 650 c 0,7,8
 286 650 286 650 267.5 642.5 c 128,-1,9
 249 635 249 635 238.5 622 c 128,-1,10
 228 609 228 609 223.5 591 c 128,-1,11
 219 573 219 573 219 552 c 2,12,-1
 219 526 l 1,13,-1
 403 526 l 1,14,-1
 403 402 l 1,15,-1
 219 402 l 1,16,-1
 219 0 l 1,17,-1
 70 0 l 1,18,-1
 70 554 l 2,19,20
 70 656 70 656 127.5 716 c 128,-1,21
 185 776 185 776 298 776 c 0,0,1
717 776 m 0,22,23
 759 776 759 776 786.5 769 c 128,-1,24
 814 762 814 762 833 754 c 1,25,-1
 807 637 l 1,26,27
 791 644 791 644 771.5 647 c 128,-1,28
 752 650 752 650 732 650 c 0,29,30
 705 650 705 650 686.5 642.5 c 128,-1,31
 668 635 668 635 657.5 622 c 128,-1,32
 647 609 647 609 642.5 591 c 128,-1,33
 638 573 638 573 638 552 c 2,34,-1
 638 526 l 1,35,-1
 822 526 l 1,36,-1
 822 402 l 1,37,-1
 638 402 l 1,38,-1
 638 0 l 1,39,-1
 489 0 l 1,40,-1
 489 554 l 2,41,42
 489 656 489 656 546.5 716 c 128,-1,43
 604 776 604 776 717 776 c 0,22,23
1057 0 m 1,44,-1
 908 0 l 1,45,-1
 908 526 l 1,46,-1
 1057 526 l 1,47,-1
 1057 0 l 1,44,-1
1071 678 m 256,48,49
 1071 637 1071 637 1044.5 613.5 c 128,-1,50
 1018 590 1018 590 982 590 c 256,51,52
 946 590 946 590 919.5 613.5 c 128,-1,53
 893 637 893 637 893 678 c 256,54,55
 893 719 893 719 919.5 742.5 c 128,-1,56
 946 766 946 766 982 766 c 256,57,58
 1018 766 1018 766 1044.5 742.5 c 128,-1,59
 1071 719 1071 719 1071 678 c 256,48,49
EndSplineSet
Ligature2: "'liga' Standard Ligatures in Cyrillic lookup 22 subtable" f f i
Ligature2: "'liga' Standard Ligatures in Greek lookup 21 subtable" f f i
Ligature2: "'liga' Standard Ligatures in Latin lookup 20 subtable" f f i
EndChar

StartChar: f_f_l
Encoding: 64260 64260 432
Width: 1155
Flags: W
LayerCount: 2
Fore
SplineSet
298 776 m 0,0,1
 340 776 340 776 375 767.5 c 128,-1,2
 410 759 410 759 429 751 c 1,3,-1
 400 632 l 1,4,5
 380 641 380 641 356.5 645.5 c 128,-1,6
 333 650 333 650 313 650 c 0,7,8
 286 650 286 650 267.5 642.5 c 128,-1,9
 249 635 249 635 238.5 622 c 128,-1,10
 228 609 228 609 223.5 591 c 128,-1,11
 219 573 219 573 219 552 c 2,12,-1
 219 526 l 1,13,-1
 403 526 l 1,14,-1
 403 402 l 1,15,-1
 219 402 l 1,16,-1
 219 0 l 1,17,-1
 70 0 l 1,18,-1
 70 554 l 2,19,20
 70 656 70 656 127.5 716 c 128,-1,21
 185 776 185 776 298 776 c 0,0,1
717 776 m 0,22,23
 759 776 759 776 786.5 769 c 128,-1,24
 814 762 814 762 833 754 c 1,25,-1
 807 637 l 1,26,27
 791 644 791 644 771.5 647 c 128,-1,28
 752 650 752 650 732 650 c 0,29,30
 705 650 705 650 686.5 642.5 c 128,-1,31
 668 635 668 635 657.5 622 c 128,-1,32
 647 609 647 609 642.5 591 c 128,-1,33
 638 573 638 573 638 552 c 2,34,-1
 638 526 l 1,35,-1
 822 526 l 1,36,-1
 822 402 l 1,37,-1
 638 402 l 1,38,-1
 638 0 l 1,39,-1
 489 0 l 1,40,-1
 489 554 l 2,41,42
 489 656 489 656 546.5 716 c 128,-1,43
 604 776 604 776 717 776 c 0,22,23
1119 -10 m 1,44,45
 1054 -9 1054 -9 1013.5 4 c 128,-1,46
 973 17 973 17 949.5 40.5 c 128,-1,47
 926 64 926 64 917.5 97.5 c 128,-1,48
 909 131 909 131 909 173 c 2,49,-1
 909 752 l 1,50,-1
 1058 776 l 1,51,-1
 1058 203 l 2,52,53
 1058 183 1058 183 1061 167 c 128,-1,54
 1064 151 1064 151 1072.5 140 c 128,-1,55
 1081 129 1081 129 1097 122 c 128,-1,56
 1113 115 1113 115 1140 113 c 1,57,-1
 1119 -10 l 1,44,45
EndSplineSet
Ligature2: "'liga' Standard Ligatures in Cyrillic lookup 22 subtable" f f l
Ligature2: "'liga' Standard Ligatures in Greek lookup 21 subtable" f f l
Ligature2: "'liga' Standard Ligatures in Latin lookup 20 subtable" f f l
EndChar

StartChar: caron.alt
Encoding: 65540 -1 463
Width: 208
Flags: W
LayerCount: 2
Fore
SplineSet
162 776 m 1,0,-1
 129 532 l 1,1,-1
 40 532 l 1,2,-1
 40 776 l 1,3,-1
 162 776 l 1,0,-1
EndSplineSet
EndChar

